<svg version="1" xmlns="http://www.w3.org/2000/svg" width="346.667" height="346.667" viewBox="0 0 260.000000 260.000000"><path d="M73.2 39c-.4.3-.7 27.7-.6 61 .1 33.3-.1 60.9-.5 61.5-.3.5-.6 1.6-.8 2.4-.3 2.5-2.5 7.1-3.4 7.1-.4 0-1.1.9-1.4 2-.4 1.1-1.1 1.8-1.6 1.5-.5-.4-.9-.2-.9.4 0 2-8.4 5.4-14 5.6-3 .2-5.9 0-6.5-.3-.5-.4-1.9-.8-3-.9-1.1-.2-2.2-.8-2.3-1.3-.2-.6-.9-1-1.6-1-1.6 0-5.6-4.2-5.6-5.9 0-.7-.4-1-.9-.6-.5.3-1.9-2.1-3.1-5.2-1.8-4.6-2.3-8.1-2.4-17l-.1-11.2H14c-5.8 0-11 .3-11.6.7-1.3.8-1.3 20-.1 21.9.5.7.4 1.3-.2 1.3-.9 0-.5 1.7 2.2 9.2.5 1.5.9 3.1 1 3.5 0 .4.5 1.3 1.1 2 .6.7 2.6 3.4 4.5 6 5.9 8.4 19 16.9 26.9 17.5 1.7.1 3.2.5 3.2.8 0 .6 43.7.5 46-.1.8-.2 2.1-1 2.8-1.7.7-.6 2-1.2 2.9-1.2.9 0 9.9-8.3 20-18.5l18.5-18.5 20.3 20.3 20.3 20.2H188.5l.3-81 .2-81h-11.6c-11.4 0-11.5 0-11.1 2.2.2 1.3.1 2.3-.2 2.3-.8 0-.5 9.5.3 10.9.4.5.3 1.2-.2 1.5-.8.5-.7 7.9.2 10.3.3.7.2 1.3-.2 1.3-.9 0-.7 9.4.2 10.9.4.5.3 1.2-.2 1.5-.8.5-.7 7.9.2 10.3.3.7.2 1.3-.2 1.3s-.7 2-.7 4.5.4 4.5.8 4.5c.5 0 .5.5.1 1.2-1 1.6-1.1 14.8-.1 14.8.5 0 .5.5.1 1.2-1 1.6-1.1 14.8-.1 14.8.5 0 .5.5.1 1.2-.9 1.4-.8 15.3.1 16.8.3.5.2 1-.3 1-.4 0-.7 1.9-.5 4.1.4 5 .8 5.3-12.8-8.2-9.6-9.6-11.7-13.2-9.6-16.7.5-.6.5-1.2 0-1.2-1 0-.9-5.2.1-6.8.4-.7.3-1.2-.2-1.2-1 0-.9-3 .2-4.8.4-.6.3-1.2-.2-1.2-1 0-.9-3 .2-4.8.4-.7.1-1.2-.8-1.2s-1.6-.4-1.6-.9c0-.9-5.5-.5-7.1.4-.5.4-.9.2-.9-.3 0-1-3-.9-4.8.2-.6.4-1.2.3-1.2-.2s-1-.8-2.2-.6c-1.3.1-3 .3-3.8.3-1.3.1-1.5 2.3-1.4 13.9.1 13-.8 18.8-2.7 17.6-.5-.3-.9.2-.9 1 0 .9-.6 1.6-1.2 1.7-.7 0-3.7 2.7-6.5 6-2.9 3.2-5.3 5.6-5.3 5.3 0-.3-1.2.9-2.6 2.6-1.5 1.7-2.9 2.9-3.2 2.6-.2-.3-.4-27.3-.4-60.1.1-32.7-.2-59.6-.6-59.6-2.4-.4-22.5-.3-23 .1zM216.4 163.9c-.5.6-.9.7-3.6 1-2 .2-8.4 6.4-10 9.6-3 5.9-.7 18.5 3.7 20.2.8.3 1.3.9 1 1.3-.8 1.3 9.6 4.8 13.2 4.4 4.6-.4 9.6-3 12.7-6.5 1.4-1.6 2.4-2.9 2.1-2.9-.2 0 0-1.2.6-2.8 1.4-3.3 1.2-12.6-.1-13-.6-.2-.8-.8-.4-1.3.3-.5 0-.9-.5-.9-.6 0-1.1-.6-1.1-1.3 0-1.4-2.6-3.9-5.9-5.7-2.7-1.4-10.9-2.9-11.7-2.1z"/></svg>