<svg xmlns="http://www.w3.org/2000/svg" xmlns:xlink="http://www.w3.org/1999/xlink" viewBox="0 0 929.7 818.7"><defs><linearGradient id="a" x1="848.5" x2="848.5" y1="309.8" y2="277.9" gradientUnits="userSpaceOnUse"><stop offset="0" stop-color="gray" stop-opacity=".3"/><stop offset=".5" stop-color="gray" stop-opacity=".1"/><stop offset="1" stop-color="gray" stop-opacity=".1"/></linearGradient><linearGradient id="b" x1="839.1" x2="839.1" y1="807.4" y2="171.9" xlink:href="#a"/></defs><ellipse cx="753.6" cy="754.3" fill="#43529c" opacity=".1" rx="118.9" ry="20.4"/><ellipse cx="393.7" cy="734.3" fill="#43529c" opacity=".1" rx="176" ry="12.4"/><path fill="#43529c" d="M287.6 32c31.5-28 81-33.8 126-31.6 141.5 7 269.1 75.4 379.6 152.6 40 28 79.3 58 105.3 96.6 52.8 78.4 37.1 187-36.3 251.5-25 22-55.3 38.8-86.4 53.7-55.3 26.6-115 48-177.8 54-44.7 4.3-90 .8-134.6-5.2-124.3-17-246.3-54.2-348.6-118-44.8-28-87.1-62.8-105.6-108S2.5 275 48.3 248.2c19-11 41.6-16 63.8-20.8 32.7-6.9 65.8-13.7 95.3-27.8 30.4-14.5 66.4-42.6 60.4-74.8-6.5-34.5-11.7-64.7 19.8-92.8z" opacity=".1"/><path fill="#43529c" d="M164 176.9h-7.5"/><g opacity=".1"><path d="M406.6 646.3c3.9 6.6 10 10.8 16.7 10.8 11.6 0 21-12.3 21-27.4s-9.5-27.4-21-27.4c-5.5 0-10.4 2.8-14.2 7.2a27 27 0 00-3.5 5.6l-.2 1.2s-4.5 3.8-10.6.3v-88.8h-86.7a7 7 0 01-1-6.5 8.4 8.4 0 013.9-4.8c6.5-3.8 10.7-9.9 10.7-16.6 0-11.6-12.3-21-27.4-21s-27.4 9.3-27.4 21c0 5.4 2.7 10.4 7.2 14.1a27.3 27.3 0 005.5 3.6l.2.2a8.5 8.5 0 011.6 10h-39v164.5a39 39 0 0039 39h113.4V644a7 7 0 017.1-1.5 8.3 8.3 0 014.8 3.8z"/><path d="M260.7 524.3h13.6a27.4 27.4 0 01-10.7-21.5c0-15.6 13.6-28.2 30.3-28.2s30.4 12.6 30.4 28.2a27.4 27.4 0 01-10.7 21.5H395v-87.6a7 7 0 017-1.5 8.3 8.3 0 014.9 4c3.8 6.5 9.8 10.7 16.6 10.7 11.6 0 21-12.3 21-27.4s-9.4-27.5-21-27.5c-5.5 0-10.4 2.8-14.2 7.2a27.6 27.6 0 00-3.5 5.6l-.2.1a8.5 8.5 0 01-10.6 1.4v-88.8h-83.5a7 7 0 01-1-6.5 8.3 8.3 0 013.9-4.8c6.5-3.8 10.7-9.8 10.7-16.6 0-11.6-12.2-21-27.4-21s-27.4 9.4-27.4 21c0 5.5 2.7 10.4 7.2 14.2a27.6 27.6 0 005.6 3.5v.2a8.5 8.5 0 011.8 10h-24.2V316h17.8a27.4 27.4 0 01-10.7-21.5c0-15.5 13.6-28.2 30.4-28.2s30.4 12.6 30.4 28.2a27.4 27.4 0 01-10.8 21.5H395v-88.7a7 7 0 017.1-1.5 8.3 8.3 0 014.8 4c3.8 6.5 9.9 10.7 16.6 10.7 11.6 0 21-12.3 21-27.4s-9.3-27.4-21-27.4c-5.4 0-10.4 2.7-14.1 7.2a27 27 0 00-3.6 5.5l-.2 1.2s-4.5 3.9-10.6.3v-82.7H281.5a39 39 0 00-39 39v42.2h-.6a2.3 2.3 0 00-2.3 2.3v20a2.3 2.3 0 002.3 2.3h.6v20.4h-.8a2.3 2.3 0 00-2.3 2.3V284a2.3 2.3 0 002.3 2.3h.8v15h-.7a2.3 2.3 0 00-2.2 2.3v12.3h-.5v26a2.3 2.3 0 002.2 2.2h.7v180.3z"/><path d="M557.4 258.8a2.3 2.3 0 00-2.3-2.3h-1.3V254h-.8v-99.7a37.5 37.5 0 00-37.5-37.5H403v76a27.8 27.8 0 0122-11c15.7 0 28.5 13.5 28.5 30.3s-12.8 30.4-28.5 30.4a27.7 27.7 0 01-22-11v84.3h91a27.5 27.5 0 01-10.7-21.5c0-15.7 13.6-28.3 30.3-28.3a31.4 31.4 0 0120.4 7.3 26.7 26.7 0 010 41.8v.7h19.8v-.1h3.6zM527.2 519.9v-10a19 19 0 001.1-2 16.7 16.7 0 002.1-7.9 16.4 16.4 0 00-1-5.4 18 18 0 00-2.2-4.4 29.4 29.4 0 00-24.2-11.1c-15.2 0-27.4 9.4-27.4 21 0 5.4 2.7 10.4 7.2 14.1a27.6 27.6 0 005.6 3.6v.2a8.5 8.5 0 011.7 10H402v82a27.4 27.4 0 0121.8-11c15.6 0 28.2 13.6 28.2 30.4s-12.6 30.3-28.2 30.3a27.4 27.4 0 01-21.8-11V715h101.3a24 24 0 0024-24V528v162.8a24 24 0 01-24 24H401.9v16h105a39 39 0 0039-39V523.8h-18.7z"/></g><path fill="#3a3768" d="M286 711.2a24 24 0 01-24-24V523.7h-18.7v164.5a39 39 0 0039 39h113.5v-16z"/><path fill="#43529c" d="M402.8 638.5a8.3 8.3 0 014.8 3.9c3.8 6.5 9.9 10.7 16.6 10.7 11.6 0 21-12.3 21-27.4s-9.4-27.4-21-27.4c-5.4 0-10.3 2.8-14 7.2a27 27 0 00-3.6 5.6l-.2 1.2s-4.5 3.8-10.6.3v-88.8h-86.7a7 7 0 01-1-6.5 8.4 8.4 0 013.8-4.8c6.6-3.8 10.8-9.9 10.8-16.6 0-11.6-12.3-21-27.4-21s-27.4 9.3-27.4 21c0 5.4 2.7 10.4 7.2 14.1a27.3 27.3 0 005.5 3.6l.2.2a8.5 8.5 0 011.6 10H262V687a24 24 0 0024 24.1h109.8V640a7 7 0 017-1.5z"/><path fill="#3a3768" d="M240 311.7h3v4.8h-3zM245.5 311.7h16.2v4.8h-16.2zM243 311.7h2.5v4.8H243zM242.3 340h.7v-23.5h-3v21.1a2.3 2.3 0 002.3 2.3zM261.7 316.5h-16.2v21.1a2.3 2.3 0 01-2.3 2.3h-.2v180.4h18.7z"/><path fill="#3a3768" d="M243 340h.2a2.3 2.3 0 002.3-2.4v-21H243z"/><path fill="#43529c" d="M264.6 498.8c0-15.6 13.6-28.2 30.3-28.2s30.4 12.6 30.4 28.2a27.4 27.4 0 01-10.7 21.5H396v-87.6a7 7 0 017-1.5 8.3 8.3 0 014.9 4c3.8 6.5 9.8 10.7 16.6 10.7 11.6 0 21-12.3 21-27.4s-9.4-27.5-21-27.5c-5.5 0-10.4 2.8-14.2 7.2a27.6 27.6 0 00-3.5 5.6l-.2.1a8.5 8.5 0 01-10.6 1.4v-88.8h-83.5a7 7 0 01-1-6.5 8.3 8.3 0 013.9-4.8c6.5-3.8 10.7-9.8 10.7-16.6 0-11.6-12.3-21-27.4-21s-27.4 9.4-27.4 21c0 5.5 2.7 10.4 7.2 14.2a27.6 27.6 0 005.6 3.5v.2a8.5 8.5 0 011.8 10h-24.2v203.8h13.6a27.4 27.4 0 01-10.7-21.5z"/><path fill="#3a3768" d="M246 299a2.3 2.3 0 00-2.3-2.2h-.2v15h2.5zM243.4 194.4h-.5a2.3 2.3 0 00-2.3 2.3v20a2.3 2.3 0 002.3 2.3h.6v-24.6zM242.7 239.4a2.3 2.3 0 00-2.3 2.3v38.2a2.3 2.3 0 002.3 2.3h.8v-42.8zM243.5 297.1h-.7a2.3 2.3 0 00-2.3 2.3V312h3z"/><path fill="#3a3768" d="M243.5 152.2v42.2a2.3 2.3 0 012.2 2.3v20a2.3 2.3 0 01-2.2 2.3v20.4h.3a2.3 2.3 0 012.3 2.3v38.2a2.3 2.3 0 01-2.3 2.3h-.3v15h.1a2.3 2.3 0 012.3 2.3V312h16.3V153.3a24 24 0 0124-24h32.6v4.2a19.8 19.8 0 0019.8 19.8H396v-13.1h-26.4a3.9 3.9 0 01-3.9-3.9v-.8a3.9 3.9 0 014-3.9H396v-18.4H282.5a39 39 0 00-39 39z"/><path fill="#3a3768" d="M245.7 216.7v-20a2.3 2.3 0 00-2.2-2.3V219a2.3 2.3 0 002.2-2.3zM246.1 279.9v-38.2a2.3 2.3 0 00-2.2-2.3h-.4v42.8h.3a2.3 2.3 0 002.3-2.3z"/><path fill="#43529c" d="M268.8 290.5c0-15.6 13.6-28.2 30.4-28.2s30.4 12.6 30.4 28.2a27.4 27.4 0 01-10.8 21.5H396v-88.7a7 7 0 017.1-1.5 8.3 8.3 0 014.8 4c3.8 6.5 9.8 10.7 16.6 10.7 11.6 0 21-12.3 21-27.4s-9.4-27.4-21-27.4c-5.4 0-10.4 2.7-14.1 7.2a27 27 0 00-3.6 5.5l-.2 1.2s-4.5 3.9-10.6.3v-42.7h-57.3a19.8 19.8 0 01-19.8-19.8v-4.2h-32.6a24 24 0 00-24 24.1V312h17.3a27.4 27.4 0 01-10.7-21.5z"/><path fill="#e6e8ec" d="M369.6 131.6a3.9 3.9 0 00-3.9 3.9v.8a3.9 3.9 0 004 4H396v-8.7z"/><path fill="#3a3768" d="M548 252.4v59.4h6.8V250H551c-1.7 0-3 1.1-3 2.4zM404 112.8h8v18h-8zM404 139.8h8v13h-8z"/><path fill="#e6e8ec" d="M404 130.8h8v9h-8z"/><path fill="#3a3768" d="M556.1 252.5h-1.8v59.2h4.1v-56.9a2.3 2.3 0 00-2.3-2.3zM412 130.8c2.1.5 4 4.3 4 4.3v.9s-1.9 3.9-4 3.8v13h45.2A19.8 19.8 0 00477 133v-4.2h34a24 24 0 0124 24v116.5a26.7 26.7 0 010 41.8v.7h14V253a.3.3 0 01.3-.3h4.7V150.3a37.5 37.5 0 00-37.5-37.5H411v18zm15.1-.1a4.9 4.9 0 11-4.8 4.9 4.9 4.9 0 014.8-5z"/><path fill="#43529c" d="M426 177.7c15.7 0 28.4 13.6 28.4 30.4s-12.7 30.4-28.4 30.4a27.7 27.7 0 01-22-11v84.3h91a27.5 27.5 0 01-10.7-21.6c0-15.6 13.5-28.2 30.3-28.2a31.4 31.4 0 0120.4 7.3V152.8a24 24 0 00-24-24h-34v4.2a19.8 19.8 0 01-19.8 19.8H404v36a27.8 27.8 0 0122-11z"/><path fill="#e6e8ec" d="M412 139.8a4 4 0 004-3.8v-.9a5 5 0 00-4-4.3h-1v9z"/><circle cx="562.3" cy="176.2" r="4.9" fill="#e6e8ec" transform="rotate(-9.2 242.5 994)"/><path fill="#3a3768" d="M528.2 515.9v-10a16.7 16.7 0 000-19.7zM528.2 519.7h18.7v4.3h-18.7z"/><path fill="#43529c" d="M520.7 512.7a8.3 8.3 0 00-4 4.8 7 7 0 001.1 6.5h10.4v-4.3h-4a30 30 0 004-3.9v-10a23.7 23.7 0 01-7.5 6.9z"/><path fill="#43529c" d="M524.2 519.7h4v-3.9a30 30 0 01-4 4z"/><path fill="#3a3768" d="M531.4 496a17 17 0 00-3.2-9.8V506a17.1 17.1 0 003.2-9.8zM547 524v164a39 39 0 01-39 39H403v-16h101.2a24 24 0 0024-24.1V524z"/><path fill="#43529c" d="M516.8 517.5a8.3 8.3 0 013.9-4.8 23.7 23.7 0 007.5-6.8v-19.7a29.4 29.4 0 00-24.2-11.1c-15.2 0-27.4 9.4-27.4 21 0 5.4 2.7 10.4 7.2 14.1a27.6 27.6 0 005.6 3.6v.2a8.5 8.5 0 011.7 10H403v82a27.4 27.4 0 0121.8-11c15.6 0 28.2 13.6 28.2 30.4s-12.6 30.4-28.2 30.4a27.4 27.4 0 01-21.8-11v66.1h101.3a24 24 0 0024-24V524h-10.4a7 7 0 01-1-6.5z"/><path fill="url(#a)" d="M842.2 309.8c5.6-2.5 9.7-6.7 11.1-12.2a15.3 15.3 0 00.4-2 17.8 17.8 0 00.6-1.9c1.4-5.4-.1-11-3.8-15.9l-7.3 28z" transform="translate(-135.2 -40.7)"/><path fill="url(#b)" d="M1011 299.3c-1.2-6.7-22.3-21.2-22.3-21.2s-9.4-5-14.3-10.8c-3.2-3.6-4.2-3.6-4.5-3.1a1.5 1.5 0 00-.6-.2l-.6-.5a1.4 1.4 0 00-.8-1.3l-.7-.5a22.7 22.7 0 01-2.4-9.8c-.2-4.2-5-3.2-6.6-2.7l-3.3-6.5a11.8 11.8 0 001.2-2.2c3-6.4 2.3-13.7 3.6-20.5.9-4.9 2.8-10 2.4-14.8v-.3a12.7 12.7 0 00-.8-3.4c-.8-2.2-2.3-4-3-6.2-1-3.3-.4-6.8-1.3-10-1-4.2-4.6-7.4-8.5-9.3s-8.4-2.4-12.7-3c-10.9-1.3-22.4-2.1-32.3 2.4a5.8 5.8 0 01-3 .8 9.2 9.2 0 01-2.8-1.2c-2.6-1.3-6-.5-8.4 1.3s-4 4.3-5.5 6.7-3.3 5-5.8 6.6c-2.9 2-6.7 2.6-9 5.2a8.4 8.4 0 00-1.8 4.3 5.5 5.5 0 000 .5v2.1a27.3 27.3 0 001.9 7.1 9.9 9.9 0 002.6 4.5c3.5 2.8 9 .1 13.2 1.7l1 .5v.5a33.2 33.2 0 00-1.4 9.4c0 18.8 15.6 34 34.8 34l2.1-.1.3 1.1a36.9 36.9 0 011 12.7l-.2-1.8a9.2 9.2 0 00-1.4-.6 13 13 0 00-4.3-.6c-4.8-.1-11.9 1.8-19.5 11 0 0-9.7 5.4-12.5 6.7a1.3 1.3 0 00-.6.6s-13 19.6-14.3 27l-3 16s-3.2 9.7-5.3 14-4 8.4-4.2 10.2.8 6-3.2 8.5-5 9.7-5 9.7l-4.9 4.3 10.4-40.1 1.9.5a2.4 2.4 0 002.4-.9 2.2 2.2 0 00.4-.8l2.1-8.1.9-3.2.2-.7 1.2-4.7-4.2-1-4.8-1.2-13.8-3.5 1.2-4.6 1-3.9 6.3-24.1 1-4a33 33 0 00-18.2-11.3c-15.1-3.7-29.7 2.4-32.7 13.7a15.3 15.3 0 00-.4 2 14.6 14.6 0 00-.6 1.9 16 16 0 00-.4 6l.2 1a20.6 20.6 0 003.8 8.5 27.3 27.3 0 004.7 4.9v.2a9.1 9.1 0 011.3 4v.6a9.2 9.2 0 01-1.2 1.7l-92.2-23-1 4-20.8 79.8a30.1 30.1 0 019-4.8 29.3 29.3 0 013.9-1h.5a27.9 27.9 0 0111.2.4 28.6 28.6 0 0121.2 24.5 29.8 29.8 0 01.2 4.5 31.4 31.4 0 01-.6 5.6 30.1 30.1 0 01-35.3 20.7 28 28 0 01-18.9-16.2l-1 4-21.4 81.9 81.7 20.3.9-4h.1a27.1 27.1 0 01-5.6-21.6l.1-.3.3-.9a27.6 27.6 0 012-4l1.3-1.8.9-1.1a28.4 28.4 0 014.9-4.7l.5-.4a46.5 46.5 0 013.3-2 32.4 32.4 0 0115.7-3.8 34.5 34.5 0 017.8 1 32.3 32.3 0 0119.3 13.4 29.2 29.2 0 011.6 2.8 27.4 27.4 0 012.9 9.1 25.9 25.9 0 01-.2 7.7 27.2 27.2 0 01-10.6 13.7l-1 3.8h.1-.1l-1 3.8 18.6 4.6 26.4-101c7.2-.8 10.8-4 10.8-4.5s8.6-5.2 13.3-6.5c2.4-.6 5.1-1 7.3-1.5-2.6 12.7-5 25-4.8 25.7 0 .3.6-.2 1.3-1.1a5.4 5.4 0 00-.1 1c0 .3.2.1.6-.2v.2s-15 28.7-16 32 .2 11.7 4.8 14.5a9.8 9.8 0 012.3 2l-.5 1.1c-1.7 3.5-3.2 7.3-3 9.7a13.1 13.1 0 01-2 8.7s-12.8 39.7-12.5 51-4.6 36.6-4.6 36.6-5.3 16.2-2.1 20.8 6.7 24.6 6.7 24.6 2.4 4.6 2.3 8.5 2.3 11 2.3 11l8 28.9s-1 7.6 2 13 2.8 3.8 1.4 13.3 1.7 18.3 6.8 21c2 1 2.1 2.7 1.5 4.4-1.3-.6-2.4 2.2-3 4.3l-.7.7h.4l-.4 2s-13.4 11-14.3 15.1-10.3 6.1-10.3 6.1-14.2 4-18 5.9a6.8 6.8 0 00-3.9 5.4 14.8 14.8 0 00.5 5.5c1.4 5.7 21.4 6.2 31 4.7s29.4-7.1 29.4-7.1 20.9-2 27-4.5 1.3-8.9 1.3-8.9v-.6c.1-2.3.6-10.8-1-13-1-1.7-1-6-.8-8.7 4.1-7.5-4.8-30-4.8-30s1.7-22 .6-25.2-6-30.5-6-30.5-3-12.4-1.9-14.5-.7-8.1-.7-8.1-4.9-6.7-4.5-8.8-1.4-5.8-1.4-5.8 14.6-21.8 13.3-25.8.6-10.6.6-10.6l4-6.8 7-11.6a146 146 0 006.7-16.6l1.3-3.8s2.3 41 4.3 45.2 5 37.2 5 37.2a22.6 22.6 0 011.4 9.2c-.2 5.2 4.6 27.6 4.6 27.6s2.2 15.9.7 20-.3 35-.3 35-7.8 6-9.8 10.6.3 17.2.3 17.2l.9.4a26.4 26.4 0 00-1.6 5.4c-.3 2.7-4.6 14.7-4.2 16.3s-1.8 6.9-2.1 9.5-3.9 6.6-4.2 8a34.1 34.1 0 01-1.5 3.6 35 35 0 00-1.9 5.7c-1.4 5.8 15.6 6.8 15.6 6.8 25 4.6 29.7-14.2 29.7-14.2s3.1-16.7 4.2-18a2 2 0 00.2-1.6 21.2 21.2 0 00-3.6-7.9c-.8-.9-.8-3.3-.7-5.4a12.6 12.6 0 002.1-.4c10.2-3 6-19.8 6-19.8s6.9-11.1 6.9-15.5 2.4-17.5 2.4-17.5c8.7-15.6 5.3-53.5 6.7-56.6s-3-14.5-6.5-19.7-2.2-19 0-23-2.2-18-2.2-18 4.2-27 4-31.3 3.6-16.6 3.6-16.6 3.7-6.4 2.8-8.3 2.9-7 1.9-9.2.9-9.1 2.7-13.1c1-2.1 2.1-7.8 3-12.9l.3-1.7c4.2 2.7 8 4.6 9.4 4.1 2.5-1-1.5-14-4.3-22 .5-.5.7-.7.5-.8-1.8-1.2.1-6.2.1-6.2 10.1-6 6.7-10.4 3.5-13s-1.2-10-2.1-13 1.1-16.5 2.8-26.4a18.9 18.9 0 000-6.4l5.4-8.4c5.7-9.3 17.8-53.5 17.8-53.5v-.3c1.2-2.3 2-4.2 2.5-5.5 3.7-9.6-3.1-38.6-4.3-45.3zm-88.8-25.5h.3v.1zm-181.8 233zm126.5 241.4a4.6 4.6 0 01-1.8-.4z" transform="translate(-135.2 -40.7)"/><path fill="#fec2be" d="M626 385.2c8.2 3.2 27.3 3.5 35.8 3.5h4.2l5.5-11.1-5.5-9.3s-5-1.3-11.6-2.5c-9.8-1.8-23.2-3.2-29.6.8-10.7 6.6-9.5 14.6 1.2 18.6z"/><path d="M661.8 388.7h4.2l5.5-11.1-5.5-9.3s-5-1.3-11.6-2.5c5.4 4 18.3 12.5 7.4 22.9z" opacity=".1"/><path fill="#4c4981" d="M752.1 252.5l-2.4-2.8s-12.4 19.6-13.7 27l-3 15.9s-3.1 9.6-5.2 13.8-3.8 8.4-4 10.2.7 6-3.2 8.5-4.8 9.6-4.8 9.6-14 13.7-21.4 14-28.7 4.1-28 7.8-8.8 6-12.7 6.9 25 12 8.1 26.2c0 0 10.7 2.2 11.9 4.8S686 393 686 393s2.5-5.7 10.8-6 12.5-4.1 12.5-4.7 8.4-5.2 13-6.5 10.8-1.8 11-3.1L761 252.4z"/><path d="M752.1 252.5l-2.4-2.8s-12.4 19.6-13.7 27l-3 15.9s-3.1 9.6-5.2 13.8-3.8 8.4-4 10.2.7 6-3.2 8.5-4.8 9.6-4.8 9.6-14 13.7-21.4 14-28.7 4.1-28 7.8-8.8 6-12.7 6.9 25 12 8.1 26.2c0 0 10.7 2.2 11.9 4.8S686 393 686 393s2.5-5.7 10.8-6 12.5-4.1 12.5-4.7 8.4-5.2 13-6.5 10.8-1.8 11-3.1L761 252.4z" opacity=".1"/><path fill="#ca8496" d="M781 765.6c24.3 4.6 28.8-14.1 28.8-14.1s3-16.7 4.1-18a2 2 0 00.2-1.5 21.8 21.8 0 00-3.5-7.8c-1.5-1.9-.3-9.3-.3-9.3l-28.3-7.2s-2.5 5.6-2.8 8.3-4.4 14.5-4 16.2-1.8 6.8-2 9.4-3.8 6.5-4 8a32.7 32.7 0 01-1.6 3.6 36.6 36.6 0 00-1.8 5.6c-1.4 5.8 15.1 6.8 15.1 6.8z"/><path d="M781 765.6c24.3 4.6 28.8-14.1 28.8-14.1s3-16.7 4.1-18a2 2 0 00.2-1.5l-5.9 16.8s-4.8 10.2-22.9 8.6a42.3 42.3 0 01-17.7-4.2 36.6 36.6 0 00-1.8 5.6c-1.4 5.8 15.1 6.8 15.1 6.8z" opacity=".1"/><path d="M800 739.3s-6.2.1-6.6-4.9z" opacity=".1"/><path fill="#43529c" d="M610.1 467.1l3.9 1-.8 3.9-3.6-.9.5-4z"/><path d="M610.1 467.1l3.9 1-.8 3.9-3.6-.9.5-4z" opacity=".1"/><path fill="#3a3768" d="M723.9 288.8l1.1-4.7 4.1 1-1.2 4.7zM705.7 284.1l1.2-4.6 13.3 3.4-1.1 4.6z"/><path fill="#3a3768" d="M719 287.6l1.3-4.7 4.7 1.3-1.2 4.6z"/><path fill="#43529c" d="M707 278.9l-.9.4.8.2-1.2 4.7-6-1.5a7 7 0 01.7-6.6 8.3 8.3 0 015-3.7 26 26 0 003.7-1.3z"/><path fill="#3a3768" d="M721.2 299.1l1.8.5a2.3 2.3 0 002.8-1.7l2-8-4-1zM719.8 259a18.6 18.6 0 01-10.8 12l7.1-27.8a18.5 18.5 0 013.7 15.8z"/><path fill="#3a3768" d="M718.7 298.5a2.3 2.3 0 01-1.7-2.8l2.1-8.1-13.4-3.4-40.9 160.5a26.7 26.7 0 01-8.7 34.3l-1 3.7 18.2 4.6 48-188.1z"/><path fill="#3a3768" d="M717 295.7a2.3 2.3 0 001.7 2.8l2.5.6 2.6-10.3-4.7-1.2z"/><path fill="#43529c" d="M700.4 276a8.3 8.3 0 015-3.6 26.6 26.6 0 003.7-1.3l7-28a31.8 31.8 0 00-17.6-11.2c-14.7-3.8-28.9 2.3-31.7 13.5-1.4 5.3 0 10.8 3.4 15.5a27 27 0 004.6 4.9v.2a8.5 8.5 0 01-.8 10.1l-89.7-22.8-20.2 79.5a27.4 27.4 0 0123.7-5.4c15.1 3.9 24 20.2 19.9 36.4s-19.7 26.3-34.8 22.5a27.4 27.4 0 01-18.4-16l-20.8 81.5 79.5 20.2a27.4 27.4 0 01-5.1-23.4c3.8-15.1 20.1-24 36.4-19.9a31.3 31.3 0 0120.3 16l41-160.5-6-1.5a7 7 0 01.6-6.6z"/><path fill="#43529c" d="M706.9 279.5l.2-.6-1 .4z"/><g opacity=".1"><path d="M725 284.1l-4.7-1.2-13.4-3.4.2-.6 2-7.8a26 26 0 01-3.7 1.3 8.3 8.3 0 00-5 3.7 9.7 9.7 0 00-.8 1.6 9.6 9.6 0 01.8-1.6 8.3 8.3 0 015-3.7 26.6 26.6 0 003.7-1.3l7-28a31.8 31.8 0 00-17.6-11.2c-14.7-3.8-29 2.3-31.8 13.5-1.3 5.3.1 10.8 3.5 15.5a27 27 0 004.5 4.9l.1.2a8.5 8.5 0 01-.8 10.1l-89.7-22.8-20.2 79.5a27.4 27.4 0 0123.7-5.4c15.2 3.9 24 20.2 19.9 36.4s-19.7 26.3-34.8 22.5a27.4 27.4 0 01-18.4-16l-20.8 81.5 79.5 20.2a27.4 27.4 0 01-5.1-23.4c3.8-15.1 20.1-24 36.4-19.9a31.3 31.3 0 0120.3 16 26.7 26.7 0 01-8.7 34.2l-1 3.8 18.2 4.6 48-188.2 1.7.5a2.3 2.3 0 002.8-1.6l2-8.2 1.2-4.7zm-18.4-5l-.5.2zm-6.8 3.6l6 1.5z"/><path d="M719.8 259c1.4-5.4-.1-11-3.7-15.8l-7 27.9c5.4-2.5 9.4-6.8 10.7-12.1z"/></g><path fill="#3a3768" d="M724.8 284.9l1.2-4.7 4 1-1.1 4.7zM706.6 280.3l1.2-4.6 13.4 3.4-1.2 4.6z"/><path fill="#3a3768" d="M720 283.7l1.2-4.7 4.8 1.3-1.2 4.6z"/><path fill="#43529c" d="M708 275l-.9.4.8.2-1.2 4.7-6-1.5a7 7 0 01.7-6.6 8.3 8.3 0 015-3.6 25.9 25.9 0 003.7-1.4z"/><path fill="#3a3768" d="M722.2 295.2l1.8.5a2.3 2.3 0 002.8-1.7l2.1-8-4-1zM720.8 255a18.6 18.6 0 01-10.8 12.2l7.1-28c3.6 4.9 5.1 10.5 3.7 15.9z"/><path fill="#3a3768" d="M719.7 294.6a2.3 2.3 0 01-1.7-2.8l2-8-13.3-3.5L665.8 441a26.6 26.6 0 01-8.7 34.2l-1 3.7 18.2 4.6 48-188.2z"/><path fill="#3a3768" d="M718 291.8a2.3 2.3 0 001.7 2.8l2.5.6 2.6-10.3-4.7-1.2z"/><path fill="#43529c" d="M701.4 272.2a8.3 8.3 0 015-3.6 25.9 25.9 0 003.7-1.4l7-28a31.8 31.8 0 00-17.6-11.2c-14.7-3.7-28.9 2.3-31.8 13.6-1.3 5.2.1 10.7 3.5 15.4a27 27 0 004.6 4.9v.2a8.6 8.6 0 01-.8 10.1l-89.7-22.8L565 329a27.4 27.4 0 0123.8-5.4c15.1 3.9 24 20.2 19.9 36.4s-19.7 26.4-34.9 22.5a27.5 27.5 0 01-18.3-16l-20.8 81.5 79.4 20.2a27.4 27.4 0 01-5-23.5c3.8-15 20.1-24 36.4-19.8a31.2 31.2 0 0120.3 16l40.9-160.5-6-1.5a7 7 0 01.7-6.6z"/><path fill="#43529c" d="M707.9 275.6l.1-.6-.9.4z"/><path fill="#ceddf9" d="M693.8 575.3c3 4.6 6.6 24.6 6.6 24.6s2.3 4.6 2.2 8.5 2.2 11 2.2 11l7.8 28.7s-.9 7.6 2 13 2.7 3.7 1.3 13.1 1.7 18.2 6.6 21-2.2 9.3-2.2 9.3 32 8.6 38.6 3.3-3.5-31.3-3.5-31.3 1.7-22 .6-25.1S750 621 750 621s-2.9-12.3-1.8-14.4-.6-8-.6-8-4.8-6.7-4.3-8.7-1.4-5.9-1.4-5.9 14-21.7 12.8-25.7.6-10.6.6-10.6l4-6.7 6.8-11.6c1.4-2.1 4.6-11.2 6.5-16.5l1.3-3.7s2.2 40.7 4.1 45 4.9 37 4.9 37a23 23 0 011.4 9c-.3 5.2 4.4 27.5 4.4 27.5s2.1 15.8.7 20-.3 34.8-.3 34.8-7.6 6-9.5 10.6.2 17 .2 17 22.2 11 32 8.2 5.9-19.7 5.9-19.7 6.6-11.1 6.6-15.4 2.4-17.5 2.4-17.5c8.5-15.5 5.2-53.2 6.6-56.3s-3-14.4-6.4-19.5-2.1-19 0-23-2.2-18-2.2-18 4-26.8 4-31 3.4-16.5 3.4-16.5 3.6-6.4 2.8-8.3 2.7-7 1.8-9.2.8-9 2.6-13c1-2 2-7.7 3-12.7l1.5-9-23-18.5-57-15-21.5-7-21 33a83.9 83.9 0 00-4 7.5 22 22 0 00-3 9.6 13.3 13.3 0 01-1.9 8.6s-12.5 39.6-12.2 51-4.4 36.3-4.4 36.3-5.1 16-2 20.6z"/><path fill="#FBBEBE" d="M778.3 253.8c.9-.3 61.2-25.2 52.9-30.2-5-3-11-15.4-15.2-25.1-2.9-6.8-4.8-12.3-4.8-12.3s-48.5-8.6-31.1 21a55 55 0 016 14.7c5 20.2-7.4 31.6-7.8 32z"/><path d="M780 207.2a55 55 0 016.2 14.7 33.8 33.8 0 0028.6-20.1 32.2 32.2 0 001.2-3.3c-2.9-6.8-4.8-12.3-4.8-12.3s-48.5-8.6-31.1 21z" opacity=".1"/><path fill="#FBBEBE" d="M750 187a33.8 33.8 0 101.3-9.4 33.8 33.8 0 00-1.3 9.4z"/><path d="M717.3 449.2c3.6 3.2 5 9.4 5 9.4s16.6 11.3 15.5 4.1 8.6-36.3 8.6-36.3l-1.1 39.6s53.2-2.5 57.1-6.3 26.6-11.4 26.6-11.4 7 5.6 13.4 9.9l1.5-9-23-18.5-57-15-21.5-7-21 33a83.9 83.9 0 00-4 7.5z" opacity=".1"/><path fill="#fff" d="M715.6 446c4.4 2.8 6 10.3 6 10.3s16.7 11.4 15.6 4.2 8.6-36.3 8.6-36.3l-1 39.6s53.2-2.5 57-6.4 26.7-11.3 26.7-11.3 19.7 15.8 23.3 14.4-6.4-28.3-6.4-28.3L835 274.7s2.8-47-1.4-48.6a6 6 0 01-1.7-1c-2.7-2.5-3.6-7.5-3.8-11.7-.3-5-7-2.5-7-2.5l4 5-34.4 20.9-.3.1a38 38 0 00-4.2-1.8c-3-1.2-7-2.3-9.7-1.2a9.4 9.4 0 00-3.6 3.3 41.2 41.2 0 00-4.7 9.4l-12.5 21.1s-6.3 28-6.3 29.1-2 26.7-4.2 29.4-4.4 16.7-3.6 20.8-1.4 19.7-1.4 19.7c-9.2 7.5-13.9 33-13.9 33s-14.4 28.6-15.6 32 .3 11.6 4.8 14.4z"/><path d="M790.8 237.8c3.3 5 13 12 13 12l28.2-23.7c-2.7-2.5-3.6-7.5-3.8-11.7-.3-5-7-2.5-7-2.5l.9 1a4.5 4.5 0 01-1.2 6.6z" opacity=".1"/><path fill="#fff" d="M790.8 236.7c3.3 5 13 12 13 12L832 225c-2.7-2.5-3.6-7.5-3.8-11.7-.3-5-7-2.5-7-2.5l.9 1a4.5 4.5 0 01-1.2 6.6z"/><path d="M777.8 240.5c3.6 4.3 8.8 9.2 8.5 6.8s3-8 5.2-10.4a15.3 15.3 0 00-10 .3 9.3 9.3 0 00-3.7 3.3z" opacity=".1"/><path fill="#fff" d="M777.2 238.8c3.7 4.4 8.8 9.3 8.6 6.8s2.7-6.4 4.8-8.9c-3-1.2-7-2.3-9.7-1.2a9.3 9.3 0 00-3.7 3.3z"/><circle cx="786.3" cy="259.7" r="2.2" fill="#ff718d"/><circle cx="769.5" cy="319.6" r="2.2" fill="#ff718d"/><circle cx="750.5" cy="380.2" r="2.2" fill="#ff718d"/><circle cx="749.9" cy="446.3" r="2.2" fill="#ff718d"/><circle cx="776.5" cy="288" r="2.2" fill="#ff718d"/><circle cx="761.5" cy="349.5" r="2.2" fill="#ff718d"/><circle cx="746.9" cy="410" r="2.2" fill="#ff718d"/><circle cx="750.3" cy="453.6" r="2.2" fill="#ff718d"/><path d="M832 226.3s-.4-3.3 4.4 2.4 13.9 10.8 13.9 10.8 20.5 14.4 21.6 21 7.8 35.6 4.3 45.2-30.4 55.6-30.4 55.6 7 8.4 5.4 18.2-3.7 23.3-2.8 26.2-1 10.4 2 13 6.5 7-3.3 13c0 0-1.9 5-.2 6s-24.6 12.6-35 6.5-29-55-29.4-65.8 5.7-47 9-55.5 13.4-41.6 17.6-49 22.9-47.6 22.9-47.6z" opacity=".1"/><path fill="#4c4981" d="M833.1 226.3s-.4-3.3 4.4 2.4 14 10.8 14 10.8 20.4 14.4 21.5 21 7.8 35.6 4.3 45.2-30.3 55.6-30.3 55.6 7 8.4 5.3 18.2-3.7 23.3-2.7 26.2-1.2 10.4 2 13 6.4 7-3.4 13c0 0-1.8 5-.2 6s-24.6 12.6-35 6.5-29-55-29.4-65.8 5.8-47 9.1-55.5 13.3-41.6 17.6-49 22.8-47.6 22.8-47.6z"/><path d="M840.5 257.8s-15.9 17.6-15.4 29.2c0 0-.1-18.8 15.4-29.2zM818.5 286.7c0 .5-10.7 40.5-10.2 45.5s-3.1 19.7-3.1 19.7l-5-1.3s3.9-20.5 4.6-28 13.7-36 13.7-36zM814.2 400.6c.4.5 25.4 28.8 18.3 30.9s-18.3-31-18.3-31zM834.8 393.3c.5.4 10 20.4 11 15s-8 14.7-9.6-.1zM786.8 232.7s-10.3-6.3-23.2 9.8c0 0-9.5 5.3-12.2 6.6s-6 35.7-6 35.7-6 14.8-4.4 23.3-4.8 37.7-4.8 37.7-10.7 52.5-10.4 54 11-16.4 10.8-25.3 8.8-36.6 10.1-38.3S757 287 757 287s7.2-20.1 11.8-26.8 10.4-19.2 12.8-21.4a24.4 24.4 0 015.7-3.7z" opacity=".1"/><path fill="#4c4981" d="M787 232.7s-11.6-6.3-24.5 9.8c0 0-9.5 5.3-12.2 6.6s-6 35.7-6 35.7-6 14.8-4.4 23.3-4.8 37.7-4.8 37.7-10.7 52.6-10.4 54 11-16.4 10.8-25.3 8.8-36.6 10.1-38.3 10.2-49.2 10.2-49.2 7.2-20.1 11.9-26.8 10.3-19.2 12.7-21.4 6.9-3.7 6.9-3.7z"/><path fill="#FBBEBE" d="M736.2 348.2s-22-14.4-32.6-7.3-28 17.2-11 24.5 40.8 6 40.8 6z"/><path d="M751.5 487.4c3.3 7 6 42.4 7.8 53.6 2.7-4.5 5.8-9.9 7-11.6 1.3-2.1 4.5-11.2 6.4-16.5-2.1-5-7.9-19.6-7.9-25 0-6.5-10.5-14.7-10.5-14.7s-6.7 5.9-2.8 14.2zM822.2 596s-24.4-10.4-31.6-3 31.6 3 31.6 3zM808.5 600.1s24.7 14 16.2 16.2-16.2-16.1-16.2-16.1zM734.7 588s10.6.8 6.5 2.9-6.5-2.8-6.5-2.8zM721.5 591.3c.2.7 30.7 10.5 24.7 15s-24.7-15-24.7-15zM818.6 676.2c-4.5-.7-30-12.5-20-4s20 4 20 4zM806 685.5s-2.2 8.6-10.7 7.4 10.7-7.4 10.7-7.4zM813 703c-1.4-.5-19.6-8.8-20-5s17.3 10.8 18.7 8.7a7.4 7.4 0 001.4-3.8zM754.3 693c-2.2-.2-23-6.9-27.2-.9zM735.4 696.8s-3.6-3.2-7.2-1.5 7.2 1.5 7.2 1.5zM781.5 731.2a6.2 6.2 0 01-4.8 4.9z" opacity=".1"/><path fill="#ca8496" d="M675.6 744.3c1.4 5.6 20.8 6.2 30.1 4.7s28.6-7.1 28.6-7.1 20.3-2 26.2-4.4 1.3-9 1.3-9v-.5c.1-2.3.5-10.7-.9-13-1.7-2.7-.7-11.3-.7-11.3s-28.7 5.6-29.3 3-5-6.4-7-7.3-3.6 7-3.6 7-13 11-14 15.1-10 6.1-10 6.1-13.8 3.9-17.4 5.8a6.7 6.7 0 00-3.8 5.4 15 15 0 00.5 5.5z"/><path d="M675.6 744.3c1.4 5.6 20.8 6.2 30.1 4.7s28.6-7.1 28.6-7.1 20.3-2 26.2-4.4 1.3-9 1.3-9v-.5l-29 6.4s-14.3 6.1-23.5 6.1c-8 0-25.9 3.3-34.2-1.7a15 15 0 00.5 5.5z" opacity=".1"/><path d="M714.9 722.3s1.4 9.2 7 12.2zM751.3 177.6a10 10 0 001.6.7c2.6.7 5.2-1 7.5-2.5s5.5-2.4 7.5-.6c2.6 2.4.7 7.5 3.4 9.8 1.7 1.4 4.4.9 6.3 2s2.5 3.9 3 6.1 1.4 4.9 3.6 5.5 4.2-.8 6.4-.7c.4 0 1 0 1.3-.2a1.4 1.4 0 00.2-1 21.4 21.4 0 01.7-8c.9-2.6 3-5 5.6-5.3 4-.6 7.2 2.8 9.5 6a98.3 98.3 0 016.5 10.5 6.8 6.8 0 01.4.8 33.8 33.8 0 10-63.5-23z" opacity=".1"/><path fill="#573825" d="M807.9 188.8c-2.3-3.2-5.6-6.6-9.5-6-2.6.4-4.7 2.7-5.6 5.3a21.2 21.2 0 00-.7 8 1.4 1.4 0 01-.2 1c-.3.3-.9.3-1.3.3-2.2-.1-4.3 1.3-6.4.7s-3.2-3.3-3.7-5.5-1-4.8-2.9-6-4.6-.8-6.3-2.2c-2.7-2.3-.8-7.4-3.4-9.7-2-1.8-5.2-.8-7.5.6s-4.9 3.1-7.5 2.4c-.8-.2-1.6-.7-2.5-1-4.1-1.6-9.4 1-12.8-1.8a10 10 0 01-2.6-4.4 28.2 28.2 0 01-1.8-7 9.4 9.4 0 011.8-7c2.2-2.5 6-3.2 8.8-5.1 2.4-1.6 4-4.1 5.5-6.6s3.2-5 5.5-6.7 5.5-2.6 8.1-1.3a9 9 0 002.7 1.3 5.5 5.5 0 003-.8c9.5-4.6 20.7-3.8 31.3-2.4 4.2.5 8.5 1.2 12.3 3s7.3 5 8.4 9.1c.8 3.3.2 6.8 1.2 10 .7 2.2 2.1 4 3 6.2 2.3 5.9-.4 12.3-1.6 18.4-1.2 6.8-.6 14-3.5 20.4-.5 1.3-1.1 3.5-2.6 2.6-1-.6-2-4.1-2.6-5.2a97.2 97.2 0 00-6.6-10.6z"/><path d="M868.8 297.2l5 14.3s-11.8 44-17.4 53.2-13.6 21-13.6 21-13.7 7-29.6 3.8-62.4-11.5-62.4-11.5-3.9.8-5.9-2.2-12.6-4.5-12.6-4.5-12.2-17.7 2.8-25.1c0 0 1.8 4 9.8 1.3s10.3 2.2 10.3 2.2 13 2.6 20.2 1.7 25.2-1.3 27-2.8a2.4 2.4 0 013.3.2s4.5-1.7 6-3.3 3.5 1.8 3.5 1.8 2.6-1.5 1.8-3.3 2.4-8.9 2.4-8.9 1.5-4.6.6-8.3 4.6-17 4.6-17a23.5 23.5 0 00-.7-6.7c-1-3.3 7-10 7-10s7.7-37.7 24.2-25.3 13.7 29.4 13.7 29.4z" opacity=".1"/><path fill="#4c4981" d="M869.9 297.2l5 14.3s-11.8 44-17.4 53.2-13.7 21-13.7 21-13.6 7-29.6 3.8S752 378 752 378s-3.9.8-5.9-2.2-12.6-4.5-12.6-4.5-12.2-17.7 2.8-25.1c0 0 1.9 4 9.8 1.3s10.4 2.2 10.4 2.2 13 2.6 20.1 1.7 25.2-1.3 27-2.8a2.4 2.4 0 013.3.2s4.5-1.7 6-3.3 3.5 1.8 3.5 1.8 2.6-1.5 1.8-3.3 2.4-8.9 2.4-8.9 1.5-4.6.6-8.3 4.6-17 4.6-17a23.5 23.5 0 00-.7-6.7c-1-3.3 7-10 7-10s7.7-37.7 24.2-25.3 13.7 29.4 13.7 29.4z"/><path d="M749.7 356.8c.2 1.2 4.3 6.4 2.8 7.3s-3.9.4-1.7 3.4 2 7.4.6 6.8-4-7.2-4-9.8 2.3-7.8 2.3-7.8zM804.6 353.8s1.1 13 10.2 16.6-10.2-16.6-10.2-16.6zM823.5 349.3c.5.2 13 6.9 7.4 10.8s-7.4-10.8-7.4-10.8zM824.2 340.1s18.1 3.7 12 6.8-12-6.8-12-6.8z" opacity=".1"/><g opacity=".1"><path d="M792.8 185c1-2.6 3-5 5.7-5.3 3.9-.6 7.1 2.8 9.4 6a98.3 98.3 0 016.6 10.5c.6 1.1 1.6 4.7 2.7 5.3 1.4.8 2-1.4 2.5-2.6 3-6.4 2.3-13.7 3.5-20.4.8-4 2.1-8 2.4-12 .4 5-1.5 10-2.4 15-1.2 6.7-.6 14-3.5 20.3-.5 1.3-1.1 3.5-2.6 2.6-1-.6-2-4.1-2.6-5.2a98.3 98.3 0 00-6.6-10.6c-2.3-3.2-5.5-6.6-9.4-6-2.7.4-4.8 2.7-5.7 5.3a14.7 14.7 0 00-.7 4.1 19.4 19.4 0 01.7-7zM735 167.3a9.9 9.9 0 002.6 4.5c3.4 2.8 8.7.1 12.8 1.7.9.3 1.7.8 2.5 1 2.7.8 5.2-1 7.5-2.4s5.5-2.4 7.5-.6c2.6 2.4.7 7.4 3.4 9.7 1.7 1.5 4.4 1 6.3 2.2s2.5 3.8 3 6 1.4 4.8 3.6 5.4 4.2-.7 6.4-.7c.5 0 1 .1 1.3-.2a1 1 0 00.1-.3l.1 2.2a1.4 1.4 0 01-.2 1c-.3.4-.8.3-1.3.3-2.2 0-4.3 1.3-6.4.7s-3.2-3.2-3.7-5.5-1-4.8-2.9-6-4.6-.7-6.3-2.1c-2.7-2.3-.8-7.4-3.4-9.8-2-1.8-5.2-.7-7.5.7s-4.8 3.1-7.5 2.4c-.8-.2-1.6-.7-2.5-1-4.1-1.6-9.4 1-12.8-1.8a10 10 0 01-2.6-4.4 28.2 28.2 0 01-1.8-7 11.4 11.4 0 010-2.5 29.8 29.8 0 001.8 6.5z"/></g><path fill="#43529c" d="M99.8 726.6s-42.3-2.6-37.3 27c0 0-1 5.3 3.7 7.7 0 0 .1-2.2 4.4-1.5a19.9 19.9 0 004.6.2 9.6 9.6 0 005.6-2.3s11.9-4.9 16.5-24.3c0 0 3.4-4.2 3.3-5.3l-7.2 3s2.5 5.1.6 9.4c0 0-.3-9.3-1.6-9-.3 0-3.8 1.8-3.8 1.8s4.2 9 1 15.5c0 0 1.2-11-2.3-14.9l-5 3s5 9.2 1.6 16.8c0 0 .8-11.6-2.7-16.1l-4.5 3.5s4.6 9.1 1.8 15.4c0 0-.4-13.5-2.8-14.5 0 0-4 3.5-4.6 5 0 0 3.2 6.6 1.2 10.1 0 0-1.2-9-2.2-9 0 0-4 6-4.3 10 0 0 .1-6 3.4-10.6a12 12 0 00-6 3.2s.5-4.2 7-4.6c0 0 3.2-4.5 4.1-4.8 0 0-6.4-.5-10.3 1.2 0 0 3.4-4 11.5-2.2l4.5-3.7s-8.5-1.1-12 .2c0 0 4-3.5 13.2-1l4.9-3s-7.2-1.5-11.5-1c0 0 4.5-2.3 13 .3l3.4-1.6-6.8-1.2c-1.5-.2-1.6-.6-1.6-.6a18.3 18.3 0 019.9 1.1s7.4-2.8 7.3-3.2z"/><ellipse cx="70.7" cy="763.9" fill="#43529c" opacity=".1" rx="29.9" ry="5.1"/><path fill="#43529c" d="M180.8 648.5s-23.8-1.4-21 15.3a4 4 0 002.2 4.3s0-1.3 2.4-.9a11.7 11.7 0 002.6.2 5.5 5.5 0 003.2-1.3s6.6-2.8 9.3-13.8c0 0 2-2.3 1.8-3l-4 1.8s1.4 2.9.3 5.3c0 0-.1-5.2-.9-5.1l-2 1s2.3 5 .5 8.7c0 0 .7-6.2-1.3-8.4l-2.9 1.7s2.8 5.3 1 9.5c0 0 .4-6.5-1.6-9l-2.5 2s2.6 5 1 8.6c0 0-.2-7.6-1.6-8.2a16 16 0 00-2.6 2.8s1.8 3.8.7 5.7c0 0-.7-5-1.2-5 0 0-2.3 3.3-2.5 5.6a12.2 12.2 0 012-6 6.8 6.8 0 00-3.5 1.8s.3-2.4 4-2.6c0 0 1.8-2.5 2.3-2.7 0 0-3.6-.3-5.8.7 0 0 2-2.3 6.5-1.3l2.5-2s-4.7-.7-6.7 0c0 0 2.3-2 7.4-.5l2.8-1.6a24.7 24.7 0 00-6.5-.6s2.6-1.4 7.3.1l2-.9-3.9-.6c-.9 0-.9-.4-.9-.4a10.3 10.3 0 015.6.6s4.1-1.5 4-1.8z"/><ellipse cx="164.5" cy="669.5" fill="#43529c" opacity=".1" rx="16.9" ry="2.9"/><path fill="#43529c" d="M40.2 663s-28.8-1.7-25.4 18.4a5 5 0 002.6 5.2s0-1.5 3-1a13.1 13.1 0 003 .2 6.5 6.5 0 003.9-1.6s8-3.4 11.2-16.6c0 0 2.4-2.9 2.3-3.6l-5 2s1.7 3.6.4 6.5c0 0-.2-6.3-1.1-6.1l-2.5 1.2s2.8 6 .7 10.5c0 0 .8-7.5-1.6-10l-3.4 2s3.3 6.2 1 11.4c0 0 .6-8-1.8-11l-3 2.4s3 6.2 1.2 10.5c0 0-.3-9.2-2-10 0 0-2.6 2.5-3 3.5 0 0 2.1 4.5.8 6.8 0 0-.9-6-1.5-6.1 0 0-2.7 4-3 6.8a14.8 14.8 0 012.3-7.2 8 8 0 00-4.1 2.1s.4-2.8 4.8-3c0 0 2.2-3.1 2.8-3.3 0 0-4.4-.4-7 .8 0 0 2.3-2.7 7.8-1.5l3-2.5s-5.7-.8-8.1 0c0 0 2.8-2.3 9-.6l3.3-2s-4.9-1-7.8-.6c0 0 3-1.7 8.8.1l2.4-1-4.7-.9c-1 0-1-.4-1-.4a12.4 12.4 0 016.7.8s5-1.9 5-2.2z"/><ellipse cx="20.4" cy="688.4" fill="#43529c" opacity=".1" rx="20.4" ry="3.4"/><ellipse cx="607.7" cy="813.6" fill="#43529c" opacity=".1" rx="29.9" ry="5.1"/><path fill="#a8a8a8" d="M587.6 790.1s17.1-.5 22.2-4.2 26.3-8 27.6-2.1S663 813 643.7 813s-44.7-3-49.9-6-6.2-17-6.2-17z"/><path d="M644 811c-19.2.3-44.7-3-49.8-6-4-2.4-5.5-11-6-14.9h-.6s1.1 13.8 6.2 16.9 30.7 6.3 50 6.1c5.5 0 7.4-2 7.3-5-.7 1.9-2.9 3-7 3z" opacity=".2"/></svg>