<svg xmlns="http://www.w3.org/2000/svg" xmlns:xlink="http://www.w3.org/1999/xlink" viewBox="0 0 1046 852"><defs><linearGradient id="a" x1="847.4" x2="847.4" y1="397.4" y2="188.1" gradientUnits="userSpaceOnUse"><stop offset="0" stop-color="gray" stop-opacity=".3"/><stop offset=".5" stop-color="gray" stop-opacity=".1"/><stop offset="1" stop-color="gray" stop-opacity=".1"/></linearGradient><linearGradient id="b" x1="271.5" x2="271.5" y1="395" y2="173.1" xlink:href="#a"/><linearGradient id="c" x1="847.5" x2="847.5" y1="734.9" y2="461.1" xlink:href="#a"/><linearGradient id="d" x1="211.6" x2="211.6" y1="705.7" y2="443.2" xlink:href="#a"/><linearGradient id="e" x1="570.7" x2="570.7" y1="731.4" y2="470.7" xlink:href="#a"/><linearGradient id="f" x1="610.8" x2="610.8" y1="318" y2="160.3" xlink:href="#a"/><linearGradient id="g" x1="625.4" x2="625.4" y1="870.2" y2="202.1" xlink:href="#a"/></defs><ellipse cx="632.9" cy="833.9" fill="#43529c" opacity=".1" rx="106.9" ry="17.9"/><path fill="#43529c" d="M628 105c-43 37-100 35-150 16s-95-54-144-78A404 404 0 00208 3C146-6 77 4 34 65c-48 66-45 187 7 248 27 32 61 47 91 71s58 65 56 112c-3 44-30 77-59 98-22 16-49 34-52 68-2 32 21 58 42 72 72 47 159 47 230-1 26-17 49-40 76-53 69-35 146 0 220 13 62 11 127 5 187-17 37-13 74-33 99-70 19-27 30-61 41-95q18-53 34-108c6-22 12-44 14-67 3-42-10-84-27-120-41-85-109-144-184-159s-153 14-210 79" opacity=".1"/><g opacity=".3"><path fill="#43529c" d="M501 204v-7H396c-5 0-2 7-2 7h-57v149h250V204z" opacity=".2"/></g><path fill="none" stroke="#535461" stroke-miterlimit="10" stroke-width="2" d="M833 315s32-56 79-72a97 97 0 0050-36 163 163 0 0014-27"/><path fill="#43529c" d="M1006 170c-5 5-31 11-31 11s6-25 12-30a14 14 0 1119 19zM992 215c-8 2-32-7-32-7s19-18 26-19a14 14 0 116 26zM940 264c-7-2-24-22-24-22s26-6 33-3a14 14 0 11-9 25zM892 293c-7-2-27-19-27-19s24-10 32-8a14 14 0 11-5 27zM939 188c0 8 14 30 14 30s13-22 13-30a14 14 0 10-27 0zM884 222c2 7 22 24 22 24s6-25 4-32a14 14 0 10-26 8zM835 262c1 8 17 27 17 27s11-23 10-31a14 14 0 10-27 4z"/><path d="M1006 170c-5 5-31 11-31 11s6-25 12-30a14 14 0 1119 19zM992 215c-8 2-32-7-32-7s19-18 26-19a14 14 0 116 26zM940 264c-7-2-24-22-24-22s26-6 33-3a14 14 0 11-9 25zM892 293c-7-2-27-19-27-19s24-10 32-8a14 14 0 11-5 27zM939 188c0 8 14 30 14 30s13-22 13-30a14 14 0 10-27 0zM884 222c2 7 22 24 22 24s6-25 4-32a14 14 0 10-26 8zM835 262c1 8 17 27 17 27s11-23 10-31a14 14 0 10-27 4z" opacity=".3"/><path fill="none" stroke="#535461" stroke-miterlimit="10" stroke-width="2" d="M835 314s6-64 43-98a97 97 0 0030-53 163 163 0 003-30"/><path fill="#43529c" d="M934 112c-3 7-24 22-24 22s-4-26-1-33a14 14 0 0125 11zM939 159c-6 4-31 5-31 5s10-23 16-28a14 14 0 1115 23zM912 225c-8 0-31-12-31-12s21-15 29-16a14 14 0 112 28zM880 270c-8 2-32-6-32-6s18-19 25-21a14 14 0 017 27zM880 155c3 7 25 21 25 21s3-25 0-32a14 14 0 10-25 11zM844 208c5 6 29 13 29 13s-4-25-9-31a14 14 0 00-20 18zM815 265c4 6 27 18 27 18s0-26-4-32a14 14 0 00-23 14z"/><path fill="none" stroke="#535461" stroke-miterlimit="10" stroke-width="2" d="M153 572s-39-48-36-97a94 94 0 00-16-57 158 158 0 00-18-22"/><path fill="#43529c" d="M84 365c3 7-1 31-1 31s-20-14-23-21a13 13 0 0124-10zM120 394c-1 7-18 26-18 26s-9-24-8-31a13 13 0 1126 5zM146 458c-5 6-29 13-29 13s4-24 9-30a13 13 0 0120 17zM154 511c-4 6-26 18-26 18s0-25 3-31a13 13 0 0123 13zM77 432c7 2 31-2 31-2s-15-20-21-23a13 13 0 00-10 25zM87 493c8 1 30-11 30-11s-20-14-28-15a13 13 0 10-2 26zM106 552c7 2 31-6 31-6s-18-18-25-20a13 13 0 10-6 26z"/><path fill="url(#a)" d="M881 212h-1l2-5-8-7 3-7h-10l2-5h-6l-64 21v3h-41v185h179V212z" transform="translate(-77 -26)"/><path fill="#f6f7f9" d="M682 187h177v183H682z"/><path d="M803 187c-8 12-64 28-64 28v-13h-10a6 6 0 00-3-6c-3-2-3-7-3-9z" opacity=".1"/><path fill="#9d9cb5" d="M786 163l-63 21s-1 9 3 11a6 6 0 013 6h10v13s66-19 65-32l-7-7 3-7h-10l2-5z"/><g opacity=".3"><path fill="#43529c" d="M715 246h111v3H715z" opacity=".2"/></g><g opacity=".3"><path fill="#43529c" d="M715 263h111v3H715z" opacity=".2"/></g><g opacity=".3"><path fill="#43529c" d="M715 279h111v3H715z" opacity=".2"/></g><g opacity=".3"><path fill="#43529c" d="M715 295h111v3H715z" opacity=".2"/></g><g opacity=".3"><path fill="#43529c" d="M715 312h111v3H715z" opacity=".2"/></g><g opacity=".3"><path fill="#43529c" d="M715 328h111v3H715z" opacity=".2"/></g><path fill="url(#b)" d="M283 197h-1l6-18c0-3-6 4-6 2s0-8-3-8-4 3-6 3l-8-1-9 22h-63v198h157V197z" transform="translate(-77 -26)"/><path fill="#f6f7f9" d="M118 172h153v196H118z"/><path d="M206 172l-8 19c-2 4-3 2-5 2h-12a21 21 0 000-3h-8l7-18z" opacity=".1"/><path fill="#9d9cb5" d="M188 151l-15 38s7-1 8 0a19 19 0 010 3h12c2 1 3 2 5-2s13-32 13-35-6 3-6 2 0-8-3-8-4 3-6 3l-8-1z"/><g opacity=".3"><path fill="#43529c" d="M139 224h111v3H139z" opacity=".2"/></g><g opacity=".3"><path fill="#43529c" d="M139 236h111v3H139z" opacity=".2"/></g><g opacity=".3"><path fill="#43529c" d="M139 248h111v3H139z" opacity=".2"/></g><g opacity=".3"><path fill="#43529c" d="M139 259h111v3H139z" opacity=".2"/></g><g opacity=".3"><path fill="#43529c" d="M139 271h111v3H139z" opacity=".2"/></g><g opacity=".3"><path fill="#43529c" d="M139 283h111v3H139z" opacity=".2"/></g><path fill="url(#c)" d="M861 490l7-22c0-3-8 5-8 3s0-10-3-10-6 4-8 4l-10-1-10 26h-78v245h193V490z" transform="translate(-77 -26)"/><path fill="#f6f7f9" d="M676 466h189v242H676z"/><path d="M784 466l-10 24c-2 5-3 2-5 1h-16a25 25 0 000-3c0-2-9 0-9 0l9-22z" opacity=".1"/><path fill="#9d9cb5" d="M762 440l-18 47s9-2 9 0a25 25 0 010 3h16c2 0 4 4 5-1s17-41 17-44-8 4-8 2 0-9-4-9-5 3-7 3l-10-1z"/><g opacity=".3"><path fill="#43529c" d="M715 534h111v8H715z" opacity=".2"/></g><g opacity=".3"><path fill="#43529c" d="M715 585h111v8H715z" opacity=".2"/></g><g opacity=".3"><path fill="#43529c" d="M715 637h111v8H715z" opacity=".2"/></g><path fill="url(#d)" d="M238 473v-30h-42v30h-86v233h203V473h-75z"/><path fill="#f6f7f9" d="M112 474h199v230H112z"/><path d="M197 474h41v31h-41z" opacity=".1"/><path fill="#9d9cb5" d="M197 445h41v60h-41z"/><g opacity=".3"><path fill="#43529c" d="M156 530h111v8H156z" opacity=".2"/></g><g opacity=".3"><path fill="#43529c" d="M156 545h111v8H156z" opacity=".2"/></g><g opacity=".3"><path fill="#43529c" d="M156 561h111v8H156z" opacity=".2"/></g><g opacity=".3"><path fill="#43529c" d="M156 577h111v8H156z" opacity=".2"/></g><g opacity=".3"><path fill="#43529c" d="M237 595h30v24h-30z" opacity=".2"/></g><g opacity=".3"><path fill="#43529c" d="M156 624h30v24h-30z" opacity=".2"/></g><path fill="url(#e)" d="M601 498h-1l6-23-14 7s-10-13-13-11l-12 7-10-5-4 25h-84v180l5 3 12-4-3 9 2 1 4-3 1 7 5 2 7-4-2 7 7 4 19-7-6 16 4 2 9-2-1 7 9 5 7-3v7l6 4 10-7-5 9h113V498z" transform="translate(-77 -26)"/><path fill="#f6f7f9" d="M593 474v230H482l5-9-10 6-6-3 1-7-7 3-9-5 1-7-9 2-4-2 6-16-19 8-7-4 2-8-7 5-4-3-2-7-3 4-3-1 4-10-12 5-5-4V474z"/><g opacity=".3"><path fill="#43529c" d="M438 545h111v8H438z" opacity=".2"/></g><g opacity=".3"><path fill="#43529c" d="M438 569h111v8H438z" opacity=".2"/></g><g opacity=".3"><path fill="#43529c" d="M438 593h111v8H438z" opacity=".2"/></g><g opacity=".3"><path fill="#43529c" d="M438 617h22v8h-22z" opacity=".2"/></g><path d="M523 474c-5 21-13 51-15 50-4 0-9-7-9-7s-11 11-17 6-14-2-14-2l8-47z" opacity=".1"/><path fill="#9d9cb5" d="M480 449l-12 71s8-4 14 2 17-6 17-6 5 7 9 7 20-71 20-71l-13 6s-10-13-13-11l-12 8z"/><path fill="url(#f)" d="M650 167v-7H544c-5 0-2 7-2 7h-58v151h253V167z" transform="translate(-77 -26)"/><path fill="#f6f7f9" d="M409 142h250v149H409z"/><path d="M573 166H473s-1-11 3-13-10-10-10-10a11 11 0 010-1h107v4s13 12 0 20z" opacity=".1"/><path fill="#9d9cb5" d="M468 135h105v10s13 12 0 20H473s-1-11 3-13-10-10-10-10-3-7 2-7z"/><g opacity=".3"><path fill="#43529c" d="M440 189h189v3H440z" opacity=".2"/></g><g opacity=".3"><path fill="#43529c" d="M440 201h113v3H440z" opacity=".2"/></g><g opacity=".3"><path fill="#43529c" d="M440 213h189v3H440z" opacity=".2"/></g><g opacity=".3"><path fill="#43529c" d="M440 224h189v3H440z" opacity=".2"/></g><g opacity=".3"><path fill="#43529c" d="M440 236h189v3H440z" opacity=".2"/></g><path fill="url(#g)" d="M783 856l-3-14s0-8-4-15v-17a52 52 0 014-8c3-5 0-22 0-22s-10-25-7-41-21-70-21-70a69 69 0 012-16 12 12 0 000-3c0-10-8-30-8-30l1-37s5-22-4-51l-6-25v-2l31-5s-10-43-17-51-13-31-13-31-3-30 3-39 6-24 6-24 13-9 15-14 5-13 5-19l-2-12c0-3-3-13-1-18a13 13 0 001-4 65 65 0 00-2-13s-6-5-13-7v-1l-1-3a14 14 0 00-1-1v-5l2-10c4-17-19-20-19-20a12 12 0 00-6-5c-5-2-1 25 1 27 2 1 7 10 9 14l1 1a9 9 0 00-1 1l1 6v1a24 24 0 00-4 6s4 4 3 9 2 12 2 12-3-3-6-2l-11 3-6 2-4 7-16-15-1-2a38 38 0 01-1-6 37 37 0 005-2 11 11 0 005-3l2-7c1-5 4-9 6-13a44 44 0 004-25 16 16 0 00-3-7l-11-8c-3-3-6-7-10-9s-8-2-12-1a67 67 0 00-23 8c-3 1-5 3-8 2-3 0-4-2-6-4a29 29 0 00-2 12v3a3 3 0 010 1 6 6 0 01-2 2 12 12 0 00-1 2 10 10 0 00-2 5 5 5 0 001 3 17 17 0 003 3 31 31 0 0015 32l1 1a40 40 0 012 20s-27 0-34-5-16 14-16 14-9 2-11 0-13-1-13-1-7-6-17-6a50 50 0 00-13-7 14 14 0 00-6 0s-13-11-17-17l-22-28-1-1v-3a12 12 0 01-1 0l-1-1a60 60 0 00-4-9l1-5v-16s-12-28-23-7c0 0-20 13-3 29 0 0 7 3 8 6l4 10 1 1v4c-3 2-5 3-5 5a30 30 0 012 7s24 29 27 42c0 0 63 37 83 40l-3 19-1 15-2 22s-4 27-7 31-3 20-3 20a135 135 0 01-4 22c-3 10-1 23-1 23s-10 24 15 8l27-2v8 47c1 25 9 76 9 76v25a34 34 0 00-1 7 47 47 0 007 25l2 17s4 11 4 18a10 10 0 010 1 12 12 0 000 3c0 8 4 26 4 26s0 18 3 19c2 1-3 11-5 14v-1 1a13 13 0 00-1 4 7 7 0 003 7c5 3 8 6 4 7a49 49 0 00-5 1v-1a3 3 0 00-2 4l1 6 8 13h2a12 12 0 01-1 3 9 9 0 01-3 2 9 9 0 01-4 2 11 11 0 00-8 3c-3 4-4 9 1 13l20 7s34 4 32-3l-3-15s0-7-3-13a16 16 0 00-1-2h1s3-17 6-20l1-2-2-2v1a16 16 0 00-3 0s-1-9 2-12a3 3 0 001-3 14 14 0 000-4l-1 1c-1-8-8-21-8-21s0-8 2-11 0-44 0-44 1-20-2-29 3-19 3-19v-1-3l-2-19v-35l5-13 9 22 9 29s5 6 5 12v1a16 16 0 000 2 17 17 0 003 10s2 14 6 17 4 10 4 10 5 20 7 23 2 11 2 14v16a21 21 0 010 4 2 2 0 000 1v-1a51 51 0 00-2 12c0 7 1 16 6 20 7 9 12 8 12 8s-4 11-8 13a3 3 0 00-1 0v-1l-1 4c0 5 3 13 5 16a9 9 0 004 3 8 8 0 01-1 0 13 13 0 01-1 1 7 7 0 01-2 0 11 11 0 00-8 4c-3 4-5 8 1 13l20 6s34 5 32-3z" transform="translate(-77 -26)"/><path fill="#2d293d" d="M576 843l-19-7c-5-4-4-9-1-12a10 10 0 018-4 9 9 0 003-1 9 9 0 003-3 14 14 0 002-7s21-7 27 0a15 15 0 013 3c3 6 2 14 2 14l3 14c2 8-31 3-31 3zM670 834l-19-7c-6-4-4-9-1-13a10 10 0 017-3 7 7 0 002-1 13 13 0 002-1c5-3 5-10 5-10s21-6 27 0a15 15 0 012 3c3 6 3 14 3 14l3 15c2 8-31 3-31 3z"/><path d="M599 809a15 15 0 013 3l-32 4a14 14 0 002-7s21-7 27 0zM695 802v6c-5 8-29 6-36 2a13 13 0 002-1c5-3 5-10 5-10s21-6 27 0a15 15 0 012 3z" opacity=".1"/><path fill="#575988" d="M699 776a53 53 0 00-4 8v22c-6 8-33 5-37 1s-8-18-4-20 8-13 8-13-4 1-12-7-5-28-3-32 0-20 0-20 0-11-2-14-7-23-7-23 0-7-4-11-6-17-6-17a18 18 0 01-2-11c0-7-5-14-5-14l-9-29-9-22-4 13s-2 29-1 35l3 23s-5 11-3 20 2 28 2 28 2 41 0 44-2 11-2 11 11 24 8 27-3 12-3 12 8 0 4 3-5 20-5 20l-33 4-7-14c-4-10 1-9 5-10s2-3-3-7-2-10-2-10 7-13 5-14-3-20-3-20-6-22-4-28-5-20-5-20l-1-16c-10-17-6-32-6-32v-26s-8-50-9-76v-52-13l116-12 2 17 6 25c8 29 3 51 3 51l-1 37s10 25 8 34a71 71 0 00-2 15s22 55 20 70 8 41 8 41 2 18 0 22z"/><path d="M632 637l36-5s-20 21-36 5zM663 598s1 13-7 17c0 0 14-2 7-17zM660 559s-29 24-40 22 40-22 40-22zM589 649s-22 5-23 14 23-14 23-14zM594 760s-32 6-23 10 24 7 24 7 10 1-1-17z" opacity=".1"/><g opacity=".1"><path d="M565 776a6 6 0 01-3-4s-3 7 2 11l1 1 3-1c5-1 2-4-3-7zM605 774l1-5c-2 2-2 5-2 7a6 6 0 011-2zM601 641a36 36 0 00-3 10 39 39 0 013-7v-3zM673 627a12 12 0 000-3 80 80 0 000 3zM600 736l1-6-2 8a7 7 0 011-2zM606 787l-3 16-33 4-7-14-1-2c-2 1-2 3 0 9l7 13 33-4s2-16 5-20c2-1 1-2-1-2zM564 739s0 18 3 19l1-6c-3-1-3-20-3-20s-6-22-4-28-5-20-5-20l-1-17c-10-16-6-31-6-31v-26s-8-51-9-76v-52-7h-1v65c1 26 9 76 9 76v26s-4 15 6 32l1 17s6 14 5 20 4 28 4 28zM659 800a31 31 0 01-5-13c-3 3 0 14 4 19s31 8 37-1v-5c-7 7-33 4-36 0zM700 769a53 53 0 00-4 8v4l3-5 1-7zM661 774a51 51 0 002-7s-4 1-12-7c-5-7-5-18-4-26-2 5-4 24 3 32 5 6 9 7 11 8zM647 714a142 142 0 010 16 23 23 0 011-2v-20s0-11-2-14-7-24-7-24 0-6-4-10-6-17-6-17a18 18 0 01-2-11c0-7-5-14-5-14l-9-29-9-22-4 13-1 4 4-10 9 21 9 29s5 7 5 14a18 18 0 002 12s3 13 6 17 4 10 4 10 5 20 7 23 2 14 2 14z"/></g><path fill="#ffcdd3" d="M669 222l-2 10v8l-11 1-1-3-9-14c-2-1-6-28-1-27a12 12 0 016 6s22 2 18 19z"/><path d="M667 240l-11 1-1-3c1-1 6-5 12-2z" opacity=".1"/><path fill="#dce6f2" d="M670 245l-15 3v-2l-1-6s6-7 14-2l1 3z"/><path fill="#ffcdd3" d="M432 223l-16 9-1-3-5-10-7-6c-17-15 3-29 3-29 10-21 22 7 22 7s2 15 0 16-1 5-1 5a61 61 0 014 9l1 2z"/><path d="M432 223l-16 9-1-3c2-2 10-8 12-8a19 19 0 004 0l1 2z" opacity=".1"/><path fill="#dce6f2" d="M433 228l-17 9-1-4v-3s10-8 13-8a16 16 0 005 0v3z"/><path fill="#ffcdd3" d="M626 287s-77 9-62 4c10-3 14-9 15-17 0-5-1-12-3-17a77 77 0 00-7-14s59-33 47-3a47 47 0 00-3 14 39 39 0 001 14 42 42 0 0012 19z"/><path d="M616 240a47 47 0 00-3 14c-6 4-12 4-20 4-6 0-12 2-17-1a77 77 0 00-7-14s59-33 47-3z" opacity=".1"/><circle cx="592.1" cy="228.4" r="31.8" fill="#ffcdd3"/><path d="M626 287s-77 9-62 4c10-3 14-9 15-17 3-4 11-7 16-8a23 23 0 0114 0 19 19 0 015 2 42 42 0 0012 19zM670 245l-15 3v-2c4-5 9-6 14-5zM433 228l-17 9-1-4 18-8zM657 481a481 481 0 01-118 8v-13l116-12 2 17z" opacity=".1"/><path fill="#656691" d="M686 474s-98 17-108 14-65 0-65 0c-24 16-14-8-14-8s-2-12 1-23a139 139 0 004-22s-1-16 2-20 7-31 7-31l2-22 1-15 3-19c-20-2-81-40-81-40-3-12-25-42-25-42a31 31 0 00-2-7c-2-4 22-13 22-13l22 28c4 6 17 17 17 17a13 13 0 015 1h1c6 2 12 7 12 7 9-1 16 6 16 6s11-2 13 0 11 0 11 0 9-20 16-14 32 6 32 6c3-5 12-8 17-10a23 23 0 0114 0 18 18 0 016 2l15 16s5-6 4-7 6-3 6-3l10-3c3-1 6 2 6 3 0-1-2-7-1-12s-3-10-3-10c9-23 30-3 30-3s3 12 1 17 2 15 1 18 1 7 1 12-2 15-4 19-15 14-15 14 0 15-6 24-2 39-2 39 5 23 12 31 16 50 16 50z"/><path d="M543 298s-3-9-5-9a62 62 0 01-8-4l2-3s10 2 11 5v11zM490 279c-1 2-25 5-25 5l12-12h1c6 2 12 7 12 7z" opacity=".1"/><circle cx="420.9" cy="241.9" r="2.1" fill="#575988"/><circle cx="423.6" cy="246.2" r="2.1" fill="#575988"/><circle cx="426.3" cy="250.2" r="2.1" fill="#575988"/><circle cx="429.1" cy="254.4" r="2.1" fill="#575988"/><circle cx="681.1" cy="254.2" r="1.7" fill="#575988"/><circle cx="681.4" cy="258.1" r="1.7" fill="#575988"/><circle cx="681.6" cy="262.1" r="1.7" fill="#575988"/><path d="M544 371c-1-1 60 75 106 31 0 0-74 10-106-31zM509 410s36 1 40 12v10a7 7 0 01-7 0c-4-2-25-13-33-7z" opacity=".1"/><path fill="#656691" d="M510 410s34 1 38 11v10a7 7 0 01-7 0c-3-2-24-12-31-7z"/><path d="M529 332s4 10 14 24a94 94 0 0022 21s-36-40-36-45zM517 290s6 26 21 35zM508 293c-1-1-6 20 20 32 0 0-11-4-20-32zM665 275s13 8 16 12c0 0-8-12-16-12z" opacity=".1"/><path fill="#573825" d="M583 257c1 2 1 4 3 4a7 7 0 003 1c10 1 20 1 29-3a11 11 0 004-2c2-2 2-5 3-7 1-5 4-9 6-14a45 45 0 003-24 16 16 0 00-3-7c-2-4-7-5-10-8s-6-8-10-10-8-2-12-1a63 63 0 00-22 8c-3 2-5 3-8 3l-5-4a30 30 0 00-3 14 6 6 0 010 2 6 6 0 01-1 2c-3 3-4 7-2 10l4 3c2 2 1 5 1 8a4 4 0 001 3l4 1h4a7 7 0 013 2c5 6 7 12 8 19z"/><g opacity=".1"><path d="M623 254a11 11 0 01-4 3c-9 4-19 3-29 3a7 7 0 01-3-1l-2-4c-2-7-4-13-9-19a7 7 0 00-3-3l-4 1c-1 1-3 0-4-1a4 4 0 01-1-3c0-3 1-6-1-9l-4-3v-6c-2 3-3 6-1 8l4 4c2 2 1 5 1 8a4 4 0 001 3l4 1 4-1a7 7 0 013 3c5 6 7 12 8 19l3 4a7 7 0 003 1c10 0 20 1 29-3a11 11 0 004-3 8 8 0 001-2zM561 208a5 5 0 001-2 6 6 0 000-2 30 30 0 012-11v-1a30 30 0 00-3 14 8 8 0 010 2z"/></g><path d="M578 276s40 6 43 0M655 260s22 0 27 8" opacity=".1"/></svg>