<svg xmlns="http://www.w3.org/2000/svg" viewBox="0 0 1044 833"><defs><linearGradient id="a" x1="-19.7" x2="-19.7" y1="839.5" y2="151.6" gradientTransform="translate(867)" gradientUnits="userSpaceOnUse"><stop offset="0" stop-color="gray" stop-opacity=".3"/><stop offset=".5" stop-color="gray" stop-opacity=".1"/><stop offset="1" stop-color="gray" stop-opacity=".1"/></linearGradient></defs><ellipse cx="502.7" cy="802.7" fill="#43529c" opacity=".1" rx="430.7" ry="29.9"/><path fill="#43529c" d="M34 95C7 127 0 166 0 205c0 26 3 56 26 76 30 26 86 31 101 64 13 30-17 60-46 81s-63 46-57 77c3 20 22 36 41 49 36 25 76 47 121 58 82 19 171-1 248-31 48-19 103-42 150-23 12 5 23 13 34 19 34 19 75 25 114 31 58 9 119 16 175 0s105-59 96-106c-8-45-59-74-100-104-15-11-30-25-26-41 3-12 16-21 28-29 64-42 110-101 131-165 10-30 14-65-8-90-19-21-50-31-79-39C894 17 838 4 780 1S663 4 611 26c-24 10-46 24-71 34-71 29-154 25-232 20-28-1-58-4-82-17-21-10-33-18-59-19-51-2-104 17-133 51z" opacity=".1"/><path fill="#535461" d="M414 310l-1 3-7 14-75 154-126 311h-19l127-311 87-178 6 3 7 4h1z"/><path fill="#535461" d="M637 792h-15L495 481l-73-150-9-18-1-3h1l9-5 5-2 85 178 125 311z"/><path fill="#535461" d="M406 261h16v531h-16zM412 174a21 21 0 00-20 21v7a21 21 0 1041 0v-7a21 21 0 00-21-21zm16 28a16 16 0 01-31 0v-7a16 16 0 1131 0z"/><path d="M512 481h-17l-73-150v150h-16V327l-75 154h-18l87-178 6 3v-45h16v44l5-2 85 178zM433 195v7a21 21 0 11-41 0v-7h5v7a16 16 0 0031 0v-7z" opacity=".1"/><path fill="#535461" d="M101 197h624v282H101z"/><path fill="#fff" d="M112 206h601v257H112z"/><path fill="#43529c" d="M171 234h28v13h-28zM171 259h28v13h-28zM171 284h28v13h-28zM171 309h28v13h-28zM171 334h28v13h-28zM171 359h28v13h-28zM171 384h28v13h-28zM171 409h28v13h-28zM224 422h28v13h-28zM274 422h28v13h-28zM324 422h28v13h-28zM374 422h28v13h-28zM424 422h28v13h-28zM474 422h28v13h-28zM524 422h28v13h-28zM574 422h28v13h-28zM624 422h28v13h-28z" opacity=".2"/><path fill="#43529c" d="M224 372h28v37h-28zM274 359h28v50h-28zM324 334h28v75h-28zM374 309h28v100h-28zM424 284h28v125h-28z"/><path fill="#43529c" d="M474 274h28v135h-28zM524 262h28v147h-28zM574 259h28v150h-28zM624 247h28v162h-28z" opacity=".2"/><path fill="#535461" d="M621 308l-243 15v5l248-10-5-10z"/><path fill="url(#a)" d="M987 441s13-21 9-54-15-86-15-86 5-30-24-34c0 0-18-3-31-11l-11-11v1a16 16 0 01-1-1l-5-7-2 2a51 51 0 01-5-9 26 26 0 004-2 7 7 0 003-1 7 7 0 001-4 40 40 0 001-11l-1-9 2-10c0-6-3-11-7-16l-6-8-4-8c-4-5-11-9-18-10s-14 0-21 1l-18 3c-5 0-9-2-14 2a14 14 0 00-5 10 5 5 0 000 2 14 14 0 001 2c2 4-1 9-1 14a9 9 0 008 8v1a41 41 0 0034 58l1 1 14 12-1-1a40 40 0 01-4 3c-5 3-11 6-19 7 0 0-14 7-18 31-7 6-22 17-41 20-27 4-60 5-60 5v1h-3l-1 1-1-1c-9-4-28-10-31 7-3 22 19 19 19 19a99 99 0 0112-3l2-1a7 7 0 000 2h3a34 34 0 004 6l68-2s11-2 22-1l-10 73s-12 61-4 67a123 123 0 0114-4 65 65 0 002 11l5 34s2 34 8 55l6 28 5 21 3 36a342 342 0 018 47c3 24 17 63 19 68-5 7-15 19-27 20-18 2-18 12-6 16s39 0 39 0l37-9c-2 7-2 12-1 13 2 2 38 11 39-4v-3a76 76 0 00-3-29l-1-2a17 17 0 001-2l5-55v-4c1-17-5-62-5-62s-8-30-8-43a13 13 0 011-4v-1s-4-27-4-43a33 33 0 011-7 47 47 0 001-9 642 642 0 000-49 9 9 0 00-1-4v-4l1-3h1s33-2 41-11c0 0-8-24-12-44zm-145-76h-1l3-10-2 10zm34-99zm42 520c-2-6-9-31-9-43a12 12 0 011-3 23 23 0 001-7c1-13-4-35-4-35s-11-31-10-55v-2-8-31l-1-32a700 700 0 0018 98l8 45a751 751 0 009 83l-5 25c-1-6-4-27-8-35z" transform="translate(-78 -34)"/><path fill="#4c4c78" d="M808 754s-13 23-30 25-18 12-6 16 38 0 38 0l37-9s-4-37-10-39-29 7-29 7z"/><path fill="#4c4c78" d="M853 754s-9 43-7 44 38 11 39-4v-3a75 75 0 00-3-28l-2-9c1-5-27 0-27 0z"/><path fill="#ffb9b9" d="M841 221s-28 71-23 48c3-15-19-35-34-46l-13-10s54-63 50-36a41 41 0 003 22c6 14 17 22 17 22zM658 322h-7a99 99 0 00-12 4s-21 3-18-20c2-16 21-10 30-6l6 3z"/><path d="M658 322h-7c-2-6 0-19 0-22l6 3z" opacity=".1"/><path fill="#cbcdda" d="M658 301l-5-1s-3 19 0 24h7z"/><path fill="#4c4c78" d="M769 335s-17-10-19 3l-5 34-4 28-6 56 1 9s18-6 22-4 7-23 7-23l7-26 2-56z"/><path d="M769 335s-17-10-19 3l-5 34-4 28-6 56 1 9s18-6 22-4 7-23 7-23l7-26 2-56z" opacity=".1"/><path fill="#4c4c78" d="M760 270s-18 19-44 23-60 6-60 6-8 15 4 30l67-1s15-3 26 0z"/><path d="M760 270s-18 19-44 23-60 6-60 6-8 15 4 30l67-1s15-3 26 0zM821 198c-7 14-18 25-35 25h-2l-13-10s54-63 50-36c-1 8-3 15 0 21z" opacity=".1"/><path fill="#ffb9b9" d="M827 180a41 41 0 11-41-41 41 41 0 0141 41z"/><path fill="#cbcdda" d="M853 431s-92 9-95-3 9-43 9-43l-4-45v-1s11-48 11-52c-1-4 18-44 22-52l1-1h1l4 3 18-4 21-12 2 123z"/><path d="M805 235s-6-2-9 5a65 65 0 01-3 8l-3 14-4 23-3 102 1 18 8-15 2-95v-12a86 86 0 017-29l1-3 7-9z" opacity=".1"/><path fill="#4c4c78" d="M804 234s-7-2-9 4a64 64 0 01-3 8l-3 15-4 23-4 102 2 18 8-15 2-95v-12a86 86 0 016-30l2-2 7-9z"/><path d="M830 208s-21 23-29 25c0 0 4 18 8 21 0 0 23-23 27-25l3-8z" opacity=".1"/><path fill="#cbcdda" d="M830 206s-21 23-29 26c0 0 4 17 8 21 0 0 23-23 27-25l3-9z"/><path d="M798 234l-7 19-13 35v1l-15 51v-1s11-48 11-52a517 517 0 0124-53z" opacity=".1"/><path fill="#4c4c78" d="M797 234l-7 19-13 35v1c-2 7-15 46-16 53-1 8-17 50-17 50l-8 73c-8-6 3-66 3-66l16-118c3-30 19-38 19-38 8 0 14-4 18-6a39 39 0 005-3z"/><path d="M887 705l-5 54c-9 13-28 6-28 6l-6-19c-4-15-5-69-5-69l-7-45c-7-17-8-37-8-37-3-8-11-60-11-60s3 46 1 71 10 57 10 57 7 31 3 41 9 49 9 49c-1 11-35 7-35 7s-16-43-19-69a340 340 0 00-8-46l-3-36-5-21-5-28c-7-20-9-54-9-54l-5-34a107 107 0 016-53c3 2 20 5 28 7a50 50 0 0015 1 323 323 0 0065-12l2-1v4l1 9 2 16s6 87 3 98 2 51 2 51c-3 10 7 48 7 48s7 50 5 65z" opacity=".1"/><path fill="#474463" d="M887 703l-5 54c-9 14-28 6-28 6l-6-19c-4-15-5-68-5-68l-7-45c-7-17-8-38-8-38-3-8-11-59-11-59s3 46 1 71 10 57 10 57 7 31 3 40 9 49 9 49c-1 12-35 7-35 7s-16-42-19-68a340 340 0 00-8-46l-3-36-5-21-5-28c-7-20-9-54-9-54l-5-34a107 107 0 016-53c3 2 20 4 28 6a49 49 0 0015 2 323 323 0 0065-12l2-1v4l1 9 2 16s6 86 3 98 2 51 2 51c-3 9 7 47 7 47s7 51 5 65z"/><path d="M827 180a41 41 0 01-5 21c-6 1-13 0-18-4l-8-11a62 62 0 00-6-5 19 19 0 00-5-4 6 6 0 00-5 0l-5 6a8 8 0 01-4 5 5 5 0 01-6-2c-1-3 0-6-3-8a15 15 0 00-1-1c-3-1-4-5-4-8l-2-5h-5a6 6 0 01-1 0 41 41 0 0179 16z" opacity=".1"/><path fill="#573825" d="M746 127a14 14 0 00-5 10 5 5 0 000 2 13 13 0 001 2c2 4-1 9-1 14a9 9 0 009 8h5l2 4c0 4 0 8 3 9a17 17 0 012 1c3 1 2 5 3 7a5 5 0 006 2 8 8 0 004-4c2-2 2-5 5-6a6 6 0 015 0 19 19 0 015 3 61 61 0 016 6l8 10c6 6 16 6 23 3a7 7 0 003-2 7 7 0 001-3 40 40 0 001-11l-1-9 2-10c0-6-3-11-6-16l-6-8-5-7c-4-6-10-9-17-11s-14 0-21 1c-5 1-11 3-17 3s-10-1-15 2z"/><path d="M797 234l-7 19-13 35v1l15-52a39 39 0 005-3z" opacity=".1"/><path fill="#ffb9b9" d="M874 454s1 23-5 29l-17-32 14-6z"/><path d="M913 462c-7 9-41 11-41 11l-33-52s-7-6-22-30-14-43-13-57 10-55 10-55c1-9 22-66 22-66 2 5 6 8 10 11 13 8 31 12 31 12 28 4 23 33 23 33s0 115-1 129 14 64 14 64z" opacity=".1"/><path fill="#cbcdda" d="M875 458l-1 9-12-4-8-13 6-5 15 13z"/><path d="M874 425l-6 1-58 6a95 95 0 01-28-2l-27-5 2-7c3 2 20 4 28 6a49 49 0 0015 2 323 323 0 0065-12l2 3z" opacity=".1"/><g opacity=".1"><path d="M758 418a5 5 0 01-1 0zM882 638s-10-38-7-47c0 0-6-39-2-51s-3-98-3-98l-2-16-1-9v-4l-2 1h-2l1 2 1 9 1 16s6 86 3 98 2 51 2 51c-3 9 7 47 7 47s7 51 5 65l-4 54c-7 10-19 9-25 7s19 8 28-6l5-54c2-14-5-65-5-65zM831 702c4-9-3-40-3-40s-11-33-10-57l1-37-5-35s3 46 1 70 9 58 9 58 7 31 4 40 8 49 8 49c-1 9-23 8-31 7v1s34 5 35-6c0 0-12-40-9-50z"/></g><path fill="#4c4c78" d="M915 462c-8 9-41 11-41 11l-33-52s-8-6-23-30-14-43-13-57 10-55 10-55c1-9 22-66 22-66 2 5 6 8 11 11 12 8 30 12 30 12 29 4 23 33 23 33s1 115-1 129 15 64 15 64z"/><path d="M843 242l-7 2 4 4-35 86a573 573 0 0132-121c2 5 6 8 11 11zM852 395l36-9 5 14-38 10-3-15z" opacity=".1"/><path d="M872 248s-16 15-10 50 16 73 16 73l-27 74s19 20 28 22l27-59s13-21 10-54-16-85-16-85 0-32-28-21z" opacity=".1"/><path fill="#4c4c78" d="M874 248s-17 15-11 50 17 73 17 73l-27 74s18 20 28 22l27-59s12-21 9-54-16-85-16-85 0-32-27-21z"/><path d="M853 447s22 29 20 37-8 4-8 4l-8-12-8-21s1-9 4-8z" opacity=".1"/><path d="M851 447s21 29 19 37-7 4-7 4l-9-12-7-21s1-9 4-8z" opacity=".1"/><path fill="#474463" d="M852 447s21 29 20 37-8 4-8 4l-8-12-8-21s1-9 4-8z"/></svg>