<svg xmlns="http://www.w3.org/2000/svg" xmlns:xlink="http://www.w3.org/1999/xlink" viewBox="0 0 1085 822.8"><defs><linearGradient id="a" x1="609.8" x2="609.8" y1="674" y2="135.7" gradientUnits="userSpaceOnUse"><stop offset="0" stop-color="gray" stop-opacity=".3"/><stop offset=".5" stop-color="gray" stop-opacity=".1"/><stop offset="1" stop-color="gray" stop-opacity=".1"/></linearGradient><linearGradient id="b" x1="629.9" x2="629.9" y1="815.2" y2="282.8" gradientTransform="translate(-20.86 21.29) rotate(-2.2)" xlink:href="#a"/></defs><path fill="#43529c" d="M511.3 197.4c-54.9 27.6-114.9 39.6-173.4 49S220.3 262.6 162.7 282c-37.1 12.5-76.3 32.7-94.6 64.1-17.6 30.2-11 62.3-1.8 90.4 7 21 16 42.3 35.2 55.2 13.3 9 30.6 13.2 45.1 20.8C197.1 539 205.3 601 197.2 658c-3.8 26.8-10.4 54-10.3 80.2s7.7 52.2 28.5 67.7c20.6 15.4 51.6 18.5 82 16 61.7-5 123.7-30.6 182.8-58.1C611.1 703 736.4 630.5 861.5 558.1c46.3-26.8 92.7-53.7 135.3-85.5 23.7-17.6 47-37.8 58-62 13.9-30.8 3.2-64.3-24.8-78.1-47-23.2-125.6 7.4-166.1-23-22.4-16.6-25.3-47.1-21.7-75.8 7.8-61.5 40.2-129.4 15.5-181.5-17-35.7-61.5-56.6-110.2-51.4-51 5.4-107.5 39-122.7 84.1-15.6 46.6-65 88-113.5 112.5z" opacity=".1"/><ellipse cx="642.8" cy="761.3" fill="#43529c" opacity=".1" rx="100.1" ry="24.7"/><rect width="950.3" height="538.3" x="134.7" y="135.7" fill="url(#a)" rx="12.5" ry="12.5"/><rect width="947.4" height="529" x="136.2" y="143.3" fill="#fff" rx="12.5" ry="12.5"/><rect width="947.4" height="529" x="136.2" y="143.3" fill="#fff" rx="12.5" ry="12.5"/><path fill="#5a5773" d="M1078.8 137.2H141a4.8 4.8 0 00-4.8 4.8v20.4h947.4V142a4.8 4.8 0 00-4.8-4.8z"/><rect width="790" height="304" x="199.6" y="279.5" fill="#43529c" opacity=".1" rx="10.2" ry="10.2"/><rect width="790" height="304" x="272.4" y="298.4" fill="#fff" rx="10.2" ry="10.2" transform="matrix(0.999675, 0.025479, -0.025479, 0.999675, -45.849998, -55.439999)"/><path fill="#f4f4f7" stroke="#5a5773" stroke-miterlimit="10" d="M337 314.3l550.3 14M335.9 357.3l550.4 13.9M334.8 400.2l550.4 14M333.7 443.2l550.4 14" opacity=".2"/><path fill="none" stroke="#5a5773" stroke-dasharray="12" stroke-miterlimit="10" d="M383.8 432.8l-1.4 54.7" opacity=".2"/><path fill="#f4f4f7" stroke="#5a5773" stroke-miterlimit="10" d="M332.6 486.2l550.4 14" opacity=".2"/><path fill="none" stroke="#5a5773" stroke-dasharray="12" stroke-miterlimit="10" d="M444.6 489.1l2.1-81.5" opacity=".2"/><path fill="#43529c" d="M815.2 325.3c-3.1 1.7-79 6.8-82.5 5.7-.3.8-2.3 4.3-2.9 5a7 7 0 01-4.9 2.1h-.3c-3.5 0-3.3-2.4-3.8-5.8-3.1.2-9.2.5-12.2 1.6-8.7 3.3-47.5 8-60.6 14.9-9.9 5.1-70.8 27.5-71.9 26-7.4-11-27.3-8.5-38.6-15.1-15-8.8-40-5.7-53.4 5.1-6.6 5.3-11.5 12.5-16.3 19.4l-5.1 7.2c-9 12-18 18.6-27.9 20a53 53 0 01-11.6 0c-2.6-.1-5.3-.3-7.9-.2-13.2.5-25.2 8-31.6 19.6l-1.3 57.6 432.3 11 .5-174z" opacity=".2"/><path fill="none" stroke="#5a5773" stroke-dasharray="12" stroke-miterlimit="10" d="M511.9 355.6l-3.4 135.1M572.2 407.3l-2.1 84.9M632.2 417.2l-1.9 76.6M690.4 348.8l-3.7 146.4M749.6 343.6l-3.9 153.1M815.2 401.2l-2.5 97.2" opacity=".2"/><path fill="#43529c" d="M730.6 327a7 7 0 00-5-1.9 7 7 0 00-6.8 6 6.8 6.8 0 000 1.1v.8a7 7 0 002.1 4.2 6.9 6.9 0 004.7 2h.3a7 7 0 004.9-2.2 7.2 7.2 0 001.4-2.1 7 7 0 00.5-2 5.5 5.5 0 000-.9 7 7 0 00-2-5zm-.3 7.3a4.5 4.5 0 01-1 1.3 5 5 0 01-8.4-2.6 4.2 4.2 0 01-.1-.8 4.8 4.8 0 010-1.2 5 5 0 014.9-3.9h.2a5 5 0 014.9 4.9v.3a4.7 4.7 0 01-.5 2z"/><circle cx="814.5" cy="327" r="6" fill="#43529c"/><path fill="#43529c" d="M720.8 332.2v.8h-2c-3.1.2-53.2 8-59.8 17-1.3 1.8-108.6 17.7-120 11.1-14.8-8.7-40.5-6-54 4.7a90.3 90.3 0 00-16.3 19.4l-5 7.2c-9 12-18.2 18.6-28 20-3.8.5-7.7.5-11.6 0-2.6-.2-5.3-.3-7.9-.3-14.2.6-26.9 9.2-32.8 22.2l-1.8-.8a39.8 39.8 0 0142.6-23c3.8.4 7.5.4 11.3 0 9.2-1.4 17.9-7.7 26.5-19.3l5-7.2c5-7 10-14.3 16.8-19.7a55 55 0 0156.3-5c11.7 7 116-8.7 117.3-10.5 6.6-9 58-17.6 61.5-17.7h2c-.1.3-.2.7-.1 1.1zM816 327.2c-11.8 4.4-84.5 6-85.2 5.7.3-.6.5-1.2.5-2 .7.3 73-1.5 83.9-5.6l.7 1.9z"/><rect width="20.4" height="9" x="394.6" y="344.1" fill="#43529c" opacity=".5" rx=".9" ry=".9" transform="matrix(0.999675, 0.025479, -0.025479, 0.999675, -48.509998, -48.799999)"/><rect width="20.4" height="9" x="393.5" y="387.1" fill="#43529c" rx=".9" ry=".9" transform="matrix(0.999675, 0.025479, -0.025479, 0.999675, -47.419998, -48.759998)"/><rect width="20.4" height="9" x="392.4" y="430.1" fill="#43529c" opacity=".5" rx=".9" ry=".9" transform="matrix(0.999675, 0.025479, -0.025479, 0.999675, -46.330002, -48.709999)"/><rect width="20.4" height="9" x="391.4" y="473.1" fill="#43529c" opacity=".5" rx=".9" ry=".9" transform="matrix(0.999675, 0.025479, -0.025479, 0.999675, -45.240002, -48.669998)"/><rect width="20.4" height="9" x="390.3" y="516.1" fill="#43529c" opacity=".5" rx=".9" ry=".9" transform="matrix(0.999675, 0.025479, -0.025479, 0.999675, -44.150002, -48.630001)"/><rect width="20.4" height="9" x="428.1" y="535.1" fill="#43529c" opacity=".5" rx=".9" ry=".9" transform="matrix(0.999675, 0.025479, -0.025479, 0.999675, -43.650002, -49.59)"/><rect width="20.4" height="9" x="491.6" y="536.7" fill="#43529c" opacity=".5" rx=".9" ry=".9" transform="matrix(0.999675, 0.025479, -0.025479, 0.999675, -43.59, -51.200001)"/><rect width="20.4" height="9" x="555.5" y="538.3" fill="#43529c" rx=".9" ry=".9" transform="matrix(1, 0.03, -0.03, 1, -43.529999, -52.82)"/><rect width="20.4" height="9" x="617" y="539.9" fill="#43529c" opacity=".5" rx=".9" ry=".9" transform="matrix(0.999675, 0.025479, -0.025479, 0.999675, -43.470001, -54.389999)"/><rect width="20.4" height="9" x="677.2" y="541.4" fill="#43529c" opacity=".5" rx=".9" ry=".9" transform="matrix(0.999675, 0.025479, -0.025479, 0.999675, -43.41, -55.91)"/><rect width="20.4" height="9" x="733.6" y="542.8" fill="#43529c" rx=".9" ry=".9" transform="matrix(0.999675, 0.025479, -0.025479, 0.999675, -43.360001, -57.349998)"/><rect width="20.4" height="9" x="793.1" y="544.3" fill="#43529c" rx=".9" ry=".9" transform="matrix(0.999675, 0.025479, -0.025479, 0.999675, -43.299999, -58.860001)"/><rect width="20.4" height="9" x="859.7" y="546" fill="#43529c" rx="1.4" ry="1.4" transform="matrix(1, 0.03, -0.03, 1, -43.23, -60.549999)"/><rect width="227.2" height="23.9" x="166.1" y="189.1" fill="#5a5773" opacity=".2" rx="3.9" ry="3.9"/><path fill="url(#b)" d="M764.7 795.8c-1.7-6-2.7-11.3-2.7-11.3s0-6.6-3.1-11.5v-1.6l-.6-12.2a41.5 41.5 0 012.9-6.6c2-3.9-.7-17.8-.7-17.8s-9-19.5-7.4-32.2-18.9-55.1-18.9-55.1a54.5 54.5 0 011.3-12.4 10.2 10.2 0 00.1-2.6v-.3a95.8 95.8 0 00-7.7-23.5l-.3-29.6s3.6-17.6-4.2-40.8c-2.7-8-4.4-14.6-5.6-19.6l-.4-1.6 24.6-4.9s-9.4-33.7-15.1-39.5-10.9-24.3-10.9-24.3-3.8-24 .6-31.2S721 398 721 398s10.3-8.1 11.5-11.6 3-11.2 2.9-15.2-1.6-7.6-1.3-9.8-3.4-10-1.8-14a10.6 10.6 0 00.5-3.7v-.1c0-.1 0 0 0 0a52 52 0 00-1.3-10 28.3 28.3 0 00-10.6-5.2l-.3-.9-.7-2.4-1-.6-.1-.8-.2-3.5 1.3-7.8c2.7-13.7-15.4-15-15.4-15a9.4 9.4 0 00-5.3-4.3c-3.7-1.1.2 20.4 2 21.7 1.3 1 5.5 7.6 7.5 10.9l.3.5a9.4 9.4 0 00-.8.9l.9 4.7.1.7a19.7 19.7 0 00-2.7 5s3.5 3.5 3 7.6 1.3 9 1.4 9.3c-.2-.3-2.6-2.7-4.9-2l-8.7 3s-4.8 1-4.3 2-3 5.9-3 5.9l-13.6-11.8-.4-1.1a30.3 30.3 0 01-1.3-5.4 30.6 30.6 0 004-1.5 9 9 0 003.6-2.4c1.2-1.6 1.4-3.8 1.9-5.7.9-3.8 3-7.3 4.4-11a35 35 0 001.8-19.3 12.8 12.8 0 00-2.2-5.6c-2.2-2.8-6.1-3.9-9-6s-4.8-5.8-8.2-7.4c-3-1.5-6.6-1.2-9.9-.5A53.1 53.1 0 00643 293c-1.9 1.2-3.9 2.6-6 2.3-2-.3-3.4-1.7-4.7-3.1l.1-.2-.2-.2a23 23 0 00-1.6 9.8l.1 1.6v.5a3.4 3.4 0 010 .5 2.7 2.7 0 010 .7 5 5 0 01-1.1 1.8 10.4 10.4 0 00-1 1.5l.1-.6a7.7 7.7 0 00-1.2 4.2 4 4 0 001.1 2.9 14.2 14.2 0 002.2 1.6 24.1 24.1 0 00-.2 4.4 25.1 25.1 0 0013 21l.5 1c1.9 4.4 3.3 9.4 3 14.2l-.2 1-.4.5s-21.5 1-26.7-3.3-12.3 11.6-12.3 11.6-7.7 1.8-9.3.4-10.5.2-10.5.2a19.4 19.4 0 00-13.7-4.4 39.6 39.6 0 00-10-5.1h-.2a11 11 0 00-5-.5s-10.8-8.3-14-12.9-18.7-21.4-18.7-21.4l-.1-.9-.3-2.5a10.2 10.2 0 01-1.3.1l-.3-.8a48.2 48.2 0 00-3.4-7s-.1-3.2.8-4-.9-12.5-.9-12.5-10.4-22-18.2-5c0 0-15.7 11.4-1.7 23.4 0 0 5.5 2.4 6.3 4.4.6 1.4 2.5 5 3.9 7.5l.6 1-.2.2.3 2.1.1.8c-2.5 1.6-4.2 3-3.7 4.1a24 24 0 011.8 5.7s19.6 22.7 22.4 32.6c0 0 51.3 28 67.8 29.4l-2.2 15s-.6 9-.2 12.2-1.3 17.7-1.3 17.7-2 21.4-4.4 24.5-1.4 15.8-1.4 15.8A107.2 107.2 0 01588 505c-2 8.1 0 18 0 18s-7.6 19.6 12 5.8c0 0 9.7-1 21-1.8v1.1l.2 4.7c.2 11 .7 26.1 1.7 37.6 1.6 20.2 9.3 60 9.3 60l.8 20a27.3 27.3 0 00-.3 5.8 37.4 37.4 0 006.1 20l2.1 13.3s4 8.7 4.2 14a7.3 7.3 0 010 1.3 9.2 9.2 0 00-.2 2c0 6.2 4.3 20.6 4.3 20.6s.8 14.7 3 15.4c1.9.7-2.2 8.6-3.4 10.9l-.1-.4-.3.4a10.3 10.3 0 00-.5 3.8 5.3 5.3 0 002.6 5c4.3 2.4 6.6 4.5 3.1 5.5a38.4 38.4 0 00-3.8 1l-.2-.5a2.3 2.3 0 00-1.3 2.5c0 1 .4 2.6 1.5 5a53 53 0 006.4 10.6l1.7-.3a8.4 8.4 0 01-1 1.9 7 7 0 01-2.3 2.3 7.7 7.7 0 01-3 1.1 8.5 8.5 0 00-6.2 3.3c-2 2.9-3.3 6.8 1.2 10l16 4.9s27.1 2.5 25.5-3.6-2.8-11.3-2.8-11.3a24.1 24.1 0 00-2.6-10.6 12.2 12.2 0 00-1-1.6l1-.1s1.4-13.5 4-16.2c.5-.6.7-1 .5-1.4.2-.7-.5-1.1-1.4-1.4l-.1.6a12.7 12.7 0 00-2.6-.2s-1.1-7 1.6-9.7a2.7 2.7 0 00.5-2 11.4 11.4 0 00-.4-3l-.1.3c-1.7-6.4-7-16.3-7-16.3s-.4-6.4 1.2-9-1.5-34.7-1.5-34.7 0-15.6-2.2-22.8 1.7-15.8 1.7-15.8v-.5l-.3-2.5v.1c-.6-4-1.8-11.5-2.5-14.9-1-4.9-.9-28.3-.9-28.3l3.6-10.2 7.7 17 8.4 22.7s3.9 4.7 4.1 9.6v2.3a13.7 13.7 0 002.6 8.1s2.4 10.8 5.6 13.4 3.4 8 3.4 8 4.3 15.7 6.2 18.4c1.6 2.2 2 8.6 2 10.6v.6s.8 5.6 1 10.3V717.3a16.6 16.6 0 01-.4 3.8v-.5a40.4 40.4 0 00-.8 9.8c.1 5.7 1.2 12.4 4.8 16.2 6.2 6.6 10 5.6 10 5.6s-2.6 8.6-6 10.4a1.8 1.8 0 00-.4.3l-.1-.5a4.1 4.1 0 00-1 3.2c0 3.8 2.5 9.7 4.9 12.5a7 7 0 003 1.6 5 5 0 01-.5.3 10.6 10.6 0 01-1.2.7 5.8 5.8 0 01-1.8.5 8.4 8.4 0 00-6.1 3.3c-2.1 2.9-3.3 6.8 1.1 10l16 4.8s27.2 2.5 25.5-3.5z" transform="matrix(1, 0, 0, 1, -57.5, -38.619999)"/><path fill="#2d293d" d="M604.2 771.2l-15.4-4.8c-4.3-3.3-3.1-7.2-1.1-10a8.1 8.1 0 015.9-3.4 7.1 7.1 0 002.8-1.1 6.8 6.8 0 002.4-2.3 11.3 11.3 0 001.5-6s16.5-5.5 21.3-.8a12.3 12.3 0 012.1 3 24.8 24.8 0 012.6 10.6s1 5.3 2.6 11.3-24.7 3.5-24.7 3.5zM678.5 760.8l-15.4-4.8c-4.4-3.3-3.2-7.2-1.2-10.1a8 8 0 016-3.3 5.4 5.4 0 001.7-.5 9.4 9.4 0 001.1-.6c4.2-2.5 3.8-8.3 3.8-8.3s16.6-5.5 21.3-.8a12.2 12.2 0 011.7 2.1c3 4.9 3 11.5 3 11.5s1 5.3 2.7 11.3-24.7 3.5-24.7 3.5z"/><path d="M621.6 742.8a12.3 12.3 0 012.1 2.9l-25 3.9a11.3 11.3 0 001.6-6s16.5-5.5 21.3-.8zM697.5 734.5l.2 4.7c-3.7 6.6-22.6 6-28.2 2.9a9.4 9.4 0 001.2-.6c4.2-2.5 3.8-8.3 3.8-8.3s16.5-5.5 21.3-.8a12.2 12.2 0 011.7 2.1z" opacity=".1"/><path fill="#575988" d="M699.7 714.2a41.8 41.8 0 00-2.7 6.5l.6 16.8c-4 7.2-26.2 5.7-29.3 2s-6.7-13.6-3.4-15.4 5.8-10.5 5.8-10.5-3.6 1-9.6-5.6-5-21.7-4-25.4-.6-15.8-.6-15.8-.2-8.5-2-11.2-6-18.3-6-18.3-.2-5.3-3.3-8-5.4-13.4-5.4-13.4a14 14 0 01-2.4-9.1c.4-5.4-4.1-11-4.1-11l-8.1-22.7-7.5-17-3.5 10.2s-.1 23.5 1 28.3 2.7 17.8 2.7 17.8-3.9 8.7-1.7 15.9 2.2 22.7 2.2 22.7 3.1 32 1.5 34.7-1.1 9-1.1 9 9.4 18.4 6.8 21-1.6 9.7-1.6 9.7 6-.2 3.5 2.4-3.9 16.2-3.9 16.2l-25.6 4s-2.5-3-6.2-10.7.4-7 3.8-8 1.1-3-3-5.4-2-8.2-2-8.2 5.8-10.7 3.6-11.5-3-15.4-3-15.4-4.9-17.3-4-22-4-15.9-4-15.9l-2-13.3c-8.2-13-5.7-25.2-5.7-25.2l-.8-20.7s-7.5-39.8-9.1-60a855.5 855.5 0 01-2-52l91.6-13s0 4.2 2.2 13.5c1.1 5 2.8 11.5 5.5 19.6 7.5 23.2 4 40.8 4 40.8l.4 29.6s8.8 19.5 7.4 26.4a56.8 56.8 0 00-1.2 12.4s19.8 42.5 18.3 55.2 7.2 32.1 7.2 32.1 2.7 14 .7 17.9z"/><path d="M642.8 605.3l27.9-4.8s-15.2 16.8-27.9 4.8zM665.6 573.3s1.3 9.8-4.6 13.8c0 0 10.8-2.1 4.6-13.8zM662.7 541.8s-22.7 20.2-31.3 19 31.3-19 31.3-19zM608.5 615.7s-17.6 4.7-17.9 11.9 17.9-12 17.9-12zM615.8 704.3s-25 5.7-17.7 8.6 19 5 19 5 8.2.1-1.3-13.6z" opacity=".1"/><g opacity=".1"><path d="M593.2 718.1a5 5 0 01-2.4-3.5l-.2.5s-2.2 5.8 2 8.2l1.3.8 2.3-.5c3.4-1 1.2-3-3-5.5zM625.5 715.2c.7-.7.6-2.3 0-4.4-1 1.7-1.2 4.3-1.1 6.2a4.9 4.9 0 011.1-1.8zM617.6 609.4a29 29 0 00-1.4 7.9 31.1 31.1 0 011.7-5.5l-.3-2.4zM674.7 596a10 10 0 00.1-2.3 58.2 58.2 0 00-.1 2.3zM620 685.1c.2-.5.4-2.3.4-4.7a16.1 16.1 0 00-1 6 5.7 5.7 0 01.5-1.3zM626.7 725c-1.5 5-2.4 13.3-2.4 13.3l-25.6 4s-2.5-3-6.2-10.7l-.8-1.8c-1.5.7-2 2.4.1 7a53.9 53.9 0 006.2 10.6l25.7-4s1.4-13.5 3.8-16.1c1.2-1.3.4-2-.8-2.2zM591.2 688.1s.8 14.7 3 15.5c1-2.5 1.6-4.8.6-5.1-2.1-.8-3-15.5-3-15.5s-4.8-17.3-4-22-4-15.8-4-15.8l-2-13.4c-8-12.9-5.6-25.2-5.6-25.2l-.8-20.6s-7.5-39.8-9.1-60a855 855 0 01-1.8-41.7l-.1-5.2h-.8l.2 10.4c.3 11 .8 28.7 1.8 41.6 1.7 20.2 9.2 60 9.2 60l.7 20.7s-2.5 12.2 5.7 25.1l2 13.4s4.9 11.1 4 15.8 4 22 4 22zM669 733.8a24.7 24.7 0 01-4.6-10c-2.5 2.5.9 11.6 3.8 15.1 3.2 3.7 25.4 5.2 29.4-2l-.2-4c-5.5 6-25.5 4.4-28.5.9zM700.3 708.5a41.8 41.8 0 00-2.7 6.5l.1 3 2-4.4a13 13 0 00.7-5.3v.2zM669.4 713a42 42 0 002-5.1s-3.7 1-9.7-5.6c-4.4-4.8-5-14.2-4.6-20.3-1 3.7-2 18.8 4 25.4 3.9 4.3 6.8 5.4 8.3 5.6zM656.5 666.2a116.4 116.4 0 011 12.6 16.4 16.4 0 01.3-2c.9-3.6-.6-15.7-.6-15.7s-.2-8.5-2-11.2-6-18.4-6-18.4-.2-5.3-3.3-8-5.4-13.4-5.4-13.4a14 14 0 01-2.5-9c.4-5.4-4-11-4-11l-8.2-22.7-7.4-17-3.5 10.2v3.2l2.8-8.2 7.5 17 8.1 22.7s4.5 5.6 4 11a14 14 0 002.5 9s2.3 10.8 5.4 13.4 3.3 8 3.3 8 4.2 15.7 6 18.4 2 11.1 2 11.1z"/></g><path fill="#ffcdd3" d="M659.3 273.8l-1.3 7.9.2 3.4.2 2.6-8.8 1.2-1.1-1.8c-2-3.2-6-9.9-7.3-10.9-1.7-1.3-5.5-22.8-2-21.6a9.3 9.3 0 015.2 4.2s17.5 1.4 14.9 15z"/><path d="M658.4 287.7l-8.8 1.2-1.1-1.8a7.8 7.8 0 019.7-2z" opacity=".1"/><path fill="#dce6f2" d="M660.8 291.8l-11.6 3.1-.3-1.7-.9-4.7s4.4-6.3 11.3-2l.7 2.4z"/><path fill="#ffcdd3" d="M470.4 282L458 289l-1.2-2.3c-1.3-2.4-3.2-6.1-3.7-7.4-.9-2-6.2-4.5-6.2-4.5-13.6-12 1.6-23.4 1.6-23.4 7.6-16.9 17.7 5 17.7 5s1.7 11.7.8 12.5-.7 4-.7 4a46.9 46.9 0 013.3 7l.7 2z"/><path d="M470.4 282L458 289l-1.2-2.3c1.7-1.5 7.8-6.8 9.8-6.7a15.9 15.9 0 003 0l.7 1.8z" opacity=".1"/><path fill="#dce6f2" d="M471.8 285.7L458 293l-.4-3-.3-2s7.9-7.3 10.3-7.2a12.9 12.9 0 003.7-.1l.2 2.5z"/><path fill="#ffcdd3" d="M627.2 326.8s-61 9.2-49.7 5c7.9-2.8 10.9-8 11.3-13.7.4-4.7-1-9.7-2.8-14a61 61 0 00-6-11s46-27.5 37.5-3.7a37.3 37.3 0 00-2.2 11.2 31.1 31.1 0 001.6 11.2 33.5 33.5 0 0010.3 15z"/><path d="M617.5 289.4a37.3 37.3 0 00-2.2 11.2c-4.3 3.9-9.1 3.8-15.4 4-4.7.2-10 1.6-13.9-.6a61 61 0 00-5.9-10.8s45.8-27.6 37.4-3.8z" opacity=".1"/><circle cx="598.2" cy="281" r="25.4" fill="#ffcdd3"/><path d="M627.2 326.8s-61 9.2-49.7 5c7.9-2.8 10.9-8 11.3-13.7 3-3.4 9-6 12.9-7.4a18.4 18.4 0 0111-.6 15.3 15.3 0 014.2 1.7 33.5 33.5 0 0010.3 15zM660.8 291.8l-11.6 3.1-.3-1.7a10.4 10.4 0 0111-4.3zM471.8 285.7L458 293l-.4-3c5-3.1 13.2-6.5 14-6.8zM657.4 480.2c-23.6 4.7-57.2 10.9-62.6 9.4-4.5-1.1-18.7-.4-31 .5l-.2-10.3 91.6-13.2s0 4.3 2.2 13.6z" opacity=".1"/><path fill="#656691" d="M680.9 473.8s-77.7 16.4-86.2 14.1-51.4 2.2-51.4 2.2c-18.9 13.8-11.5-5.7-11.5-5.7s-2.1-10 0-18.1a111 111 0 002.4-18.2s-.9-12.8 1.3-15.9 4.2-24.4 4.2-24.4 1.6-14.6 1.2-17.8.2-12.2.2-12.2l2.2-15c-16-1.5-65.7-29.4-65.7-29.4-2.8-10-21.8-32.7-21.8-32.7a24.2 24.2 0 00-1.7-5.6c-1.4-3.4 17.5-11 17.5-11s15 17 18.1 21.5 13.7 13 13.7 13a10.5 10.5 0 014.8.4 1.4 1.4 0 01.2 0 38.4 38.4 0 019.8 5.1c7.6-.7 13.1 4.4 13.1 4.4s8.7-1.6 10.3-.1 8.9-.4 8.9-.4 6.8-16 12-11.6 25.8 3.3 25.8 3.3c2.6-3.7 9.2-6.6 13.4-8.2a18.4 18.4 0 0111-.6 14.4 14.4 0 014.6 2l13 11.9s3.5-4.8 3-5.9 4.2-2 4.2-2l8.4-3c2.3-.7 4.6 1.8 4.8 2 0-.3-1.9-5.4-1.4-9.3s-2.9-7.6-2.9-7.6c6.8-18.6 24.2-4 24.2-4s2.3 10 .7 14 2.2 11.8 1.9 14 1 5.6 1.2 9.7-1.7 11.7-2.9 15.2-11 11.5-11 11.5-.2 12.1-4.4 19.3-.5 31.2-.5 31.2 5 18.6 10.5 24.3 14.8 39.6 14.8 39.6z"/><path d="M561.5 338s-2.6-7-4.7-7.5a50.7 50.7 0 01-6.3-2.5l1.3-2.7s8 2 9.4 4.2.3 8.5.3 8.5zM518.2 324.1c-.4 2.2-19.3 4.8-19.3 4.8l9.2-10 .3.1a38.4 38.4 0 019.8 5.1z" opacity=".1"/><circle cx="462.2" cy="297" r="1.7" fill="#575988"/><circle cx="464.5" cy="300.3" r="1.7" fill="#575988"/><circle cx="466.8" cy="303.4" r="1.7" fill="#575988"/><circle cx="469.1" cy="306.7" r="1.7" fill="#575988"/><circle cx="669.8" cy="298.8" r="1.4" fill="#575988"/><circle cx="670.2" cy="301.9" r="1.4" fill="#575988"/><circle cx="670.5" cy="305.1" r="1.4" fill="#575988"/><path d="M563.9 395.7c-.2-.2 50.1 58.6 86 22 0 0-58.5 10.3-86-22zM537.5 428.3s28.8-.3 32 7.8l.4 8.6a5.5 5.5 0 01-5.3.2c-3-1.4-20.7-9.6-26.7-5.1z" opacity=".1"/><path fill="#656691" d="M538 428.3s27.5-.3 30.7 7.4l.3 8.2a5.3 5.3 0 01-5 .2c-2.9-1.3-19.8-9.1-25.5-4.8z"/><path d="M550.8 365.4a92.6 92.6 0 0011.9 18.7 74.8 74.8 0 0018 16.1s-29.3-31-30-34.8zM540.1 332.3s5.6 20.5 18.2 27zM532.9 334.7c-.2-.4-3.7 16.5 16.9 25 0 0-8.7-2.6-17-25zM657.7 316c-.3 0 10.2 6.2 13.1 9 0 0-7-9.6-13-9z" opacity=".1"/><path fill="#573825" d="M592.2 304.2c.4 1.3 1 2.7 2.1 3.3a5.2 5.2 0 002.4.5c7.8.2 15.8.2 22.8-3a8.6 8.6 0 003.4-2.5c1.3-1.6 1.4-3.7 1.9-5.6.8-3.9 2.8-7.3 4.2-11a36.1 36.1 0 001.8-19.4 13 13 0 00-2.2-5.6c-2.1-2.8-6-3.9-8.7-6.1s-4.7-5.7-8-7.3c-2.8-1.5-6.3-1.2-9.5-.5a50.2 50.2 0 00-17.6 7.4c-1.8 1.2-3.8 2.6-5.9 2.2-1.9-.2-3.3-1.7-4.5-3.2a23.6 23.6 0 00-1.5 11.2 5 5 0 010 1.6 5 5 0 01-1 1.8c-1.9 2.3-3 5.9-1 8 .9 1 2.1 1.4 3 2.4 1.5 1.7 1.1 4.3 1.2 6.6a3.4 3.4 0 00.6 2.2 3.3 3.3 0 003.2.6 8.5 8.5 0 013.3-.4 5.5 5.5 0 013 2.1c3.7 4.4 5.3 9.3 7 14.7z"/><g opacity=".1"><path d="M623.7 300.5a8.6 8.6 0 01-3.4 2.5c-7 3.2-15 3.2-22.8 3a5.3 5.3 0 01-2.4-.5c-1.2-.6-1.7-2-2.1-3.3a40 40 0 00-7-14.8 5.5 5.5 0 00-3-2 8.6 8.6 0 00-3.3.4 3.3 3.3 0 01-3.2-.7 3.5 3.5 0 01-.7-2.2c0-2.3.4-4.9-1.1-6.6-.9-1-2.1-1.4-3-2.4a5 5 0 01-.7-5c-1.3 2.2-1.7 5-.1 6.8.9 1 2.1 1.4 3 2.4 1.5 1.7 1.1 4.3 1.2 6.5a3.4 3.4 0 00.6 2.3 3.3 3.3 0 003.2.6 8.7 8.7 0 013.3-.5 5.5 5.5 0 013 2.2c3.7 4.4 5.3 9.3 7 14.7.4 1.3.9 2.7 2.1 3.4a5.3 5.3 0 002.4.4c7.7.2 15.8.2 22.8-3a8.7 8.7 0 003.4-2.4 7 7 0 001-2.1l-.2.3zM573 265.5a3.6 3.6 0 00.7-1.3 4.6 4.6 0 000-1.7 23.5 23.5 0 01.8-9.2l-.1-.2a23.7 23.7 0 00-1.5 11.1 6.5 6.5 0 010 1.3z"/></g><path d="M588.3 319.7s31.8 3 34.5-1.9M649.3 304.3s17.6-.7 21.7 5.8" opacity=".1"/></svg>