<svg xmlns="http://www.w3.org/2000/svg" width="888" height="710.8" data-name="Layer 1" viewBox="0 0 888 711"><path fill="#ccc" d="M445 605a260 260 0 11184-76 258 258 0 01-184 76zm0-518a258 258 0 101 516 258 258 0 00-1-516z"/><path fill="#2f2e41" d="M541 382v262H346V382z"/><path fill="#3f3d56" d="M313 374h262v104H313zM313 490h262v104H313zM313 606h262v104H313z"/><path fill="#43529c" d="M313 418h262v16H313zM313 534h262v16H313zM313 650h262v16H313z"/><circle cx="524" cy="388.8" r="6" fill="#43529c"/><circle cx="545" cy="388.8" r="6" fill="#43529c"/><circle cx="566" cy="388.8" r="6" fill="#43529c"/><circle cx="524" cy="502.8" r="6" fill="#43529c"/><circle cx="545" cy="502.8" r="6" fill="#43529c"/><circle cx="566" cy="502.8" r="6" fill="#43529c"/><circle cx="524" cy="616.8" r="6" fill="#43529c"/><circle cx="545" cy="616.8" r="6" fill="#43529c"/><circle cx="566" cy="616.8" r="6" fill="#43529c"/><path fill="#e6e6e6" d="M242 271v186a15 15 0 01-15 15h-72a15 15 0 01-15-15V271a15 15 0 0115-15h9a7 7 0 006 10h41a7 7 0 007-10h9a15 15 0 0115 15z"/><path fill="#fff" d="M145 292h92v128h-92z"/><path fill="#e6e6e6" d="M171 380h37v2h-37z"/><path fill="#43529c" d="M171 388h57v2h-57z"/><path fill="#e6e6e6" d="M171 395h45v2h-45zM171 402h26v2h-26zM171 409h39v2h-39zM155 379h4v4h-4z"/><path fill="#43529c" d="M155 387h4v4h-4z"/><path fill="#e6e6e6" d="M155 394h4v4h-4zM155 401h4v4h-4zM155 408h4v4h-4zM173 308h37v37h-37zM321 0h246v158H321z"/><path fill="#fff" d="M340 44h204v77H340z"/><path fill="#e6e6e6" d="M377 58h49v3h-49z"/><path fill="#43529c" d="M377 68h76v3h-76z"/><path fill="#e6e6e6" d="M377 78h59v3h-59zM377 87h35v3h-35zM377 97h52v3h-52zM355 57h6v6h-6z"/><path fill="#43529c" d="M355 66h6v6h-6z"/><path fill="#e6e6e6" d="M355 76h6v6h-6zM355 86h6v6h-6zM355 95h6v6h-6zM483 54h50v50h-50z"/><path fill="#43529c" d="M321 0h246v10H321z"/><circle cx="328.8" cy="5.3" r="2.1" fill="#fff"/><circle cx="336.1" cy="5.3" r="2.1" fill="#fff"/><circle cx="343.5" cy="5.3" r="2.1" fill="#fff"/><path fill="#e6e6e6" d="M672 295h60v31h-60zM672 406h60v31h-60z"/><circle cx="701.6" cy="365.8" r="50" fill="#e6e6e6"/><circle cx="701.6" cy="365.8" r="39" fill="#fff"/><path fill="#e2e2e2" d="M689 355h30v2h-30z"/><path fill="#43529c" d="M689 362h47v2h-47z"/><path fill="#e2e2e2" d="M689 367h37v2h-37zM689 373h22v2h-22zM689 379h32v2h-32zM675 355h4v4h-4z"/><path fill="#43529c" d="M675 361h4v4h-4z"/><path fill="#e2e2e2" d="M675 367h4v4h-4zM675 373h4v4h-4zM675 379h4v4h-4z"/></svg>
