<svg xmlns="http://www.w3.org/2000/svg" viewBox="0 0 1126.2 855"><path fill="#f2f2f2" d="M544.9 756C302.5 737.4 13.4 549.6 28 356.2S322.8-17.1 565.2 1.3s382 379.9 367.2 573.3S787.3 774.4 545 755.9z"/><ellipse cx="565.2" cy="756" fill="#3f3d56" rx="506" ry="31"/><ellipse cx="565.2" cy="755.5" opacity=".1" rx="431" ry="20.5"/><ellipse cx="212.2" cy="836.5" fill="#3f3d56" rx="212.2" ry="18.5"/><ellipse cx="212.2" cy="836.2" opacity=".1" rx="180.7" ry="12.2"/><path fill="#fff" stroke="gray" d="M196.2 162h752v590h-752z"/><path fill="#f2f2f2" d="M563.6 242.6H378.1a2.3 2.3 0 110-4.5h185.5a2.3 2.3 0 010 4.5zM766.7 267.4H475a2.3 2.3 0 010-4.5h291.8a2.3 2.3 0 110 4.5zM564.5 292.2H379a2.3 2.3 0 110-4.5h185.5a2.3 2.3 0 110 4.5zM766.7 292.6H581.2a2.3 2.3 0 010-4.5h185.5a2.3 2.3 0 110 4.5zM565 317H379.5a2.3 2.3 0 010-4.6H565a2.3 2.3 0 110 4.5zM565.4 341.7H380a2.3 2.3 0 010-4.5h185.5a2.3 2.3 0 110 4.5zM649.6 243h-53a2.3 2.3 0 010-4.4h53a2.3 2.3 0 110 4.5zM649.6 317h-53a2.3 2.3 0 010-4.6h53a2.3 2.3 0 110 4.5zM649.6 341.2h-53a2.3 2.3 0 110-4.5h53a2.3 2.3 0 110 4.5zM738.8 341.2h-53.1a2.3 2.3 0 010-4.5h53.1a2.3 2.3 0 110 4.5zM430.8 267.4h-53.1a2.3 2.3 0 010-4.5h53.1a2.3 2.3 0 010 4.5zM563.9 607.4H378.3a2.3 2.3 0 010-4.5H564a2.3 2.3 0 010 4.5zM563 656.9H377.4a2.3 2.3 0 110-4.5H563a2.3 2.3 0 010 4.5zM563.4 681.7H378a2.3 2.3 0 110-4.5h185.5a2.3 2.3 0 110 4.5zM642.7 657.3h-53.2a2.3 2.3 0 010-4.5h53.2a2.3 2.3 0 010 4.5zM642.7 681.7h-53.2a2.3 2.3 0 010-4.5h53.2a2.3 2.3 0 110 4.5zM731.8 657.3h-53.1a2.3 2.3 0 110-4.5h53.1a2.3 2.3 0 010 4.5zM767 632.1H475.1a2.3 2.3 0 010-4.5h291.7a2.3 2.3 0 010 4.5zM431 632.1H378a2.3 2.3 0 010-4.5H431a2.3 2.3 0 010 4.5zM767 706.9H475.1a2.3 2.3 0 110-4.5h291.7a2.3 2.3 0 010 4.5zM431 706.9H378a2.3 2.3 0 110-4.5H431a2.3 2.3 0 110 4.5z"/><path fill="#43529c" d="M519.1 401.1L447 472.3l72.1 71.1 16.2-16.2-54.5-54.5 54.9-54.9-16.6-16.7zM625.3 401.1l72.1 71.2-72.1 71.1-16.2-16.2 54.5-54.5-54.9-54.9 16.6-16.7z"/><circle cx="216.2" cy="177" r="9" fill="#43529c"/><circle cx="240.2" cy="177" r="9" fill="#43529c"/><circle cx="264.2" cy="177" r="9" fill="#43529c"/><path d="M196.2 192h752v3h-752z" opacity=".1"/><path fill="#f2f2f2" d="M1126.2 607.5c0 63.7-38 86-84.7 86s-84.7-22.3-84.7-86 84.7-145 84.7-145 84.7 81.2 84.7 145z"/><path fill="#3f3d56" d="M1038.4 683.7l.9-53.3 36.1-66.1-36 57.7.4-24 24.9-47.8-24.8 41.4.7-43.1 26.7-38-26.6 31.2.5-79.1-2.8 104.7.3-4.3-27.1-41.4 26.6 49.7-2.5 48.2-.1-1.3-31.2-43.6 31.1 48.1-.3 6.1v.6l-6.4 122.3h8.5l1.1-63.2 31-48-31 43.2z"/><path fill="#2f2e41" d="M122.6 751a43.1 43.1 0 01-8.2 3.6c-5 1.4-10.5.9-15.6 2-2 .5-4.4 1.6-5 3.6-.5 1.5 0 3.1.5 4.6 5.7 16.6 9 34.3 18.1 49.3a74.6 74.6 0 0014 17c2 1.9 4.4 3.7 7.2 4a7.2 7.2 0 007.3-10.2c-.8-1.8-2.3-3.2-3.3-5a18.8 18.8 0 01-1.8-6.9c-.9-7.1-1.7-14.5.7-21.3 1.7-4.5 4.7-8.3 7.2-12.4s4.7-8.8 4.1-13.6c-.4-3.2-2-6.2-3.7-9-1.6-2.8-5-10.4-8.3-11.4-3.5-1-10.1 4.2-13.2 5.8zM215 808.5a14 14 0 01-.6 4.7c-1 2.8-3.7 4.8-5 7.4-2 3.7-1 8.2.2 12.1.8 2.5 1.8 5.1 3.9 6.6a12.9 12.9 0 006 2c18 2.5 36.3 1 54.5 1.5 3.3.1 6.8.3 9.7-1.4s4.7-5.7 2.7-8.3c-1.7-2.4-5.2-2.4-8.2-2.6a34 34 0 01-21-8.6 15.1 15.1 0 01-2.8-3.3 20.8 20.8 0 01-1.6-3.6 156.8 156.8 0 00-9-20c-1-1.9-2.2-3.8-4-4.8a10.3 10.3 0 00-4.2-.9c-4.5-.3-16.3-1.8-19.8 1.7-3.2 3.3-.7 13.4-.7 17.5z"/><circle cx="243" cy="376.7" r="29" fill="#fbbebe"/><path fill="#fbbebe" d="M216.8 400.6c-1.7 4.7-4.6 9-8.9 11.5l40 8.2a42.5 42.5 0 01-.5-18 10.3 10.3 0 00.3-4.3c-.8-3-4-4.3-7-5-7.3-1.7-13.8-2.6-20.6-5.8-2 3.6-1.8 9.3-3.3 13.4z"/><path fill="#2f2e41" d="M207.6 401.2a31.3 31.3 0 0127.3.7c5.1 2.7 9.4 6.8 13.6 10.9 3.8 3.7 8 8 8.2 13.3.1 2.6-.7 5.1-1 7.7a25.8 25.8 0 0013.7 26.4 35 35 0 013.9 18c.2 23.4-7.2 47.1-2 70 1.3 5.3 3.2 10.5 4.3 15.9 1.4 7 1.3 14.2 2 21.3a95.3 95.3 0 005.1 22.5c-1.7 2.7-5.3 3.8-8.6 3.6s-6.3-1.7-9.2-3.2c-14.2-7.2-27.1-16.7-41.7-22.9-9.7-4-20-6.6-29.4-11.2s-18.1-12.2-21-22.3a52 52 0 01-1.4-13.5c-.3-19.1-.5-38.4 3.6-57 3.7-16.5 10.8-32.3 12.3-49 .5-5.5.5-11.4 3.6-16 4.3-6.4 13.6-8 16.7-15.2z"/><path fill="#573825" d="M226.5 377.1c1.7-2.2 5-2.5 7.7-1.8s5.3 2 8 2.6a4.7 4.7 0 003.8-.6 5.4 5.4 0 001.6-3.5 68.2 68.2 0 00.6-17.4 5.1 5.1 0 01.2-2.5c.7-1.6 2.8-2 4.5-2.5a13.3 13.3 0 009-13.7 5.4 5.4 0 00-1.7-3.7c-1.2-1-2.8-1-4.3-1h-23.4c-2.9 0-5.9 0-8.4 1.5-1.8 1-3.2 2.8-4.9 4.1-4.3 3.5-10.1 4.2-15.4 6a15.3 15.3 0 00-6.8 4c-1.7 2-2.6 5-1.5 7.4a26.3 26.3 0 002 3c3 5 1 11.4 1.4 17.2.6 7.3 11.4 19.1 18.7 20.8 11.8 2.8 5-15 8.9-19.9z"/><path fill="#2f2e41" d="M210.1 696.7c.8 5.3 1.7 10.6 1.5 16-.4 7.5-3 14.7-3.6 22.2-.4 5.6.5 11.3-.3 16.8-.5 3.6-1.6 7-2.3 10.5a43.4 43.4 0 007 33.3 5.4 5.4 0 002 2 5.7 5.7 0 002.5.3 180 180 0 0025.1-2.3 2.4 2.4 0 001.7-.7 2.3 2.3 0 00.3-1c1.5-8-2-15.9-2.9-24-1-8.5 1.1-17.1 3.2-25.5a113.5 113.5 0 013.4-12.2c1-2.7 2.2-5.3 3-8a61.5 61.5 0 002.3-13.3q.9-10.6 1-21.2a89 89 0 00-1.7-20c-2-8.3-5.8-16-9.6-23.7a15 15 0 00-5.6 2.6 125.4 125.4 0 01-15.3 8.5c-3.6 1.7-10.6 2.9-12.8 6.3-2.3 3.4-.8 10.4-.6 14.1q.4 9.7 1.7 19.3z"/><path d="M210.1 696.7c.8 5.3 1.7 10.6 1.5 16-.4 7.5-3 14.7-3.6 22.2-.4 5.6.5 11.3-.3 16.8-.5 3.6-1.6 7-2.3 10.5a43.4 43.4 0 007 33.3 5.4 5.4 0 002 2 5.7 5.7 0 002.5.3 180 180 0 0025.1-2.3 2.4 2.4 0 001.7-.7 2.3 2.3 0 00.3-1c1.5-8-2-15.9-2.9-24-1-8.5 1.1-17.1 3.2-25.5a113.5 113.5 0 013.4-12.2c1-2.7 2.2-5.3 3-8a61.5 61.5 0 002.3-13.3q.9-10.6 1-21.2a89 89 0 00-1.7-20c-2-8.3-5.8-16-9.6-23.7a15 15 0 00-5.6 2.6 125.4 125.4 0 01-15.3 8.5c-3.6 1.7-10.6 2.9-12.8 6.3-2.3 3.4-.8 10.4-.6 14.1q.4 9.7 1.7 19.3z" opacity=".1"/><path fill="#2f2e41" d="M171 583c-3.9 10.4 1.8 21.6 6.7 31.5a550 550 0 0128.9 76.3c.6 2 1.2 4 .5 6a7.8 7.8 0 01-2.8 3.3c-5.8 4.4-13.1 6-20 8.2a90.2 90.2 0 00-19 9c-4.9 3-9.6 6.6-14.2 10.1l-14.8 11.3a9.9 9.9 0 00-2.5 2.4c-1.4 2.3-.9 5.2-.1 7.8a131.4 131.4 0 007.2 19.7 7 7 0 002.6 3.5c2.4 1.2 5.2-.4 7-2.4s3.2-4.3 5.7-5.1c2.5-.9 5.3.1 7.8-.2 4.2-.6 7-4.5 10-7.5 12.4-12 33-11.2 46.7-22a59.2 59.2 0 016.2-4.8c2.3-1.4 5-2.1 7.3-3.3 7.3-3.7 11.8-11.2 14.3-19s3.1-15.9 4.9-23.8c.9-4.1 2-8.2 2.5-12.4a66 66 0 00-.3-11.6l-4.9-60.8c-.4-4.9-.8-9.8-1.6-14.7-14.6.5-29.1 1-43.7 1.2-11.6.2-23.4 1-34.4-2.7z"/><path fill="#2f2e41" d="M165.6 597.2c2 3.2 6.8 3.1 10.1 1.4s5.9-4.7 9.2-6.4a30 30 0 0114.8-2.1c8 .2 16 .5 23.7 2.6 8 2.3 15.6 6.6 23.8 5.8 1.4-.2 3-.6 3.8-1.8a5.5 5.5 0 00.6-2.8l.3-7.2a6.5 6.5 0 00-.6-3.6 6 6 0 00-2.7-2 93.7 93.7 0 00-38-7.2q-9.8-.4-19.7-.3c-5.6 0-12.3-.8-17.7.7-7.3 2-11.3 17-7.6 23z"/><path fill="#43529c" d="M238.8 409.7c-15.2-.1-29-10.2-44.4-10.4a11.5 11.5 0 00-5.4.9c-2 1-3.5 3.1-5.1 4.9-4.5 4.9-11 7.5-15.7 12.3-4.4 4.4-6.8 11.1-5 17.1s8.1 10.6 14.2 9.2a36.8 36.8 0 0114.3-19.5 72.9 72.9 0 0111.3-5.9c6.8-3 14.5-6.3 21.7-4a30.6 30.6 0 017.4 4.1l12 8c-1.5-5.5-2.7-11.6-5.3-16.7z"/><path fill="#43529c" d="M175.6 438.4c-2 2.5 1 6.2.5 9.4-.3 2.1-2 3.8-2.8 5.8-.7 2-.3 4.4-.6 6.6a28.5 28.5 0 01-1.3 4.8 85 85 0 00-2.7 14l-2.7 20a75.7 75.7 0 00-.8 9 27.1 27.1 0 01-.5 6.8c-.6 2.2-1.9 4.1-2.8 6.2s-1.2 4.6 0 6.5c-4 3.3-5.2 9.9-2.4 14.3a7.9 7.9 0 011.2 2.2 5.8 5.8 0 01-.6 3.4l-2.7 7.2c-.6 1.8-.9 4.6 1 5a17 17 0 00-3.6 5.8 6.9 6.9 0 001 6.5 8.3 8.3 0 011.7 2 5.5 5.5 0 01-.2 3.3 12 12 0 001.4 9.3 8.4 8.4 0 008.5 3.7c5.4-1.3 10.2-3.2 15.7-2.2a281 281 0 0134.9 8c13 4.1 25.6 10.2 39.1 11.5a3.8 3.8 0 002.6-.4 4 4 0 001.3-2.5l4.1-19.7a202.4 202.4 0 003.9-22c.5-4.8.6-9.6.8-14.4l1-38.3a38.2 38.2 0 00-2.2-16.6l-6.2-19.8c-3.5-11.3-11.7-21.4-14.6-32.9-1.8-7.3-3.2-15.1-8-20.8-7-8-19.2-9.3-29.8-8-4.8.7-9.7 1.8-13.8 4.3a45.2 45.2 0 00-11.8 11.8c-2.8 3.6-5.7 6.6-8.6 10.2z"/><path fill="#fbbebe" d="M200.4 550.8c1 3.8 2.8 7.3 3.9 11 1.9 6.2 1.7 12.9 3.6 19 .8 2.7 2 5.2 2.5 7.9 1.3 6.2-.6 12.6-3 18.5s-5.3 11.7-6.1 18c-.6 4.4.2 9.4 3.7 12.3 3.5 3 8.7 2.8 13.3 2.4a14 14 0 004.8-1c3.6-1.7 5-5.9 5.9-9.7 2.8-12.8 2-26.1 1.2-39.2l-2.1-34.2c-.5-6.6-.9-13.4-3-19.7-.7-2.3-2-7-4-8.4-2.1-1.5-8-1.5-10.7-1.7-12-.5-12 16.4-10 24.8z"/><path fill="#2f2e41" d="M213.8 424.4c-2.4-1.3-5.5-.7-8 .7a24.6 24.6 0 00-5.9 5.8c-5.3 6.5-11 14-10.2 22.4.3 3.2 1.5 6.1 2.3 9.2 3.6 13.4-.4 27.5.1 41.4.3 8 2 15.8 3.7 23.6.4 1.6 1 3.5 2.5 4 1.2.4 2.4-.1 3.6-.5a28.4 28.4 0 0126 3.2c2.8-1.5 1.7-6.3 1-9.5-1.8-9.5.7-19.2 3.9-28.4s7-18.2 7.4-27.8c.6-11-3-21.6-6.6-32-.8-2.2-1.6-4.5-3.4-6.1a13.7 13.7 0 00-5.2-2.4c-3.8-1-7.6-1.7-11.2-3.6z"/></svg>