<svg xmlns="http://www.w3.org/2000/svg" width="2500" height="2500" preserveAspectRatio="xMinYMin meet" viewBox="0 0 256 256"><path fill="#563D7C" d="M0 223a33 33 0 0033 33h190a33 33 0 0033-33V33a33 33 0 00-33-33H33A33 33 0 000 33v190z"/><path fill="#FFF" d="M106.2 113.2V77H138c3 0 6 .2 8.8.7a22 22 0 017.5 2.8c2.1 1.3 3.9 3 5.2 5.4a18 18 0 012 8.9c0 6.5-2 11.2-6 14.1-3.9 2.9-8.8 4.3-15 4.3h-34.4zM72 50.5v155h75c7 0 13.8-.9 20.4-2.6a54.3 54.3 0 0017.6-8 39.6 39.6 0 0016.8-34.3 43 43 0 00-7-24.9 37.3 37.3 0 00-21.4-14.4c6.9-3.4 12.1-7.6 15.7-12.8a34 34 0 005.3-19.6c0-7.2-1.2-13.3-3.6-18.2-2.4-5-5.7-8.9-10-11.8-4.4-3-9.6-5.1-15.7-6.4-6-1.3-12.8-2-20.2-2H72zM106 179v-42.5h37.2c7.4 0 13.3 1.7 17.8 5 4.5 3.5 6.7 9.1 6.7 17.1 0 4-.7 7.4-2 10a16.4 16.4 0 01-5.6 6.2c-2.3 1.5-5 2.6-8 3.2-3 .7-6.2 1-9.6 1h-36.4z"/></svg>