<svg xmlns="http://www.w3.org/2000/svg" width="2490" height="2500" preserveAspectRatio="xMinYMin meet" viewBox="0 0 256 257"><defs><linearGradient id="a" x1="50%" x2="50%" y1=".7%" y2="97%"><stop offset="0%" stop-color="#86BBE5"/><stop offset="100%" stop-color="#1072BA"/></linearGradient></defs><path fill="#EF3F36" d="M127.8 0S203-3.3 243 72.4H121.4s-23-.8-42.6 27c-5.6 11.8-11.7 23.8-4.9 47.5-9.8-16.5-52-90-52-90S51.7 3 127.8 0z"/><path fill="#FCD900" d="M239.1 192.2s-34.7 67-120.2 63.7l60.8-105.4s12.2-19.5-2.2-50.4c-7.2-10.8-14.7-22-38.6-28 19.2-.2 104 0 104 0s31.7 52.7-3.8 120.1z"/><path fill="#61BC5B" d="M17 192.8s-40.6-63.6 5-136l60.8 105.4s10.9 20.2 44.8 23.3c12.9-1 26.4-1.8 43.5-19.5-9.4 16.8-52 90-52 90S57.7 257.1 17 192.8z"/><path fill="#5AB055" d="M118.8 256.5L136 185s18.8-1.5 34.5-18.8l-51.7 90.2z"/><path fill="#FFF" d="M70.5 129a57 57 0 11114 0 57 57 0 01-114 0z"/><path fill="url(#a)" d="M80 129a47.5 47.5 0 1195 0 47.5 47.5 0 01-95 0z"/><path fill="#EACA05" d="M242.8 72.2l-70.5 20.6s-10.6-15.6-33.5-20.6c19.9-.2 104 0 104 0z"/><path fill="#DF3A32" d="M72.5 144.3L22 57l52.2 51.6s-5.3 11-3.3 26.8l1.7 9z"/></svg>