<svg xmlns="http://www.w3.org/2000/svg" width="1888" height="2500" preserveAspectRatio="xMidYMid" viewBox="0 0 256 339"><path fill="#7D6A4C" d="M180 281l45-18 1-16 8-16 1-18 9-27 10-23-1-5-1-5 1-6-2-6 1-5-9-11-39 14 2 5-4 6 4 11-6 10 8 23 16 9-21-2 5 10-5 14-7 4-5 1-11 13-8 19 7 19h1zM15 146l39 4 6 26-9 20 5 4 8 23 10 11 7 4 12 11 13 11-5 10 1 8-1 4-3 9-29-9 1-5-4-5 1-5-40-29-2-7-9-3v-62l-4-9 3-11z"/><path fill="#644D31" d="M217 192l-2-1-2 1v1l6 3c0-2 1-4-2-4zm-1 20h1l2 4v-4h-3zm17-21s-1 0 0 0c0 0 1 0 0 0zm0-37c0 2 0 3 2 3 3 0 4 0 4-2v-4h-3c-2 0-3 0-3 3zm-7 16v-2l-1-3h-5s-1 5 1 5h5zM97 271v-1-1-1-2h-5l-1 2v1c0 2 0 2 2 3h4v-1zm4-5l-3 1v4h1v-1l2-4zm-2 7h-1a91 91 0 000 3v1l1 1h2l-2-5zm0 6l-1 1v3l2-1 1-3h-2zm82-7l4-1v-2-3h-5l-1 2v2l1 1v1h1zm56-81l-4 1v5h5v-1-2c0-1 1-2-1-3zM31 157l6-1v-5h-6v6zm188 102h-1l-4 1-1 4 2 1h4v-2-4zm-18-7c-2 0-1 2-1 3 0 2-1 3 2 3 1 0 3 1 3-1l1-4-1-1h-4zm-139 0l-4 1v5h4c2 0 2-2 2-3s0-3-2-3zm148-109h2v-1a19 19 0 000-3c-2 1-3 0-2 3a5 5 0 010 1zm1 7l1-4v-1a1 1 0 01-1-1h-1l-4 5v1h5zm14 42h-5v4l1 1h1v1-1h4l-1-5zM23 219l-5-1-1 5v1c2 0 6 1 6-1v-4zm202-2l1-4c0-2-4-2-5-1-2 1-1 3-1 5v1l5-1zm13-80l1-3 1 2 2 1 4-1v-5h-1-5l-1 2v-1c-1-2-3-1-4-2v1l-2 1v2l1 2 4 1zM73 278h4v-5h-5l-1 4 2 1zm114-32l-1 1v3l2 1h4v-3-2h-5zm-145-7h-4l-1 4 2 2h1c1-1 3 0 3-2 0-1 1-4-1-4zm184-32l-1-1a17 17 0 00-4-1h-1v5l2 1h4v-4zm-21 62v-2l-4-1h-1s0-1 0 0v6h2v-1a7 7 0 012 0l2-1-1-1zm-20-17h-4a362 362 0 01-2 4l1 2h4c2 0 1-3 2-5a3 3 0 01-1-1zM50 188l-1-3h-4l-1 3 1 2 3 1a17 17 0 011-2h1v-1zm47 91h-4l-1 2v4h4l2-2-1-4zm122-69l-1-5h-4l-1 3v1l2 2c2-1 3 1 4-1zm-191 8c-2 1-4 0-4 3v3h1l2 1 2-1v1c1-2 2-7-1-7zm185-76l2 1h4v-4c0-1 0-2-2-2l-2 1a9 9 0 01-2 1v3zM65 259l-1 3v1h1v1a66 66 0 002 1 2 2 0 011 0h1l1-1v-4c0-2-3-1-5-1zm17 20h-3l-1 4v1l6 1v-2c0-2 1-4-2-4zm118-19l1 5h3l2-1-1-4c0-2-4-1-5 0zm-12-15h4l-1-5v-4l-1 1-4 5c0 2 0 3 2 3zm64-87a3 3 0 00-1 0h-1-1l-2 1v2l1 3h2a14 14 0 002-1v1h-2l-2 1c-2 0-1 1-1 3l1 2 1 1c1-2 3-4 3-7v-1a94 94 0 011-4l-1-1zm-41 13h-3l-1 5 1 1h4v-3c0-1 1-3-1-3zm-19 103v-1l-2-1-4 1v5l1 1 6-3-1-1v-1zm19-42h-4v6c0-1 4 1 5-1v-3l-1-2zm1-81s-5-1-6 1c1 2 1 4 3 5h1a1 1 0 011 0l1-1v-5zm16 47c-2 1-1 2-1 3v1a7 7 0 012 0l1 2h2v-5l-4-1zM54 226l-3 1v3l2 1c2 0 4 0 4-2l-2-3h-1zm-7-15a37 37 0 00-3 5c0 2 1 2 2 2l4-1v-5l-3-1zm20 25v1h-2c0 1 3 2 4 1l1-3-1-1-5-6c1 3 0 6 3 8zm144 3h-4v6c2 0 5 0 5-2v-2l-1-2zm0 19c2 0 1-1 1-3 0-1 1-3-1-3h-3l1 4a48 48 0 00-2-2h-1l1 4h4zm-1-33h-2l-1 6c2-1 5 1 5-2v-2-1l-2-1zM38 205l-1 3c0 3 2 3 4 3a23 23 0 002-6h-5zm206-26h-1 1l-1-1-4 1v2l1 2 1 1h2l-1-1 1 1h1l2-5h-2zM92 252c-1 1-1 6 1 6h4l1-2-6-4zm135-113l1-1h-1v1zm0-3v1a37 37 0 012-1l3 1 1-4h-2v-2l-2 1-3 2v2h1zm2 7c1 0 3 1 4-1l-1-3v-1h-2a23 23 0 00-2 0l-1 1c0 2-1 4 2 4zm-35 115h1l-2-6v5l1 1zm1 1h-1-1v6h2l4-1a422 422 0 00-3-5h-1zM50 153l-6-1-6-1v4c0 2 1 2 2 2l3-1 1-4c1 2-1 5 2 5h4v-4zm-29 65c3 0 2-2 2-4 0-3-2-2-4-2l-1 6h3zm26 27c-2 0-2 0-3 3l5 4h1v-4-2l-3-1zm9-68v-2l-1-4h-3l-1 1v4c0 2 3 1 5 1zm128 95l-3 1h-1l2 5h1s2 1 2-1a10 10 0 000-2l-1-3zm27-27h-4l1 7c2-1 4 0 4-2 1-1 1-5-1-5zm1-25v-1h-1l-3 3v2h4v-3-1zm18-15l1 3-2-1-2-1v1 4h5l1-5-3-1zm-210 0a7 7 0 01-1 2v4c2 0 4 0 4-2v-4h-3zm39 27c-1 0-2 5-1 6h3c1 0 3 0 3-2l-5-4zm42 27h-2l-1 4c0 2 1 2 2 2h2l1-3-2-3zm150-114l-3 1v3h3l1-2v-1a4 4 0 010-2h-1v1zM90 258c1-1 1-4-1-5l-1 1a6 6 0 01-1 0l-2 2v1a1 1 0 01-1 1h6zm121-94l-1 1a1 1 0 01-1 0 2 2 0 010 1l-1 4c2 0 4 1 4-1 1-1 1-5-1-5zm1-3v-3h-1a1 1 0 01-1 0 6 6 0 00-1 0c1 2 2 3 1 5h1l1-2zm34-16l-2-1h-2c-2 0-2 2-2 3a4 4 0 000 2c2-2 4-1 6-1v-3zm-42 106h1c-2-1-2-4-3-6l-1 1a1 1 0 010-1l-2 3 1 2c0 2 2 2 4 1zm5-67l3-1v-4c0-2-2-1-4-1v1l1 5zm17 36c0-2-4-2-5-2v1l2 5h3v-4zM53 164c-3 0-2 3-2 4 0 3 2 2 4 3l-1-7h-1zm132 87v-3-2h-2a94 94 0 00-2 5h4zM77 280c0 1 0 1 0 0l-4-1h-1v2l1 2 4 1v-4zm-26-56h3l1-1a50 50 0 00-1-4h-1v-1l-2 1v5zm160 42h-4l-1 3v1l6-2v-1-1h-1zm36-123h3v-5l1-1h-2-1l-1 3v3zM52 156h1l-1-2-1-1v2l1 1zm-1 5v0c0 3 0 3 3 3v-1l-1-6a4 4 0 01-1 1l-1 1v2zm-7 34v1l1 1v-1l2-4c-1 0-2 0-2 2v-1l2-1 1-1-3 1a1 1 0 00-1 0v3zm9 57l-2 1 6 4v-2-2l-4-1zm-1-68l3-5v-1h-3c-2 1-1 5 0 6zm32 75l-6 6 6-1v-5zm129-40v5h6l-6-5zm-13 25v1h1v-1a3 3 0 01-1-1 2 2 0 010-1v1l1 1h1l-1-10-1 4a76 76 0 01-1 2v1l1 3zm-2 29h-5v3l6-2-1-1zm14-86c0-2 0-2-2-3l1 6v3h1v-1-1-2-2zM53 211c-2 1-2 2-2 3 0 3 0 3 2 4v-2-5zm195-75h2a4 4 0 011 1v-1l-4-5v3l1 2zM35 239h-3a7 7 0 012 3 41 41 0 002 1l1 1v-1c0-2 0-4-2-4zm-6-14l-2 6h3v-3l-1-3zm24-20h-2v3c0 2 0 2 2 3l-1-2 1 2v-6zm-36 20l5 3 1-1v-1c0-2-4-1-6-1zm224-40l-1 2v4l3-6h-2zM28 232l-1-1v3l2 2 1 1c0-2 1-5-2-5zm66 54l-3 1a2 2 0 000 1l4 1 1-3h-2zm-22-48h4-1 1a6 6 0 01-1-1l-3-2a1 1 0 01-1 0c1 2 2 2 4 2-2 0-3 0-4-2l1 3zm6 13l1 1-1 3v2l1 1v-1-4-1-1a22 22 0 001-5h-1l-1 1v4zm145-114l2-1v-1h-2-1l-2 1 3 1zm0 89l2 6 1-4c-1-2-1-2-3-2zM18 149l3 1 3-1 1 1h5a1 1 0 00-1 0 29 29 0 00-5-1l-6-1v1zm193 56h-3l4 3v-1l-1-2zM62 259h-2v1l2 2h1a1 1 0 011-1l-2-2zm181-129h2l-2-2-3 1 3 1zM47 211c2 0 3 0 3-2v-3l-3 5zm173 16v3l1 1h2l-3-4zm0 34v3h1v-1-4l-1 2zm27-88v3l2-5h-2v2zM89 286h-3l5 2v-1l-2-1zm135-88h-1l3 3c0-2 0-3-2-3zM42 246h-1l2 2v-1l-1-1zm58 12a7 7 0 00-1-1 1 1 0 01-1-1c0 2 0 2 2 2zm-26 14c3 0 3-1 3-3v-1c0-2 0-2-3-2-2 0-3 0-3 2v3l2 1h1zM47 164c-2 0-3 1-3 3 0 3 1 3 3 3 3 0 3 0 3-3 0-2 0-3-3-3zm-3 72c0 1 0 2 2 2h3c2 0 1-2 1-3 0-2 0-3-2-3h-3l-1 4zm-4-11c-2 0-2 1-2 3s-1 3 1 3h4l1-3c0-2-1-3-4-3zm49 41h-4v4c0 2 1 2 3 2s3 0 3-2 0-4-2-4zm-58-98c0 3 1 2 3 2s3 0 3-2v-1c0-3-1-3-3-3-3 0-3 1-3 3v1zm3 43c2 0 3 0 3-3 0-2-1-3-3-3-3 0-3 0-3 3v1c0 2 0 2 3 2zm50 58c0-2 0-3-2-3h-3l-1 2v1c0 2 1 3 2 3h1c3 0 3-1 3-3zm-40-87c0 2 1 2 4 2 2 0 2-1 2-3s0-3-3-3-3 1-3 4zm-7 33c-1-3-1-3-3-3-3 0-3 0-3 3 0 2 0 2 2 3h1c2 0 3-1 3-3zm3-44c3 0 3-1 3-4 0-2 0-3-3-3-2 0-3 1-3 4 0 2 1 3 3 3zm48 94c2 0 3-1 3-3s0-3-3-3h-1c-2 0-2 0-2 3s0 3 3 3zM40 158c-2 0-2 0-3 3 0 3 2 3 4 3s2-1 2-3v-1c0-2 0-2-3-2zm57 101h-2c-3 0-4 0-4 3 0 2 1 3 3 3h1c2 0 2 0 2-3v-1-2zm-20 2v1c0-3 0-3-3-3-2 0-3 0-3 3 0 2 0 3 3 3s3 0 3-3v-1zm-23-22c-3 0-3 0-3 3s1 3 3 3c3 0 3-1 3-3 0-3 0-3-3-3zm7 6h-1c-2 1-2 1-2 3 0 3 0 4 3 4l2-1 1-3c0-3-1-2-3-3zm-28-48h2c1 0 2 0 2-2 0-3-1-4-4-4-2 0-2 1-2 3 0 3 0 3 2 3zm14 42c-2 0-3 0-3 3 0 2 1 3 3 3 3 0 3-1 3-3v-1c0-2 0-2-3-2zm2-13l-2-1c-2 0-3 0-3 3 0 2 0 3 3 3s3 0 3-3v-2h-1zm-5-67v4l5 1c2-1 1-2 1-4s-1-2-3-2-3-1-3 1zm23 86c2 0 3 0 3-2 1-3 1-4-2-4-2 0-3-1-4 2 0 2 0 4 3 4zm-19-27h-1c-3 0-3 2-3 5 0 2 2 1 4 1h2v-4l-2-2zm25 21c-2 0-2 1-2 2l1 4h4c2-1 1-2 1-3v-2l-1-1h-3zm14 40c-3 0-2 2-2 4s1 2 3 2c3 0 3-1 3-3-1-3-2-3-4-3zM47 171c-2 0-3 1-3 3v1c0 2 1 2 3 2 3 0 3 0 3-3 0-2 0-3-3-3zm-13 20c2 0 3-1 3-3 0-3 0-3-3-3s-3 0-3 3c0 2 0 3 3 3zm40 55h-2l-1 3c0 3 2 2 4 2s2 0 2-2c0-3 0-3-3-3zm-48-28h2l2-2c0-2 0-4-2-4h-4v3c0 2 0 2 2 3zm2-27l-3 1-1 3c0 2 0 2 3 2 1 0 2 1 3-1 0-1 1-5-2-5zm69 82a2 2 0 00-1-1h-2l-2 1v4c-1 1 0 1 2 1h3v-2-3zm-43-41c-3 0-3 1-3 3 0 3 1 3 3 3s3 0 3-3c0-2 0-3-3-3zm-20 6c2 0 2-1 3-3 0-3-1-3-3-3-3 0-3 1-3 4 0 2 0 2 3 2zm9-59l-1-1c-2 0-4-1-5 1v1l1 2v2h5v-2-1-2zm-9-15c2 0 3-1 3-3 0-3-1-3-4-3-2 0-2 0-2 3 0 2 0 3 3 3zm2 55h-3c-2 0-2 0-2 2v3h3c1 0 1 0 0 0 3 0 3 0 3-3l-1-2zm-5-45l1 3h4l1-2-1-3-4-1-1 3zm1 10l5-1v-2l-1-3h-1c-2 0-4-1-4 1l-1 1 2 4zm29 55c-2 0-3-1-3 1v4l4 1c2-1 2-2 2-3 0-4 0-3-3-3zm6 19c3 0 3 0 3-3 0-2 0-3-2-3-3 0-3 0-3 3-1 3 0 3 2 3zm-29-73l-1 4c0 2 0 2 2 2h2c2 0 2-2 2-3v-3h-5zm-1 16c0-2 0-3-2-3s-4-1-4 3c0 2 0 3 2 3h3l1-3zm38 57c2 0 2-1 2-2v-1c0-3 0-3-3-3s-2 1-3 3v2l1 1h3zm-34-26c-2 0-4 0-4 2l1 2v1l4 1c2 0 1-1 1-3 1-3 0-3-2-3zm-15-48l4-1v-4l-1-1h-3c-2 0-2 1-2 2 0 2-1 4 2 4zm63 89h-4v4a5 5 0 000-1c0 3 1 3 4 2 2 0 2 0 2-2s0-3-2-3zM28 171h-3l-1 3c0 3 0 3 2 3s3 1 4-1c0-2 0-5-2-5zm-4-17v2l2 1c3 0 4 0 4-3l-1-3h-5v3zm6 14l-1-3h-5v5l2 1c3 0 4 1 4-3zm-5 43h4l1-5-3-1h-3c-1 1 0 5 1 6zm-7-55l1 1h4v-4l-1-2h-4a2 2 0 00-1 1v2l1 2zm52 91c0-2 0-2-2-2-3 0-4 1-4 3 1 3 1 3 3 3h3v-1-2-1zm-27-52c0-2 1-4-2-4-2 0-3 0-3 2-1 3-1 4 2 4 2 0 3 1 3-2zm-16 3c-3 0-3 1-3 4 0 2 1 2 3 2s3 0 3-2c0-3 0-4-3-4zm5 33l4-1 1-3c-1-2-3-2-5-2s-2 3-2 5l2 1zm-7-40l4-1c1 0 2-5 0-5h-5v4l1 2zm17-20l-4 1-1 3 2 2h4v-3c0-1 1-2-1-3zm1 30c0-2 0-3-2-3s-4 0-4 2c1 2 1 4 3 4h3v-2-1zm39 71c-3 1-4 1-4 3s0 4 2 3c2 0 4 1 4-1 0-3 0-5-2-5zm-31-23c0 2 1 2 3 2 3 0 3 0 3-2 0-3-1-4-3-4-3 1-3 1-3 4zm-31-86l2 1c1-1 2-6 0-6h-4l1 2 1 3zm1 22c-2 0-2 1-2 3s0 3 3 3c2-1 1-3 1-4 0-2 0-2-2-2zm1 6h-1l-2 1 1 5c1 1 3 0 3-1s1-4-1-5zm-1 13c3 0 2-2 2-4s-2-3-3-2l-1 3 1 3h1zm2-25l-2-1-2 3v1l2 2c3 0 2-3 2-5zm-3-8h3v-3l-1-3c1 0 1 0 0 0-2 0-2 2-2 3v3zm2 0l-2 1v5c2 1 3 0 3-1 0-2 1-5-1-5zm16 53h5v-6l-3 5 1-10v-1h-4v5l3 1h-2v6zm178-68l1 1h1l1-2v-3l-2-1c-2 0-4-1-4 2l1 4a43 43 0 012-1zm3 2h-5l-1 2c1 2-1 3 2 4 2 0 4 0 4-2v-4zm19 27h-3-1l-1 3v-1c0-2 0-2-2-2h-2l-2 1v5h12v-3-3h-1zm-5-37a1 1 0 001 0v2h4l1-2v-3l-1-1h-3l-2 3v1zm-3 70c2 0 3-1 3-3 0-3-1-3-3-3-3 0-3 0-3 2v1c0 2 0 3 3 3zm-7-67c-2 0-3-1-3 2v1c0 2 0 3 2 3s4 0 4-3v-1c0-1-1-2-3-2zm6 46h3l1-3a14 14 0 000-1l-2-2c-2 0-4 0-4 2-1 2-1 4 2 4zm-14-47c1 0 4 1 4-1v-1-4h-5a2 2 0 01-1 1v4c-1 2 1 1 2 1zm21 8h-2l-1 4c0 2 2 2 4 2 3-1 2-2 2-4 0-3-1-2-3-2zm-11 27l-3-1-2 1v4c0 2 1 2 2 2h2l2-1v-3c0-1 0-1 0 0l-1-2zm5-28c2 0 3-1 3-2v-1c0-3-1-3-3-3s-3 0-3 3v3h3zm-12 14h-3c-1 0-2 0-2 2a26 26 0 000 2v1l2 1c2 0 4 1 4-1v-2l-1-3zm2 13l6-1v-2l-1 2 1-5h-6v6zm10-6c-3 0-3 1-3 3 0 3 1 3 3 3 3 0 3-1 3-3 0-3-1-3-3-3zm2-33l-2-1c-3 0-3 0-3 3v1c0 1 0 2 2 2s3 1 4-2v-2l-1-1zm-18 39h3l2-1v-5h-5l-1 3 1 3zm31-47h-1c-2 1-4 0-4 3 0 2 0 3 3 3h3v-4l-1-2zm-25 21v3l1 3c2 0 4 0 5-2l-1-4h-5zm19 15c0-2-1-2-3-2s-3 1-3 3 0 3 2 3h4v-2-2zm-9-2c-3 0-3 1-3 3 0 3 0 3 3 3 2 0 3 0 3-3s-1-3-3-3zm-11-6l-3-1c-2 0-3 0-3 3 0 2 0 3 2 3h4v-5zm-2 20c-3 0-4 0-4 2 0 3 0 4 3 4s3-1 3-3c0-3 0-3-2-3zm6-14c-2 0-3 0-3 2 0 3 0 4 3 4s3-1 3-3c0-3-1-3-3-3zm0-34l-3 1v3c0 2 0 2 2 2h3l1-4c0-2-1-2-3-2zm21 34c-2 0-4-1-4 2s0 4 3 4h2l1-1v-2c0-2 0-3-2-3zm-20-27c-3 0-4 0-4 4 0 2 1 2 3 2s3 0 3-2v-2c0-1 0-2-2-2zm10 40h5v-2-2c0-2 0-2-3-2-1 0-2 0-2 2l-1 2 1 2zm-7-21l4 1c2-1 2-2 2-4l-1-2h-2c-1 0-3-1-3 1v4zm12-20v-4l-1-2-4 1v5h5zm-1 21l-4 1v3c0 2 1 2 3 2l2-1c0-2 1-5-1-5zm-7 54c-2 0-4 0-4 2v4c0 1 5 1 5-1l1-3-2-2zm1-53l-3-1c-2 0-3 1-2 3v1c0 1-1 2 1 2h4v-5zm8 5h5c2 0 1-3 1-5h-6v5zm5-11h-4a1 1 0 01-1 0v3c1 2 2 2 3 2l3-1v-3-1h-1zm-17 66c-2 0-1 2-1 4 0 3 1 2 3 2 2-2 2-4 2-6h-4zm13-74l-1 5h6v-1a9 9 0 000-1l-5-3zm-3 47h-4v6h3l1-6zm-5 9c0 1 0 5 2 3l1-5c-2 0-3 0-3 2zm-7 31v-1a59 59 0 010-5h-1v4l-1-2-1-2h-1c-2 0-2 0-2 2v4h6v-1a1 1 0 010 1zm1-5v4a40 40 0 003-5h-2l-1 1zm-11 12c3 0 3-1 3-3 0-3 0-3-3-3-2 0-3 0-3 3 0 2 1 3 3 3zm-7 14l-2 1-1 3c1 2 1 2 3 2l3-1v-4l-3-1zm7-21c3 0 3-1 3-3v-1c0-2-1-2-3-2s-3 0-3 3 0 3 3 3zm1-13c-3 0-4 0-4 3 0 2 0 3 3 3h1c2 0 2 0 2-3 0-2 0-3-2-3zm0 27h-2-1l-1 4a4 4 0 000 1v-1c0 3 3 2 5 2l1-3c0-2 0-3-2-3zm0-7h-1c-2 1-3 0-3 2v3l2 1c2 0 4 1 4-1s0-5-2-5zm8-6c-3 0-5-1-5 2s0 4 3 4l3-5-1-1zm-5 8c0 2-1 5 2 4l1-5-1-1-2 2zm1 5c-2 0-2 6 0 6l1-5-1-1zm-29 8l-3-1c-2 0-3 0-3 3 0 2 0 3 3 3h2l1-1v-2-2zm-1 6h-2c-3 0-3 0-3 3 0 2 1 3 3 3 3 0 3-1 3-3v-3a1 1 0 01-1 0zm1-13l-3-1c-3 0-3 1-3 4 0 1 0 2 2 2 1 0 4 1 4-2v-3zm-7 6h-2l-4 1 1 5h4c2 0 1-2 1-3v-3zm12 7h-4v4l2 2 4-1c0-1 0-5-2-5zM27 158c-3 0-3 1-3 3 0 3 1 3 4 3 2 0 2-1 2-3v-1c0-2-1-2-3-2z"/><path fill="#885630" d="M87 246l-1-1a34 34 0 00-1-1l-3-1-1 2v4l-1 5v2h3l1-1 2-3a931 931 0 011-3 3 3 0 000-3zm110-16h-1l-3 1c-2 0-3 1-3 3l1 9 1 7 3-6 1-2v-1l1-4v-3-4zm-4-28l-3 1h-6a9 9 0 01-1 0 9 9 0 00-2 0h-7l7 4 6 2a15 15 0 014 0h11l6-1-5-3c-2-2-6-3-10-3zm-133-1l2-1v-1l15-6 7-1 17-4 4-1 16-7-24 4-4 1-13 1-11 3-3 2-4 2c-3 1-4 3-4 5v3h2zm154-4l-6-2h-4a2 2 0 001-1 3 3 0 002-2v-1a18 18 0 01-1-1v-1l-12-16-3-3 2 1 2 1 3 1 2-1-1-2c-2-3-7-7-12-10l-6-5h-1v-1a34 34 0 00-5-1h1l4 1 9 5a13 13 0 003 1l8 4-6-7c-6-7-16-17-26-21a2 2 0 00-1-1c-3-1-6 0-9 1-2 1-3 2-2 3v10l2 3h-1l-1 3v2-2 7a5 5 0 000 2v2l1 1h-1a2 2 0 00-2-1l-1 1v-6h-1 1l1-1 1-4v-1-11c-2-7-5-12-10-16s-12-7-18-8c-7-2-14 0-21 2l-1 1-4 1-3 2-11 8h-1v1l-3 2-1 1-1 1a105 105 0 00-13 20l-2 3-2 4-3 8 6-5 7-7h1v-1l3-3 3-1c3-3 7-5 11-6a69 69 0 013-2h1l4-1 4-1a259 259 0 0016-2l10 1a30 30 0 00-5 0 432 432 0 01-18 1c-10 2-20 7-30 15l-11 10-3 3a6 6 0 00-1 2l-9 14a11 11 0 00-2 3l-1 6 4-4a27 27 0 012-1c3-3 8-5 13-6l17-4c9 0 18-2 25-4a49 49 0 0022-11l-2 4c-2 3-5 5-8 6a100 100 0 01-28 10 149 149 0 00-13 2c-4 1-9 2-13 5-4 2-7 5-9 8v7l1 5 2-5 1-1 1-3c2-2 5-4 9-5l6-1h3l12-1 15-2c7-1 15-2 21-7l4-2 9-7 8-10a15 15 0 004 15l13 8 13 5h6l13-1h2l10 1 8 1-7-5zm-46-18a167 167 0 006 4l1 1 8 5a102 102 0 019 3l1 1h1a179 179 0 00-8-1l-8-4-10-9z"/><path fill="#FFF" d="M177 278l-4-9v-2l-1-1-2 1-5 7-1 1-6 4-4 2-1 1h3c6 0 10 1 14 3 2 1 2 2 2 3v1h-1l-16-5a410 410 0 01-4-1h-1l-1 1 1 2 3 1 4 2c5 1 9 2 13 5h3c3-2 4-4 3-7s-1-5 1-7v-2zm-56 7a33 33 0 01-9 0v-1h4l10-2v-1l-4-2a32 32 0 00-2-1c-4-2-7-5-9-9l-2-4-2-1v-1 1l-1 2-1 4v7l-1 3a164 164 0 00-4 4v3l1 3v7l1 2 4 1 1-1v-1a2 2 0 001 0l3-3 4-2 5-3 12-4h3l-3-1h-11zm26-2l-1-1h-1a18 18 0 01-4 0h-4l-1 1 2 2h7c2 0 2-1 2-2zm102-161l1-2 1-8 1-10h-1l-61 17v3l10 16 1 1v-1l48-16zm-3-15c2 0 3 1 3 4 0 2-1 4-3 4s-4-2-4-4 2-4 4-4zM36 146l9 1 15 2 1-1a940 940 0 014-13l-1-1-27-7-28-7H8a1348 1348 0 01-2 21l1 1 29 4zm-22-18l3-1c2 0 3 1 4 3 1 3 0 6-2 8a4 4 0 01-5 0c-3-3-3-7 0-10z"/><path fill="#1A1A1A" d="M246 107c-2 0-4 2-4 4s2 4 4 4c1 0 3-2 3-4 0-3-1-4-3-4zM17 127l-3 1c-3 3-3 7 0 10h5c2-2 3-5 2-8-1-2-2-3-4-3z"/><path fill="#1A1A1A" d="M116 330l-1-2 1-5 1-11c0-1 0-2-2-3-1-1-2 0-3 1l-6 6-5 6-1 1v-1-5-6c0-2-2-3-4-1l-1 1-4 6-10 14-2 3-1 3 3 1 2-1 9-12 1-1a24 24 0 000 2v5c0 3 2 4 4 3l3-3a52 52 0 004-5l5-6 1 5-1 8 3 2h4c2-2 2-4 0-5zm122 0l-2-1-5-5v-3c4-3 5-6 5-10 0-3-2-5-5-5-2-1-4 0-6 2h-6l-1 3-5 21c-1 3 0 4 3 4 2-1 3-2 4-5l1-8 6 7c2 3 4 5 7 6 2 1 4 0 6-1v-3l-2-2zm-8-16a5 5 0 01-1 2l-7 5 1-6c1-2 3-4 5-4 1 0 2 1 2 3zm-150-8l-2 1h-2c-3 0-7 1-9 4-5 5-8 11-8 19 0 5 3 7 8 6 10-2 17-12 18-22 0-3-3-7-5-8zm-1 11l-6 12-5 2c-2 0-4-2-3-4 0-4 1-8 4-12 2-2 5-3 8-2l2 4zm121-3h4l8-1c2 0 3-1 3-2 1-1 1-2-1-2h-12c-2 0-4 1-5 3v1c-3 0-4 2-4 5l-5 14 1 3h3l14-2h2l1-4-2-1a21 21 0 00-3-1l-8 1c0-3 0-3 3-3l7-1 3-4-2-1a23 23 0 00-3 0h-6l1-2 1-3zm-143-6l-5-1c-4 0-7 1-9 3-5 4-8 10-9 16-1 2 0 5 1 7s2 2 4 2c4-1 9-2 12-5l4-2 1-3-2-1h-2l-9 4c-2 0-2 0-2-2a4 4 0 010-2l2-6 4-4c2-2 4-2 6-1h2l2-3v-2zm130 2c-4-3-9-3-13 1-2 2-2 4-1 7l4 6 3 4c1 1 0 2-1 2h-2l-5-3-1-2-2-2-3 1c-1 2-1 4 1 6 4 3 9 5 13 5 5 0 7-3 6-7l-3-4-5-7c-1-2-1-3 2-4l5 1c1 2 3 1 3-1 1-2 0-2-1-3zm60-184l6-2 1-2 2-26-1-1-20 6c-2 1-2 1-2-1l-9-23v-4-8-1l-3-21a85 85 0 00-7-18L203 7c-1-3-3-5-6-6l-3-1-3 1c-1 2-2 4-1 6l8 18v1l-1-1-14-11c-6-5-14-8-21-12l-3-1-5-1c-3 0-5 2-5 4s-1 2-2 2l-3 3c0 4 1 6 3 9l19 18h-1l-2-2-13-8-6-2c-3-1-4 0-6 2l-1 3c0 2 2 4 3 5a115 115 0 0125 23l-1 1c-6 0-12 1-17 3-3 0-5 1-6 4s-1 4 2 5a135 135 0 0123 9l5 4c5 3 11 7 17 8l2 1 2 1c0 3 2 4 4 5h1l1 2a342 342 0 003 10l-1 1-16 5-1 2 13 23c2 4 2 4 5 2h2v2c-2 1-3 4-4 6v1a500 500 0 014 7v1l-1 5-5-10-9-11-1-2-10-7-5-1c-5-1-10-2-16 0l-2-1-4-5c-4-4-9-7-14-9a42 42 0 00-19-2c-5 1-11 1-16 4l-3 2c-5 3-10 5-14 9l-13 14c-4 5-8 11-11 18l-1 1-1-10v-1h4l2-1 1-4 4-17-1-1-16-4c-1-1-2-1-1-2 1-4 1-9 3-13l1-1 2-4c0-2 1-3 2-3l8-4 4-5 14-26 1-2 11-11c2-1 2-2 2-4l-2-4-4-2h-1l1-1a3334 3334 0 0014-9l17-12 1-1-1-1h-3L73 52c-2 1-2 1-2-1l-4-11 1-2 11-10 3-6c0-2-1-3-4-2l-3 1c-9 5-20 9-30 12h-2l-4-3h-1c-1 0-2 0-3 2l-7 9-8 12h-1l-9-16-3-5-5-2-1 1-1 4 2 12 6 19 6 19-1 1-2 2c-1 1 0 2 1 3l1 3 2-2 1 1 6 12v2l-3 10-1 1a1518 1518 0 00-12-3l-2 1a7851 7851 0 01-2 29l1 1 8 1 1 1-2 9v3l3 3 1 3-1 2 1 18v8l1 23-1 11 1 2 7 2 3 2v3l1 2 11 8 27 20 1 2-1 3v2l3 3 1 3h-2l-1-1-13-2-22-1-1 1 1 1a6 6 0 001 1l11 5 8 4h1a2900 2900 0 01-12-9h2l14 2a534 534 0 0130 8l9 3 1 2v0h-7l-20-2H53l-20 3h-1l1 1h1l11 1h26l9 1 44 8 5 2-2 2c-4 7-6 15-8 22 0 1 0 3 2 3 2 1 4-1 5-3v-5l1-1 6-2c2-1 5-2 7-5 2-1 4-3 4-6l1-2 8-8 9-8h1l8 3-16 9v1c-2 0-4 1-5 3-5 5-8 11-8 19 0 5 3 7 8 6 9-2 16-10 18-20l-1-7a32 32 0 00-3-3h1a584 584 0 0179-28h-4l-12 2h-2l4-3v-1h1l3-3 2-1c3 0 5-3 7-4l-10 2-21 8a402 402 0 00-32 15l-1-7 1-1c9-5 18-10 27-13l23-10-5 9h1l4-5 10-9h1l-1-1-11 3-1-1 1-9a9 9 0 011-3 1158 1158 0 015-15l1-8 3-12 4-16 5-13 7-18v-7l-1-4a6 6 0 010-2c0-4 1-7-1-11v-2c2-1 2-1 1-3l-4-4-4-4 1-1zm-91 203l-5 2c-2 0-4-2-3-4 0-4 1-8 4-12 2-2 5-3 7-2s3 2 3 4c-1 4-3 9-6 12zm45-234c0-1-1-2-2-1l-2-2-3-5-6-1-4-2c-4 0-6-1-9-3-4-4-9-6-13-9l-4-1-12-2-1-2 1-2 4-1 19-2 4 1h2l9-6c1-1 2-1 1-2s-1 0-1 0c-4 0-7 1-10 3l-4-1c-5-7-12-13-18-18l-9-8v-3h2l7 4 25 16h1c1 1 2 0 2-1l-1-2-21-24-5-5-3-3v-3h2l7 4 11 8 12 9 2 2 1 1 1 1h2l1-1-1-1a2 2 0 000-1l-3-2-4-4-15-12-8-5-3-2V4h4a268 268 0 0131 19l4 5v1l-2 1v1l1 1h2c3-1 5 1 6 2l1 1 1-1-1-7-6-15-2-5V4h2l5 5 3 6c2 4 5 7 6 11 3 5 6 11 7 17l4 15v6c0 4 0 8-2 11v3a311 311 0 019 25l-20 6c-1 1-2 0-2-1a676 676 0 01-5-13zm-43 43c3-1 6-2 9-1l11 4 1 1 6 6 8 11v-1a14 14 0 01-3-1 91 91 0 00-9-5l-5-1-13-1h-3l-2-1c0-4 1-7-1-10l1-1zm-1 24h1c1 0 0 0 0 0v-1-1-5c0-1 0-2 2-2a49 49 0 004 0 29 29 0 012 0 31 31 0 015 1l8 2 4 2 9 6 2 1 3 5a1 1 0 010 1h-1l-4-3-15-6a145 145 0 00-2 0l-4-1-2-1v1h1l13 5h-1l-1-1h-1 1l1 1h1l7 4 3 3c6 4 10 10 11 17v1l1 1-2 1-8-2-3-1-8-3c-4-1-7-4-10-6a110 110 0 01-15-13 58 58 0 01-1-2v-1-1h-1v-2zm22 2h-1 1zm-1 0h-1 1zm-6-2h-1 1zm-2-1zm-14-22zm-1 30v-1l1 1 4 5 5 5a460 460 0 0012 10c2 2 5 3 9 4l22 4 5 2h-12l-14 1-4-1-13-4c-5-2-8-5-12-9h-1l-3-4v-10l1-3zm37 59h-3l-1 1-1 1v1l-4 6-2 2a48 48 0 01-3 3l-7 3a6 6 0 00-1 0h-1v2l1 1h1a9 9 0 002-1l2-1h2l-2 5a96 96 0 01-1 3 28 28 0 01-1 2l-6 9a24 24 0 01-1 2 24 24 0 01-4 3 56 56 0 01-1 1 67 67 0 01-3 2l-3 1-1 1h-1-2v1a38 38 0 01-2 0 68 68 0 01-6 2h-2l-3 1h-10-1a60 60 0 000-1 10 10 0 01-2 0l-3-2a24 24 0 01-1-1l-3-1-3-4a25 25 0 00-1-3l-1-1-4-5-1-2-1-1a100 100 0 00-4-4l-1-1a39 39 0 00-5-4 39 39 0 00-3-2 17 17 0 01-1-1h-1c-4-3-7-6-9-11-1-1-1-2-3-2h-4l-1-2h-1l-1-1-5-9a53 53 0 00-1-3l-1-1a5 5 0 010-3l1-1 1-2h1l2-2a54 54 0 013-1l12-5h3a23 23 0 011 0h2a254 254 0 0013-1l8-1a49 49 0 0016-5h1l1-1 6-3 1-1v1a54 54 0 00-1 0l-7 7-3 2 9-1c4-1 7-3 10-6a26 26 0 002-2l4-7 5 8h1v1l1 1 1 1a142 142 0 005 3l3 3 5 3 6 4h2a60 60 0 005 2h1l3 1h2l1 1 2 3v1l-1 3h-1v4a23 23 0 005-7l1-2v-1-1h3v1l-1 4-3 6c-1 2-3 4-6 4zm3 6l-1 7-1 3v-1l-1-10 1-1h3l-1 2zm-50 51a25 25 0 01-4 0l-4-1v-1h4a16 16 0 004 0v-1l1 1-1 2zm-63-31l1-8h1l1 1 1 1a1100 1100 0 01-4 6zm109-47h-3l-7-2v-1h1l1 1 10-1 9 3h1-12zM64 164l4-6 2-3 1-1 4-5 3-4 4-4 1-1h1l3-3v-1h1c3-4 7-6 11-9h1a46 46 0 012-1 36 36 0 013-1l2-1 5-1 11-2h2l8 2 3 2h1l3 2 1 1 2 1a27 27 0 013 2c3 3 5 6 6 10l2 9-1 8-1 1v-1l-3-3c-4-5-9-8-15-10l-14-2-11 1-9 2-6 2-2 1c-6 2-10 5-15 8l-3 3-1 1-7 6-4 4 2-7zm-1 14l1-1 14-14c9-7 19-12 29-14l8-1h10c6-1 11 1 16 4a29 29 0 015 4h1a30 30 0 014 6v6c-1 6-4 10-8 14s-8 6-13 9c-6 4-13 6-20 7l-27 2-10 2c-3 0-7 2-9 5l-2 5a3 3 0 01-1-1l1-5c2-3 4-6 8-7 5-4 12-4 18-6l15-3 21-8c3-2 6-3 9-7 2-2 2-5 2-8h-1-1l-8 6c-4 3-9 5-14 6l-25 5-18 3c-4 2-9 3-13 7l-2 1 1-3 9-14zm34 8l8-1h1l-5 2-24 4c-6 1-11 4-15 7l-1 1h-1v-1c0-2 0-3 2-4l8-3c3-2 7-2 10-3l17-2zm0 0zM68 54v1l-4 2v1l-1-1-8-9v-1l8-5h1l4 12zM47 36l11-4 15-7 1-1 2-1v2l-1 2-15 13-7 4h-1l-5-7v-1zM17 83L6 47l-2-9 1-2 1 1 13 24 4 7h2v-1l-3-7v-2l7-11 6-10c1-2 4-3 5-1l3 3c2 4 5 7 9 10l7 7 1 3v1c-2 2-4 1-7 0l-12-9c-2-2-2-2-3 0l-2 6 1 2 2 1 1-1v-3l12 8-4 2-30 17h-1zm3 8l1-2a8095 8095 0 0036-23h2l6-2v-1c2-3 5-4 7-5 6-2 12-5 17-9h3l2 3-3 5c-5 4-9 9-12 15-3 5-7 10-9 16l-2 2c-3 4-7 7-12 9l-2 3v2l-3 6-1 1-3 13v1h-1-1l-19-5h-2c-2-1-2-1-1-2l4-11v-3l-7-13zM7 142l-1-1 2-21h1l28 7 27 7 1 1-4 13-1 1-15-2-9-1-29-4zm8 13v-1a4 4 0 010-1v2zm83 126v1h-1l-1 2-1 2v1h-1l-2-1h-1l-3-1-2-1h-2l-6-2-4-1c-1 0-2 0-2-2v-1-1l-1-1v-1h-1v-4-1c1-2 1-4-2-6l-3-3h-1l-4-3-1-1h-1l-1-1-6-4-1-1v-1l-5-3-1-1-3-2h-1l-2-2h-1l-5-4-1-1v-1l-3-4h-1v-1h1v-1l2-6v-1h-1a4 4 0 00-1 1h-1l-2 3h-1-1l-4-2-1-1 1-7 1-6v-1l-1-6 1-1-1-13-1-25a9 9 0 00-1-4l-1-2-1-4 1-6 2-1h1l6 1a31 31 0 016 1l6 1h1l7 1h-1 4l3 1 2 1 1 10 1 2v5l2 6v1l-2 2a23 23 0 00-3 4l-1 3-2 3v1a48 48 0 01-2 4l-1 2v1l-1 3-1 4-2 5v1h-1v12l1-3 2-3v-1l3-5 1-1 3-5 1-1 1-2h1v2l-1 6v1l1 6 1 7 3 4 1 3 5 4 1 1h3l-1-1c-3-2-2-5-2-7l1 2h1v1l2 1 2 2h1-1l6 3h1c1 2 2 4 1 7h1v6a1 1 0 010 1l-1 6-1 6 1 1 5-6 1-1 2-3 2-3 1-1h1l1 1 6 4 2 2 1 1c2 2 2 3 1 6h-1a3 3 0 010 1v1l-2 3v2l1 4 1 2c0 2-1 4-3 4zm9 17s0 2-1 1c0 0 0 1 0 0l-4-1v-7l-1-2-1-4v-1l4-4c1-1 2-2 1-3v-7l2-6 4 5c2 4 5 7 9 9l6 3h0l-7 1-4 1-3 1-1 1 1 1h4a35 35 0 005 0 34 34 0 016-1h5c-6 1-11 5-17 7l-7 5-1 1zm18 4h-1l-12-3 4-1 8 4h1zm12 13l-3 3c-2 1-4 3-7 3l4-8c1-1 3-2 5-1l1 3zm15-18l-9 8h-2l-15-7-7-3h1l15-6h4l6-1h1l12 5a304 304 0 01-6 4zm25-17c-2 2-2 5-1 7 1 3 0 5-3 6l-2 1-1-1c-5-3-12-4-17-6l-3-1-1-2h2l20 5v1l1-2c0-1 0-3-2-3-4-3-9-3-14-4a45 45 0 00-2 0c3-2 7-3 10-6l1-1 6-6 1-1 1 1 4 10v2zm72-144a1 1 0 010 1v1c-2 2-2 4 0 6v6h-1l-3-1h-1v-1h-1l-5 1 3 1 9 5 1 3v1l-1 4v1c0 3-2 5-3 7a45 45 0 01-2 4v1l-1 2-3 6-3 7v3l-1 3v1l-1 1-2 12-2 11-2 10c0 2-1 5-3 7l-2 6h-1a2 2 0 000 1v3l-1 11v1l-1 1h-2l-1 1h-1l-2 1h-1l-3 2h-1l-6 3h-1l-3 1-4 2-6 3-5 2-3 1c-1 1-2 1-2-1l-1-3-1-3-1-1v-1-1l-2-4-1-3a2 2 0 010-1l1-2 1-2 1-2 1-3 1-1 2-6c0-2 1-2 2-3l1-1a21 21 0 002-2l1-3h1l1 1v9l1 2 1 4 2 6 3 6 2 1h1-1a6 6 0 010-1v-1a5 5 0 010-1h-1a4 4 0 000-1v-1-1a2 2 0 000-1v-1l-1-2v-2l1-13 1-6 1 11 2 4a26 26 0 001 2v1l1 1h1l2 3a53 53 0 010-2v-2h-1v-2-5l-1-6a1 1 0 010-1v-5-1a22 22 0 011-7l1-4a112 112 0 001-4l1 1 1 1h1v1c3 1 4 3 6 5l1 2a15 15 0 013 4v2l1 2 1 1v-4l-2-7-2-6-1-1v-1l-1-1-3-4-1-1-2-2h-1l-4-4h-1 13l6 2h1l4 1s0 1 0 0c1 0 0 0 0 0l-1-3h-1l-2-3-1-1-3-2-1-1-1-1h-1l-1-1-6-2h-1-1a1 1 0 010-1 2 2 0 010-1v-3-1a31 31 0 00-1-1v-1a32 32 0 000-1l-2-6v-1l-1-2v-1-1-1l1-1v-1l2-6 1-3a5 5 0 00-1-1v-2h-1v-1l-3-5a2 2 0 010-1v-1h1l2-4c1-1 2-2 1-4 0-2 0-2 2-2l6-3h2l6-3 7-2 2-1 5-2c2-1 4-1 5 1l1 1 1 1 4 4zm-48 2h-1a1608 1608 0 00-9-18l60-18h1l-1 10-1 8-1 2a8748 8748 0 00-48 16zm-98 76l17 3h2l3 4 2 8-2 6-3 3c2 0 4 1 5 3l3 3c3 2 7 2 9-1l2-4c1-2 2-4 5-5v-2h-4l-5 5-2 2h-2l-3-2v-2l1-6c0-5-1-9-4-12v-1c3-3 5-6 6-10l-1-2c-1-1-2 0-2 1l-3 4c-1 2-4 2-6 2l-24-2h-1l-7 6h1l13-1zm75 3a88 88 0 00-6 4h-1l-10 1-6-2-2-2h7c5 0 9-1 13-3l4-1v-1h-2c-9 1-18 0-26-1-3-1-6-1-7-4v-2l-2-3h-1v5l1 4c2 3 5 4 8 5 2 1 2 1 2 3l1 2 5 2 4 1 4 2h4l2-1 10-8-2-1zm-28 28l-1-1c-2 2-5 2-8 2l-4 1c-2 2-4 1-6 0-3-2-6-3-9 0h-4l-3 1-1 1v2h1c3 1 5 1 8-1 2-1 5-1 7 1h7l9-3 1 1c2 1 3 0 4-1l1-1-2-2zm-12 9l-10 1c-2 1-5 2-7 5l-1 5 1 4 1 1 1-1 1-4 4-5a272 272 0 019-3c3 0 6 0 9 2h1v-1c-2-3-5-5-9-4zm-23-31l6-1h1l-1-2h-1l-6-1H98l-5 2v1l2 1c2-1 4-1 7 1 2 2 4 2 7 2l4-3h2zm-37 4c1-2 0-4-1-5l-2-3-2-4-1-1-2 2c-1 3 1 6 4 8l3 3 1 1v-1z"/><path fill="#2E2E2E" d="M15 154v-1 1 0"/><path fill="#F6E5CC" d="M198 223a24 24 0 003-6l1-3v-1a7 7 0 00-2 0h-1v2l-1 2a24 24 0 010 1l-5 5v-3l1-1 1-2v-1l-2-3-1-1h-1-1l-3-1h-1a59 59 0 01-5-2 39 39 0 01-2-1 42 42 0 01-6-3l-5-4-3-2a88 88 0 01-5-3v-1h-1l-1-1a8 8 0 000-1h-1l-5-8a33 33 0 01-6 9c-3 3-6 5-10 6l-9 1 3-2v-1l7-6h1a1 1 0 000-1l-1 1-6 3-1 1h-1a44 44 0 01-16 5 289 289 0 01-16 1l-5 1h-2a21 21 0 00-3 0h-1l-12 5a56 56 0 00-3 1 25 25 0 00-2 2h-1l-1 2-1 1v1l1 3 6 12a8 8 0 002 1l1 1 4 1c2 0 3 1 3 2 2 5 5 8 9 11h1l1 1 3 2 1 1a44 44 0 014 3l1 1a100 100 0 014 4l1 1 2 2 3 5 1 1 1 3 3 4 3 1 2 1 2 1 2 1h1v1h8l3-1h2a56 56 0 002 0 65 65 0 006-2 38 38 0 002 0l1-1a35 35 0 001 0l1-1h2a53 53 0 002-1 66 66 0 003-2l1-1 4-3 1-2 6-9 1-2 1-3 2-5h-2l-2 1a9 9 0 01-2 1 3 3 0 01-1 0l-1-1v-2h2l7-3a29 29 0 009-11 2 2 0 000-1l1-1 1-1h3c3 0 5-2 6-5zm-120 5l-1-1-3-3c-3-2-5-5-4-8l2-2 1 1 2 4 2 3c1 1 2 3 1 5v1zm11-13c1-3 4-4 7-6l1-1 24 3c2 0 4 0 6-2l3-4 2-2 1 3c-1 4-3 7-6 10-1 0-1 0 0 0 3 4 3 8 4 13l-1 6v2l3 2h2l2-2 5-5h4v2c-3 1-4 3-5 5l-2 3c-2 3-6 4-9 2l-3-3c-1-2-3-3-5-3l2-4c2-1 3-3 3-5l-2-8-3-4h-2l-17-3a43 43 0 00-14 1zm20 11c-3 0-5 0-7-2-3-2-5-2-7-1l-2-1v-1l5-2h16l6 1h1l1 2h-1l-6 1h-2l-4 3zm38 33h-1c-3-2-6-2-9-2h-1l-8 3-4 5-1 4-1 1-1-1-1-4 1-5c2-3 5-4 7-5l10-1c4-1 7 1 9 4v1zm4-11c-1 1-2 2-4 0h-1l-9 3h-7c-2-2-5-2-7-1-3 2-5 2-8 1h-1v-2l1-1 3-1c1 1 3 0 4-1 3-2 6-1 9 1 2 1 4 2 6 0l4-1c3 0 6 0 8-2l1 1 2 2-1 1zm19-22l-2 1h-4l-4-2-4-1-5-2-1-2c0-3 0-3-2-3-3-1-6-2-7-5l-2-4v-4-1h1l2 2v3c1 3 4 3 7 4 8 1 17 2 26 0l2 1v1l-4 1c-4 2-8 3-13 3h-7l2 2 6 2 10-1 1-1 6-3h2l-10 9zM63 42l-7 5v1l7 9 1 1v-1l4-2v-1l-4-12h-1zm-11 2h1l7-3a240 240 0 0016-16v-2l-2 1-1 1-15 7-11 4v1l5 7zm0 20l-12-8a121 121 0 00-1 4l-2-1-1-2 2-6c1-2 1-2 3 0l12 9c3 1 4 2 7 0v-1l-1-3-7-7c-4-3-7-6-9-10l-3-3c-1-2-4-1-5 0-1 4-4 7-6 11l-7 11v2l3 7v1h-2l-4-7L6 37l-1-1-1 2 2 9 11 36h1a13705 13705 0 0130-17l4-2zm-25 43l-4 11c-1 1 0 1 1 1l2 1a522 522 0 0019 5h1l1-1 4-13v-1l3-6v-2l2-3c5-2 9-5 12-9l2-2a116 116 0 0121-32l3-4-2-3h-3c-5 4-11 6-17 9-2 1-5 2-6 5l-1 1-6 2h-2a8187 8187 0 01-36 23l-1 1 7 14v3zm20 17v0zm160-15a1301 1301 0 0122-8 340 340 0 00-10-26c2-3 2-7 2-11v-6l-4-16c-1-5-4-11-7-16-1-4-4-7-6-11l-4-6-4-5h-2v3l2 5 6 15 1 6-1 2c-1 1-1 0-1-1-2-1-4-3-6-2h-2l-1-1v-1l2-1v-1l-4-5-10-7-2-1a255 255 0 00-22-11h-1v3l2 2 9 5a463 463 0 0119 16l3 2v3h-2l-1-1-1-1-2-2h-1l-11-9a3254 3254 0 01-20-12v2c0 2 1 3 3 4l5 5 21 24 1 2-2 1a7 7 0 01-1 0l-25-16-7-4h-2v3l9 8c6 5 13 10 18 18l4 1c3-2 6-3 10-3h1c1 1 0 1-1 2l-9 5-2 1-5-1-19 2-4 1-1 2 2 1 11 3 5 1c4 3 9 5 13 9 2 1 5 3 8 3l5 1 6 2 3 5c0 1 1 2 2 1l2 2 5 13 1 1z"/></svg>