<svg xmlns="http://www.w3.org/2000/svg" viewBox="0 0 1771 2010"><path fill="#1572b6" d="M161 1808L0 0h1771l-161 1808-726 201z"/><path fill="#33a9dc" d="M886 1855l586-162 137-1545H886z"/><path fill="#fff" d="M886 803h293l20-227H886V354h556l-6 60-54 611H886z"/><path fill="#ebebeb" d="M887 1379h-1l-247-67-16-177H401l31 349 454 126h1v-231z"/><path fill="#fff" d="M1160 1015l-27 297-247 67v231l455-126 3-38 38-431h-222z"/><path fill="#ebebeb" d="M886 355v221H351l-5-50-10-112-5-59zm-1 448v222H642l-4-50-10-112-5-60h263z"/></svg>