<svg xmlns="http://www.w3.org/2000/svg" width="2169" height="2500" preserveAspectRatio="xMinYMin meet" viewBox="0 0 256 295"><g fill="none"><path fill="#136DA9" d="M84.8 47.6C33.3 69.4.9 112.3.9 167.4a127.5 127.5 0 00255 0c0-84.6-78.7-118.3-78.7-118.3s-17.1-7.1-26.7-13.5c0 0-12.2-7.5-33.3-34.8 0 0 .4 31-32.4 46.8"/><path fill="#F0F0F0" d="M115.7 270.2c-4.5-3-3.5-13 8.7-5.9 0 0 25.8 19 66.7-3.8 3.2-1.8 7.1 4.5-3 10.2 0 0-41.3 21.2-72.4-.5z"/><path stroke="#FFFDFF" d="M115.7 270.2c-4.5-3-3.5-13 8.7-5.9 0 0 25.8 19 66.7-3.8 3.2-1.8 7.1 4.5-3 10.2 0 0-41.3 21.2-72.4-.5z"/><path fill="#F0F0F0" d="M168.4 238.8c15 1.7 9.8 9 13.9 10 8.2 2.3 4.7-6.6 4.7-6.6-6.1-12.2-16.6-11.4-16.6-11.4-16.4-2.5-28.7 13.1-28.7 13.1-3 6.7 1.2 7 2.8 6.4 8-3.7 12.8-12.8 23.9-11.5z"/><path stroke="#FFFDFF" d="M168.4 238.8c15 1.7 9.8 9 13.9 10 8.2 2.3 4.7-6.6 4.7-6.6-6.1-12.2-16.6-11.4-16.6-11.4-16.4-2.5-28.7 13.1-28.7 13.1-3 6.7 1.2 7 2.8 6.4 8-3.7 12.8-12.8 23.9-11.5z"/><path fill="#008ECE" d="M17.6 231.5s45.7 37.9 157-46.4c0 0 55.8-35 54.2-95.2 0 0-18.1-26-48.6-39.4-4.4-2-42.5-22.7-63-48.8 0 0-3.8 75.7-100.8 105.5 0 0-24.4 36-11 94.6 0 0 8.5 23.8 12.2 29.7"/><path fill="#F0F0F0" d="M90.1 245.6s-38 1-33.4-39.5c0 0 8-45.5 61.2-35.4 0 0 11.7 2.6 33.4 19.3 0 0 14.4 11 22.3 10.8 0 0 6 .6 18.8-7.5 0 0 26-20 35.1-19.4.2 0 18.4-2 18.4 27.2 0 0 .3 32.2-24 43 0 0-6.4 2.2-13.3-5 0 0-19.9-22.7-29.7-26.4 0 0-5.6-2.2-13.1.5 0 0-4.9.5-25 13.8 0 0-33.7 21.1-50.7 18.6z"/><path stroke="#FFFDFF" d="M90.1 245.6s-38 1-33.4-39.5c0 0 8-45.5 61.2-35.4 0 0 11.7 2.6 33.4 19.3 0 0 14.4 11 22.3 10.8 0 0 6 .6 18.8-7.5 0 0 26-20 35.1-19.4.2 0 18.4-2 18.4 27.2 0 0 .3 32.2-24 43 0 0-6.4 2.2-13.3-5 0 0-19.9-22.7-29.7-26.4 0 0-5.6-2.2-13.1.5 0 0-4.9.5-25 13.8 0 0-33.7 21.1-50.7 18.6z"/><path fill="#008ECE" d="M110.2 100.5c24.5-35.2 7-99.8 7-99.8-2.3 35-31.8 46.6-31.8 46.6-53 22.9-69 59-69 59 11.4 16 41.5 69 93.8-5.8"/><path fill="#A0D8F1" d="M117.1.7s3.2 29.5-12.8 39c0 0-25.7 12-33.5 16 0 0-33 19.8-43.9 38.6 0 0-23.3 31 8.9 23.7 0 0 58-16.4 81.6-65.8 0 0 1.4-4.2-3-8.5 0 0 17.7-13.4 2.7-43"/><path fill="#F0F0F0" d="M117.1.7s1.3 20.1-15.4 36.8c0 0-5 7-31 18.1 0 0-29.6 15.5-43 37 0 0-19.7 23.8 7.4 17.4 0 0 54.8-20.2 74.9-57.3 0 0 2.7-3.9-1.5-7.9 0 0 19.7-15.4 8.6-44.1"/></g></svg>