<svg xmlns="http://www.w3.org/2000/svg" width="2500" height="1002" viewBox="0 0 300 120"><path fill="#e53238" d="M39 26C18 26 0 35 0 62c0 22 12 35 39 35 33 0 35-21 35-21H58s-3 11-20 11c-13 0-22-9-22-21h59v-8c0-12-7-32-36-32zm-1 10c13 0 22 8 22 20H16c0-13 11-20 22-20z"/><path fill="#0064d2" d="M75 0v95h15l1-9s7 11 27 11c21 0 36-14 36-35 0-20-14-35-36-35-21 0-27 11-27 11V0H75zm39 37c15 0 24 11 24 25 0 15-11 25-24 25-15 0-23-12-23-25 0-12 7-25 23-25z"/><path fill="#f5af02" d="M191 26c-32 0-34 18-34 21h16s0-11 17-11c10 0 18 5 18 14v4h-18c-25 0-38 7-38 21 0 15 12 23 28 23 22 0 29-13 29-13l1 10h14l-1-10V52c0-21-17-26-32-26zm17 37v5c0 6-3 20-24 20-11 0-16-6-16-13 0-11 16-12 40-12z"/><path fill="#86b817" d="M215 29h18l25 51 26-51h16l-47 91h-16l13-25-35-66z"/></svg>