<svg xmlns="http://www.w3.org/2000/svg" baseProfile="tiny" version="1.2" viewBox="0 0 2350 2315"><path d="M1175 0a1175 1175 0 00-285 2315c-6-15-9-36-9-56v-200H734c-79 0-152-35-185-100-38-70-44-179-141-247-29-23-6-47 27-44 61 18 111 59 158 121 47 61 68 76 156 76 41 0 106-3 165-12 32-82 88-155 155-191-393-47-581-241-581-505 0-115 50-223 132-317-27-91-62-279 12-353 176 0 282 115 308 144a905 905 0 01570 0c26-29 132-144 308-144 71 71 38 262 9 353 82 91 129 202 129 317 0 264-185 458-575 499 108 56 185 215 185 332v268c0 9-3 18-3 26A1175 1175 0 001175 0z"/></svg>