<svg xmlns="http://www.w3.org/2000/svg" width="2500" height="2305" preserveAspectRatio="xMinYMin meet" viewBox="0 0 256 236"><path fill="#E24329" d="M128 236l47-145H81l47 145z"/><path fill="#FC6D26" d="M128 236L81 91H15l113 145z"/><path fill="#FCA326" d="M15 91L1 135a10 10 0 003 11l124 90L15 91z"/><path fill="#E24329" d="M15 91h66L53 4c-2-5-8-5-10 0L15 91z"/><path fill="#FC6D26" d="M128 236l47-145h66L128 236z"/><path fill="#FCA326" d="M241 91l15 44a10 10 0 01-4 11l-124 90L241 91z"/><path fill="#E24329" d="M241 91h-66l29-87c1-5 7-5 9 0l28 87z"/></svg>