<svg xmlns="http://www.w3.org/2000/svg" width="2443" height="2500" preserveAspectRatio="xMidYMid" viewBox="0 0 256 262"><path fill="#4285F4" d="M256 133c0-10-1-18-3-26H131v48h71c-1 12-9 30-26 43v1l38 30h3c25-22 39-56 39-96"/><path fill="#34A853" d="M131 261c35 0 64-12 86-32l-41-31c-11 7-26 13-45 13-35 0-64-23-75-55l-1 1-41 31v1c21 43 65 72 117 72"/><path fill="#FBBC05" d="M56 156a80 80 0 010-51v-2L15 71l-1 1a131 131 0 000 117l42-33"/><path fill="#EB4335" d="M131 50c24 0 41 11 50 20l37-36A130 130 0 0014 72l42 33c11-32 40-55 75-55"/></svg>