<svg xmlns="http://www.w3.org/2000/svg" width="2199" height="2500" viewBox="0 0 256 292"><path fill="#d4b830" d="M24 262L0 0h256l-23 262-105 29-104-29zm189-14l20-225H128l1 248 84-23zM119 56H93v135l-50-14v31l76 20V56z"/><path fill="none" d="M110 226l-36-10-30-8v-16c0-14 0-15 1-14l25 7 23 6V57h25v85l-1 85-7-1z"/><path fill="#ebebeb" fill-opacity=".9" d="M43 208v-31l50 14V56h26v172l-76-20z"/><path fill="#fdd83c" d="M128 23h105l-20 225-85 23V23zm80 187l7-84-51 6V87h54l3-31-83 1 2 111 49-8-1 24-50 14 1 30 69-18z"/></svg>