<svg xmlns="http://www.w3.org/2000/svg" width="2500" height="1733" viewBox="-18.5 6.6 191.2 132.5"><path fill="none" d="M-18.5 6.6h191.2V139H-18.5V6.6z"/><path fill="#5d87a1" d="M40 113.6H35c-.2-8.8-.7-17-1.5-24.7l-8 24.7h-3.9l-7.8-24.7a403 403 0 00-1.2 24.7H7.8c.3-11 1-21.3 2.3-31h6.4l7.5 22.8 7.5-22.7h6.2c1.3 11.2 2.1 21.5 2.4 30.9m22.4-22.8a69.6 69.6 0 01-8.3 24.9c-2.7 4-5.7 6-8.9 6-.8 0-1.9-.3-3.1-.8v-2.7l2.1.1c1.5 0 2.7-.4 3.6-1.2 1.1-1 1.7-2.2 1.7-3.4 0-.9-.4-2.6-1.3-5.3l-5.7-17.6h5.1l4 13.2c1 3 1.4 5 1.2 6.2 2.3-6 3.8-12.4 4.7-19.4h4.9z"/><path fill="#f8981d" d="M131.4 113.6h-14.7v-31h5v27.2h9.7v3.8zm-18.6.7l-5.6-2.8c.5-.4 1-.8 1.4-1.4 2.4-2.8 3.6-7 3.6-12.6 0-10.2-4-15.3-12-15.3-4 0-7 1.3-9.3 3.9-2.4 2.8-3.6 7-3.6 12.5s1 9.5 3.2 12c2 2.3 5 3.4 8.9 3.4 1.4 0 2.8-.1 4-.5l7.4 4.3 2-3.5zm-18.4-6.9a19 19 0 01-1.9-9.7c0-7.8 2.4-11.7 7.1-11.7 2.5 0 4.3 1 5.5 2.8 1.2 2 1.9 5.2 1.9 9.6 0 7.9-2.4 11.8-7.1 11.8-2.5 0-4.3-1-5.5-2.8m-9.2-2.4c0 2.6-1 4.8-3 6.5-1.8 1.6-4.4 2.5-7.7 2.5-3 0-6-1-8.7-2.9l1.3-2.7a15 15 0 006.6 1.9 7 7 0 004.4-1.3c1-.8 1.7-2 1.7-3.4 0-1.8-1.3-3.4-3.7-4.7l-6.5-3.7c-2.3-1.7-3.5-3.5-3.5-6.6 0-2.5.9-4.5 2.7-6a10 10 0 016.8-2.3c2.8 0 5.4.7 7.8 2.2l-1.2 2.7c-2-.9-4-1.3-6-1.3-1.5 0-2.8.4-3.6 1.2-.9.7-1.4 1.7-1.4 2.9 0 1.8 1.3 3.4 3.7 4.8 2.2 1.1 6.7 3.7 6.7 3.7 2.4 1.7 3.6 3.5 3.6 6.5"/><path fill="#5d87a1" d="M137.6 72.3c-3 0-5.3.2-7.3 1-.5.3-1.4.3-1.5 1 .3.3.3.8.6 1.2.5.7 1.2 1.7 2 2.3l2.3 1.7c1.5.9 3.1 1.4 4.6 2.3l2.4 1.8 1.2 1v-.2l-.6-1.2-1-1c-1.2-1.5-2.5-2.8-4-3.8-1.2-.9-3.8-2-4.3-3.4l2.5-.6c1.3-.4 2.5-.3 3.8-.6l1.8-.6V73c-.7-.7-1.2-1.6-2-2.2-1.8-1.6-4-3.2-6-4.6-1.2-.7-2.7-1.2-4-1.9-.4-.2-1.2-.3-1.4-.7-.7-.8-1-1.9-1.6-2.8l-3-6.5c-.7-1.5-1.1-3-2-4.3-3.8-6.4-8-10.2-14.4-14-1.4-.8-3-1.1-4.8-1.5l-2.8-.2c-.6-.2-1.2-1-1.7-1.3-2.1-1.3-7.6-4.2-9.2-.4-1 2.5 1.5 4.8 2.4 6l1.9 2.9c.3.6.3 1.3.6 2 .6 1.6 1.1 3.4 2 5l1.3 2.3c.3.4.8.6 1 1.2-.6.8-.6 2-1 2.8-1.3 4.3-.7 9.5 1.2 12.6.6 1 2 3 3.9 2.2 1.7-.7 1.3-2.8 1.8-4.7.1-.4 0-.7.3-1L104 67c1.1 1.8 3.2 3.7 4.8 5 1 .6 1.6 1.8 2.8 2.2v-.1h-.1c-.2-.3-.6-.5-.9-.7l-2-2.3c-1.5-2-2.9-4.4-4-6.8-.7-1.1-1.2-2.4-1.7-3.6-.2-.4-.2-1-.6-1.3-.6.8-1.4 1.5-1.8 2.5-.7 1.6-.8 3.6-1 5.7h-.2c-1.2-.3-1.6-1.5-2-2.5-1.2-2.7-1.3-7-.4-10 .3-.8 1.4-3.3 1-4-.3-.7-1-1.1-1.4-1.7L95.2 47c-.9-2-1.3-4.4-2.3-6.5-.4-1-1.2-2-1.8-2.9-.8-1-1.5-1.7-2.1-2.9-.2-.4-.5-1-.2-1.5.1-.3.3-.4.6-.5.5-.4 1.8.1 2.3.3 1.4.6 2.6 1.1 3.7 2 .5.3 1.1 1 1.8 1.2h.8c1.2.2 2.5 0 3.6.4a24 24 0 015.4 2.6c4.9 3 9 7.5 11.7 12.7l1 2.6c.8 1.8 1.8 3.7 2.5 5.5.8 1.7 1.6 3.5 2.7 5 .6.8 2.8 1.2 3.8 1.6.8.3 2 .6 2.6 1l3.7 2.6c.6.4 2.5 1.4 2.6 2.1M99.5 39.8a5.8 5.8 0 00-1.5.2v.1c.3.6.9 1 1.2 1.5l.9 1.8c.6-.4.8-1 .8-2l-.4-.7c-.2-.4-.7-.6-1-.9"/><path fill="#f8981d" d="M141.1 113.6h.8v-3.8h-1.1l-1 2.6-1-2.6h-1.1v3.8h.7v-2.9l1.1 2.9h.6l1-2.9v2.9zm-6.2 0h.8v-3.2h1.1v-.6h-3v.6h1.1v3.2z"/></svg>