<svg xmlns="http://www.w3.org/2000/svg" width="2500" height="1309" preserveAspectRatio="xMinYMin meet" viewBox="0 0 256 134"><g fill-rule="evenodd"><ellipse cx="128" cy="66.6" fill="#8993BE" rx="128" ry="66.6"/><path fill="#232531" d="M36 106l14-71h32c14 1 21 8 21 20 0 21-16 34-31 33H56l-3 18H36zm24-31l4-27h11c7 0 11 3 11 8-1 15-8 18-16 19H60zm40 13l14-71h17l-4 18h16c14 1 19 8 18 17l-6 36h-18l6-33c1-4 1-7-5-7h-13l-8 40h-17zm53 18l14-71h33c14 1 21 8 21 20 0 21-17 34-32 33h-15l-4 18h-17zm24-31l4-27h12c6 0 10 3 10 8 0 15-7 18-15 19h-11z"/></g></svg>