<svg xmlns="http://www.w3.org/2000/svg" width="2500" height="2490" preserveAspectRatio="xMinYMin meet" viewBox="0 0 256 255"><defs><linearGradient id="a" x1="13%" x2="79.6%" y1="12%" y2="78.2%"><stop offset="0%" stop-color="#387EB8"/><stop offset="100%" stop-color="#366994"/></linearGradient><linearGradient id="b" x1="19.1%" x2="90.7%" y1="20.6%" y2="88.4%"><stop offset="0%" stop-color="#FFE052"/><stop offset="100%" stop-color="#FFC331"/></linearGradient></defs><path fill="url(#a)" d="M127 0C62 0 66 28 66 28v29h62v9H42S0 61 0 127c0 65 36 63 36 63h22v-30s-1-37 36-37h61s34 1 34-33V34s6-34-62-34zM93 20a11 11 0 0111 11 11 11 0 01-11 11 11 11 0 01-11-11 11 11 0 0111-11z"/><path fill="url(#b)" d="M129 254c65 0 61-28 61-28l-1-29h-61v-9h86s42 5 42-61c0-65-37-63-37-63h-21v31s1 36-36 36h-61s-35-1-35 33v56s-5 34 63 34zm34-19a11 11 0 01-11-12 11 11 0 0111-11 11 11 0 0111 11 11 11 0 01-11 12z"/></svg>