<svg xmlns="http://www.w3.org/2000/svg" width="1957" height="2500" preserveAspectRatio="xMinYMin meet" viewBox="0 0 256 327"><path d="M69 0l-5 2c-5-2-10-2-14 2-7-1-9 0-11 3-1 0-10-2-15 5-11-2-14 6-10 13-2 3-5 7 0 13-1 4 0 8 4 13-1 5 1 9 5 11-1 7 7 11 9 13 1 4 2 8 11 10 1 6 6 7 11 8-16 10-30 22-30 51l-2 4a50 50 0 00-9 76l7 22c4 29 28 43 34 44 10 7 20 14 33 19 13 13 27 18 41 18 0 0 28-5 41-18 13-5 23-12 33-19 6-1 30-15 34-44l7-22c25-29 9-65-9-76l-2-4c0-29-14-41-30-51 5-1 10-2 11-8 9-2 10-6 11-10 2-2 10-6 9-13 4-2 6-6 5-11 4-5 5-9 4-13 5-6 2-10 0-13 4-7 1-15-10-13-5-7-14-5-15-5-2-3-4-4-11-3-4-4-9-4-14-2-6-4-10-1-14 1-7-3-9 1-12 2-8-2-10 2-14 6h-4c-12 6-18 20-20 28-2-8-8-22-20-28h-4c-4-4-6-8-14-6-3-1-5-5-12-2l-9-3-80 141"/><path fill="#75A928" d="M46 30c31 16 49 29 59 40-5 21-31 22-41 21l4-4c-2-1-11 0-17-3l5-3c-6-2-12-3-16-6 2 0 4 0 6-2-5-2-10-5-14-9l6-1-12-9 6-1c-3-3-8-7-10-11h7c-1-3-6-4-9-11h7l-6-11 15-1-4-4c6-1 12 1 16 2 2-2 0-4-2-6l14 4c2-2-2-4-3-6 8 1 11 3 14 6 3-3 0-5-1-7 6 2 9 5 12 8 1-1 3-2 1-6 4 2 7 5 9 9 3-2 2-4 2-7l11 12 1-5c11 10 26 35 4 46-18-16-40-26-64-35m165 0c-31 16-49 29-59 40 5 21 31 22 41 21-2-1-4-2-4-4 2-1 11 0 17-3-3-1-4-1-5-3 6-2 12-3 16-6-2 0-4 0-7-2 5-2 11-5 15-9l-6-1 12-9-7-1c4-3 8-7 10-11h-7c2-3 7-4 10-11h-7l6-11-15-1 4-4c-6-1-12 1-17 2-2-2 0-4 3-6l-14 4c-2-2 1-4 3-6-8 1-11 3-14 6-3-3-1-5 1-7-6 2-9 5-12 8-1-1-3-2-1-6-4 2-7 5-10 9-2-2-1-4-1-7l-11 12-2-5c-10 10-25 35-3 46 18-16 40-26 64-35"/><path fill="#BC1142" d="M166 237c0 19-17 34-37 34-21 0-37-15-37-34-1-19 16-34 37-35 20 0 37 16 37 35m-59-98c16 10 18 33 6 51s-34 25-49 15c-16-10-18-33-6-51 12-19 34-25 49-15m42-2c-16 10-18 33-6 51s34 25 49 15c16-10 18-33 6-51s-34-25-49-15M30 156c17-5 6 68-8 62-15-12-19-47 8-62m192-1c-16-5-5 68 8 62 15-12 20-47-8-62m-56-55c29-5 53 12 52 43-1 12-63-41-52-43m-79-1c-29-5-53 12-52 43 1 12 62-41 52-43m41-7c-17-1-34 13-34 20 0 9 14 19 34 19 21 0 34-7 34-17 0-11-19-22-34-22m1 190c15-1 35 5 35 12s-18 23-36 23c-19 1-37-15-36-21-1-8 22-14 37-14m-55-43c10 13 15 35 6 42-8 5-28 3-43-18-10-17-8-35-2-40 11-7 27 2 39 16m108-4c-12 14-18 38-10 46 8 6 30 5 46-17 11-15 8-39 1-46-10-8-24 2-37 17"/></svg>